<?xml version="1.0" encoding="utf-8"?>
<!-- Generator: Adobe Illustrator 25.2.1, SVG Export Plug-In . SVG Version: 6.00 Build 0)  -->
<svg version="1.1" id="Layer_1" xmlns="http://www.w3.org/2000/svg" xmlns:xlink="http://www.w3.org/1999/xlink" x="0px" y="0px"
	 viewBox="0 0 300 220" style="enable-background:new 0 0 300 220;" xml:space="preserve">
<style type="text/css">
	.st0{opacity:0.4;}
	.st1{fill:url(#SVGID_1_);}
	.st2{fill:#1E1E1E;}
	.st3{fill:#FFFFFF;}
	.st4{fill:#E5E6EB;}
	.st5{fill:#3F9BD6;}
	.st6{fill:#F8D006;}
	.st7{fill:#D03938;}
	.st8{fill:#EA8096;}
	.st9{fill:#F5BDC8;}
	.st10{fill:#DA5544;}
	.st11{opacity:0.3;}
</style>
<g>
	<g class="st0">
		<linearGradient id="SVGID_1_" gradientUnits="userSpaceOnUse" x1="18.0666" y1="108.9845" x2="280.0497" y2="108.9845">
			<stop  offset="0" style="stop-color:#F0F0FB"/>
			<stop  offset="1" style="stop-color:#D2D7F6"/>
		</linearGradient>
		<path class="st1" d="M36.79,141.3c5.74,32.93,58.23,49.74,70.35,53.62c46.17,14.78,138.39,24.47,165.57-26.04
			c18.48-34.35-3.24-77.73-7.28-85.81c-3.2-6.4-25.69-49.76-68.29-58.19c-24.69-4.89-28.04,7.51-61.28,8.68
			C78.02,35.58,48.26-0.57,28.62,15.17c-12.36,9.9-10.67,32.28-10.21,38.3c1.8,23.89,17.21,30.33,19.91,58.21
			C39.93,128.29,34.89,130.42,36.79,141.3z"/>
	</g>
</g>
<path d="M298.5,220H1.5c-0.83,0-1.5-0.67-1.5-1.5l0,0c0-0.83,0.67-1.5,1.5-1.5h297c0.83,0,1.5,0.67,1.5,1.5l0,0
	C300,219.33,299.33,220,298.5,220z"/>
<g>
	<g>
		<g>
			<path class="st2" d="M262.44,54.25v109.87H45.55V54.25c0-4.66,3.78-8.44,8.44-8.44h200C258.66,45.81,262.44,49.59,262.44,54.25z"
				/>
		</g>
		<g>
			<rect x="59.47" y="59.72" class="st3" width="189.06" height="104.4"/>
		</g>
		<g>
			<path class="st3" d="M53.14,53.4v103.13h201.7V53.4H53.14z"/>
		</g>
		<g>
			<polygon class="st4" points="202.57,217.08 191.45,204.2 191.45,204.2 191.45,193.21 116.54,193.21 116.54,204.2 105.42,217.08 
							"/>
		</g>
		<g>
			<polygon class="st2" points="202.57,217.08 191.45,204.2 191.45,204.2 191.45,193.21 116.54,193.21 116.54,204.2 105.42,217.08 
							"/>
		</g>
	</g>
	<g>
		<path class="st4" d="M262.44,164.12v20.65c0,4.66-3.78,8.44-8.44,8.44H54c-4.66,0-8.44-3.78-8.44-8.44v-20.65H262.44z"/>
	</g>
	<g>
		
			<rect x="150.2" y="51.88" transform="matrix(-1.836970e-16 1 -1 -1.836970e-16 314.3203 6.3304)" class="st2" width="7.59" height="216.88"/>
	</g>
	<g>
		<circle class="st2" cx="153.99" cy="178.67" r="6.22"/>
	</g>
</g>
<g>
	<g>
		<g>
			<g>
				<g>
					<rect x="183.65" y="89.85" class="st4" width="62.61" height="1.58"/>
				</g>
			</g>
			<g>
				<g>
					<rect x="183.65" y="103.93" class="st4" width="1.58" height="1.58"/>
				</g>
			</g>
			<g>
				<g>
					<rect x="186.82" y="103.93" class="st4" width="59.44" height="1.58"/>
				</g>
			</g>
			<g>
				<g>
					<rect x="183.65" y="109.95" class="st4" width="1.58" height="1.58"/>
				</g>
			</g>
			<g>
				<g>
					<rect x="186.82" y="109.95" class="st4" width="59.44" height="1.58"/>
				</g>
			</g>
			<g>
				<g>
					<rect x="183.65" y="115.96" class="st4" width="1.58" height="1.58"/>
				</g>
			</g>
			<g>
				<g>
					<rect x="186.82" y="115.96" class="st4" width="59.44" height="1.58"/>
				</g>
			</g>
			<g>
				<g>
					<rect x="183.65" y="121.98" class="st4" width="1.58" height="1.58"/>
				</g>
			</g>
			<g>
				<g>
					<rect x="186.82" y="121.98" class="st4" width="59.44" height="1.58"/>
				</g>
			</g>
			<g>
				<g>
					<rect x="183.65" y="128" class="st4" width="1.58" height="1.58"/>
				</g>
			</g>
			<g>
				<g>
					<rect x="186.82" y="128" class="st4" width="59.44" height="1.58"/>
				</g>
			</g>
			<g>
				<g>
					<rect x="183.65" y="94.16" class="st4" width="62.61" height="5.34"/>
				</g>
			</g>
			<g>
				<g>
					<rect x="183.65" y="132.67" class="st4" width="62.61" height="5.34"/>
				</g>
			</g>
		</g>
		<g>
			<g>
				<g>
					<g>
						<g>
							<g>
								<path class="st5" d="M186.55,73.33c0.2-2.79,2.43-5.02,5.22-5.22v-2.9c-2.13,0.1-4.12,0.97-5.63,2.49
									c-1.52,1.52-2.39,3.5-2.49,5.63H186.55z"/>
							</g>
						</g>
						<g>
							<g>
								<path class="st5" d="M192.57,68.11c2.79,0.2,5.02,2.43,5.22,5.22h2.9c-0.1-2.13-0.97-4.12-2.49-5.63
									c-1.52-1.52-3.5-2.39-5.63-2.49V68.11z"/>
							</g>
						</g>
						<g>
							<g>
								<path class="st5" d="M191.77,79.35c-2.79-0.2-5.02-2.43-5.22-5.22h-2.9c0.1,2.13,0.97,4.12,2.49,5.63
									c1.52,1.52,3.5,2.39,5.63,2.49V79.35z"/>
							</g>
						</g>
						<g>
							<g>
								<path class="st5" d="M197.78,74.13c-0.2,2.79-2.43,5.02-5.22,5.22v2.9c2.13-0.1,4.12-0.97,5.63-2.49
									c1.52-1.52,2.39-3.5,2.49-5.63H197.78z"/>
							</g>
						</g>
					</g>
					<g>
						<g>
							<rect x="188.86" y="72.21" class="st4" width="6.62" height="3.04"/>
						</g>
					</g>
				</g>
				<g>
					<g>
						<g>
							<g>
								<path class="st5" d="M209.34,73.33c0.2-2.79,2.43-5.02,5.22-5.22v-2.9c-2.13,0.1-4.12,0.97-5.63,2.49
									c-1.52,1.52-2.39,3.5-2.49,5.63H209.34z"/>
							</g>
						</g>
						<g>
							<g>
								<path class="st5" d="M215.35,68.11c2.79,0.2,5.02,2.43,5.22,5.22h2.9c-0.1-2.13-0.97-4.12-2.49-5.63
									c-1.52-1.52-3.5-2.39-5.63-2.49V68.11z"/>
							</g>
						</g>
						<g>
							<g>
								<path class="st5" d="M214.55,79.35c-2.79-0.2-5.02-2.43-5.22-5.22h-2.9c0.1,2.13,0.97,4.12,2.49,5.63
									c1.52,1.52,3.5,2.39,5.63,2.49V79.35z"/>
							</g>
						</g>
						<g>
							<g>
								<path class="st5" d="M220.57,74.13c-0.2,2.79-2.43,5.02-5.22,5.22v2.9c2.13-0.1,4.12-0.97,5.63-2.49
									c1.52-1.52,2.39-3.5,2.49-5.63H220.57z"/>
							</g>
						</g>
					</g>
					<g>
						<g>
							<rect x="211.64" y="72.21" class="st4" width="6.62" height="3.04"/>
						</g>
					</g>
				</g>
				<g>
					<g>
						<g>
							<g>
								<path class="st5" d="M232.12,73.33c0.2-2.79,2.43-5.02,5.22-5.22v-2.9c-2.13,0.1-4.12,0.97-5.63,2.49
									c-1.52,1.52-2.39,3.5-2.49,5.63H232.12z"/>
							</g>
						</g>
						<g>
							<g>
								<path class="st5" d="M238.14,68.11c2.79,0.2,5.02,2.43,5.22,5.22h2.9c-0.1-2.13-0.97-4.12-2.49-5.63
									c-1.52-1.52-3.5-2.39-5.63-2.49V68.11z"/>
							</g>
						</g>
						<g>
							<g>
								<path class="st5" d="M237.34,79.35c-2.79-0.2-5.02-2.43-5.22-5.22h-2.9c0.1,2.13,0.97,4.12,2.49,5.63
									c1.52,1.52,3.5,2.39,5.63,2.49V79.35z"/>
							</g>
						</g>
						<g>
							<g>
								<path class="st5" d="M243.36,74.13c-0.2,2.79-2.43,5.02-5.22,5.22v2.9c2.13-0.1,4.12-0.97,5.63-2.49
									c1.52-1.52,2.39-3.5,2.49-5.63H243.36z"/>
							</g>
						</g>
					</g>
					<g>
						<g>
							<rect x="234.43" y="72.21" class="st4" width="6.62" height="3.04"/>
						</g>
					</g>
				</g>
			</g>
		</g>
	</g>
	<g>
		<g>
			<g>
				<g>
					<rect x="72.18" y="117.85" class="st5" width="8.4" height="34.6"/>
				</g>
			</g>
			<g>
				<g>
					<rect x="82.63" y="111.69" class="st6" width="8.4" height="40.76"/>
				</g>
			</g>
			<g>
				<g>
					<g>
						<rect x="61.73" y="132.16" class="st4" width="8.4" height="20.29"/>
					</g>
				</g>
			</g>
			<g>
				<g>
					<rect x="93.08" y="115.24" class="st5" width="8.4" height="37.21"/>
				</g>
			</g>
			<g>
				<g>
					<rect x="103.53" y="115.24" class="st5" width="8.4" height="37.21"/>
				</g>
			</g>
			<g>
				<g>
					<rect x="113.99" y="94.42" class="st5" width="8.4" height="58.03"/>
				</g>
			</g>
			<g>
				<g>
					<rect x="124.44" y="84.35" class="st6" width="8.4" height="68.1"/>
				</g>
			</g>
			<g>
				<g>
					<rect x="134.89" y="99.68" class="st4" width="8.4" height="52.77"/>
				</g>
			</g>
			<g>
				<g>
					<rect x="145.34" y="89.65" class="st5" width="8.4" height="62.8"/>
				</g>
			</g>
			<g>
				<g>
					<rect x="155.79" y="74.58" class="st6" width="8.4" height="77.87"/>
				</g>
			</g>
			<g>
				<g>
					<rect x="166.24" y="67.88" class="st5" width="8.4" height="84.57"/>
				</g>
			</g>
			<g>
				<g>
					<rect x="103.53" y="101.61" class="st6" width="8.4" height="50.84"/>
				</g>
			</g>
		</g>
		<g>
			<g>
				<g>
					<g>
						<polygon class="st5" points="66.24,112.12 65.62,111.26 88.01,94.98 97.24,101.12 128.62,73.89 139.09,81.98 170.12,58.51 
							170.76,59.36 139.09,83.31 128.66,75.26 97.32,102.45 88.04,96.27 						"/>
					</g>
				</g>
				<g>
					<g>
						
							<ellipse transform="matrix(0.1602 -0.9871 0.9871 0.1602 -54.8801 158.8755)" class="st5" cx="65.93" cy="111.69" rx="1.46" ry="1.46"/>
					</g>
				</g>
				<g>
					<g>
						<circle class="st5" cx="88.29" cy="95.88" r="1.46"/>
					</g>
				</g>
				<g>
					<g>
						<circle class="st5" cx="97.28" cy="101.61" r="1.46"/>
					</g>
				</g>
				<g>
					<g>
						<circle class="st5" cx="128.64" cy="74.58" r="1.46"/>
					</g>
				</g>
				<g>
					<g>
						<circle class="st5" cx="139.09" cy="82.89" r="1.46"/>
					</g>
				</g>
				<g>
					<g>
						<circle class="st5" cx="170.44" cy="58.94" r="1.46"/>
					</g>
				</g>
			</g>
		</g>
	</g>
	<g>
		<g>
			<g>
				<g>
					<g>
						<path class="st4" d="M79.55,79.54l-2.41-2.59c1.45-1.35,2.25-3.19,2.25-5.17h3.54C82.93,74.71,81.7,77.54,79.55,79.54z"/>
					</g>
				</g>
			</g>
			<g>
				<g>
					<g>
						<path class="st7" d="M82.93,71.78h-3.54c0-3.89-3.17-7.06-7.06-7.06c-0.84,0-1.66,0.14-2.43,0.43l-1.22-3.32
							c1.17-0.43,2.4-0.65,3.65-0.65C78.17,61.18,82.93,65.94,82.93,71.78z"/>
					</g>
				</g>
			</g>
			<g>
				<g>
					<g>
						<g>
							<path class="st5" d="M72.33,82.38c-5.84,0-10.6-4.75-10.6-10.6c0-4.43,2.79-8.43,6.94-9.95l1.22,3.32
								c-2.77,1.02-4.63,3.68-4.63,6.63c0,3.89,3.17,7.06,7.06,7.06c1.79,0,3.5-0.67,4.81-1.89l2.41,2.59
								C77.59,81.37,75.02,82.38,72.33,82.38z"/>
						</g>
					</g>
				</g>
			</g>
		</g>
		<g>
			<g>
				<g>
					<rect x="88.29" y="64.97" class="st4" width="26.73" height="1.58"/>
				</g>
			</g>
			<g>
				<g>
					<rect x="88.29" y="71" class="st4" width="26.73" height="1.58"/>
				</g>
			</g>
			<g>
				<g>
					<rect x="88.29" y="77.01" class="st4" width="26.73" height="1.58"/>
				</g>
			</g>
		</g>
	</g>
</g>
<g>
	<g>
		<path class="st2" d="M121.13,105.66H63.47c-3.33,0-6.04,2.7-6.04,6.04v99.49c0,3.33,2.7,6.04,6.04,6.04h57.65
			c3.33,0,6.04-2.7,6.04-6.04V111.7C127.16,108.37,124.46,105.66,121.13,105.66z M124.14,211.19c0,1.67-1.35,3.02-3.02,3.02H63.47
			c-1.66,0-3.02-1.35-3.02-3.02V111.7c0-1.67,1.35-3.02,3.02-3.02h57.65c1.66,0,3.02,1.35,3.02,3.02V211.19z"/>
	</g>
	<g>
		<path class="st3" d="M63.47,214.21c-1.66,0-3.02-1.35-3.02-3.02V111.7c0-1.66,1.35-3.02,3.02-3.02h57.65
			c1.66,0,3.02,1.35,3.02,3.02v99.49c0,1.66-1.35,3.02-3.02,3.02H63.47z"/>
	</g>
	<g>
		<path class="st2" d="M121.13,105.66H63.47c-3.33,0-6.04,2.7-6.04,6.04v99.49c0,3.33,2.7,6.04,6.04,6.04h57.65
			c3.33,0,6.04-2.7,6.04-6.04V111.7C127.16,108.37,124.46,105.66,121.13,105.66z M124.14,211.19c0,1.67-1.35,3.02-3.02,3.02H63.47
			c-1.67,0-3.02-1.35-3.02-3.02V111.7c0-1.67,1.35-3.02,3.02-3.02H87.4c0.51,0,1,0.19,1.38,0.54l2.49,2.33
			c0.58,0.54,1.48,0.54,2.06,0l2.49-2.33c0.37-0.35,0.86-0.54,1.38-0.54h23.93c1.67,0,3.02,1.35,3.02,3.02V211.19z"/>
	</g>
</g>
<g>
	<g>
		<path class="st7" d="M84.51,161.45c0.6-3.46,3.37-6.18,6.86-6.68l-0.12-3.23l-0.29-7.9c-9.21,0.75-16.58,7.98-17.56,17.12
			l7.89,0.49L84.51,161.45z"/>
	</g>
	<g>
		<path class="st6" d="M95.55,170.42c-0.93,0.37-1.94,0.57-3,0.57c-1.82,0-3.49-0.6-4.85-1.6l-2.19,2.38l-5.36,5.81
			c3.34,2.83,7.67,4.52,12.39,4.52c2.93,0,5.7-0.65,8.19-1.82l-3.68-7L95.55,170.42z"/>
	</g>
	<g>
		<path class="st6" d="M111.37,166.99l-7.79-1.35c-0.73,2.86-2.53,5.29-4.96,6.83l3.68,6.99l1.72,3.28c5.55-3.2,9.63-8.66,11-15.11
			L111.37,166.99z"/>
	</g>
	<g>
		<path class="st7" d="M81.17,163.01l-7.89-0.5l-3.7-0.23c-0.01,0.18-0.01,0.37-0.01,0.55c0,6.36,2.58,12.11,6.75,16.27l2.51-2.73
			l5.36-5.8C82.36,168.59,81.21,165.93,81.17,163.01z"/>
	</g>
	<g>
		<path class="st5" d="M98.6,153.2l-1.5,2.86c2.18,1.47,3.61,3.96,3.61,6.78c0,0.17-0.01,0.34-0.02,0.51l3.18,0.55l7.8,1.35
			c0.09-0.79,0.15-1.59,0.15-2.41c0-7.1-3.84-13.3-9.55-16.64L98.6,153.2z"/>
	</g>
	<g>
		<path class="st5" d="M93.01,151.47c1.42,0.05,2.78,0.37,4.02,0.91l3.67-7.01l1.72-3.28c-2.98-1.42-6.31-2.22-9.83-2.22l0.14,3.7
			L93.01,151.47z"/>
	</g>
</g>
<g>
	<g>
		<g>
			<polygon class="st5" points="119.33,204.64 102.92,204.64 97.48,185.11 99.04,184.67 104.15,203.02 119.33,203.02 			"/>
		</g>
		<g>
			<polygon class="st5" points="97.88,137.84 96.32,137.4 102.92,113.7 119.33,113.7 119.33,115.32 104.15,115.32 			"/>
		</g>
		<g>
			<polygon class="st5" points="83.76,143.5 80.44,131.58 65.26,131.58 65.26,129.95 81.68,129.95 85.33,143.06 			"/>
		</g>
		<g>
			<polygon class="st5" points="81.68,194.47 65.26,194.47 65.26,192.85 80.44,192.85 82.84,184.24 84.4,184.68 			"/>
		</g>
	</g>
</g>
<g>
	<g>
		<path class="st2" d="M223.94,78.2c-0.25-2.66,1.52-5.15,4.2-5.74c1.39-0.3,2.78-0.03,3.91,0.65c0.67-0.59,1.49-1.03,2.42-1.23
			c2.54-0.55,5.05,0.79,6.05,3.08c2.07,0.37,3.81,1.95,4.29,4.14c0.25,1.16,0.11,2.31-0.34,3.31c1.53,0.66,2.74,2.03,3.12,3.78
			c0.56,2.59-0.84,5.14-3.21,6.11c0.05,0.16,0.1,0.33,0.13,0.5c0.63,2.89-1.2,5.75-4.1,6.38c-1.57,0.34-3.12-0.04-4.32-0.92
			c-0.07,0.02-0.14,0.04-0.21,0.05c-0.89,0.19-1.77,0.15-2.58-0.07c-0.65,0.55-1.43,0.95-2.32,1.14c-2.89,0.63-5.75-1.2-6.38-4.1
			c-0.18-0.82-0.16-1.63,0.02-2.4c-0.48-0.62-0.84-1.35-1.02-2.17c-0.3-1.39-0.04-2.77,0.64-3.9c-1.09-0.75-1.91-1.89-2.21-3.28
			C221.6,81.47,222.4,79.43,223.94,78.2z"/>
	</g>
	<g>
		<g>
			<g>
				<path class="st8" d="M190.44,126.31c0.33-0.67,1.04-1.03,1.68-0.83c3.85,1.13,7.96,1.43,11.68,0.67
					c1.86-0.38,3.61-1.04,5.19-1.95c0.79-0.46,1.53-0.98,2.23-1.55c0.7-0.57,1.35-1.2,1.96-1.88c0.6-0.68,1.17-1.39,1.68-2.16
					l0.2-0.28l0.18-0.29c0.12-0.2,0.25-0.39,0.37-0.59c0.23-0.41,0.47-0.8,0.68-1.22c0.86-1.66,1.58-3.42,2.16-5.25
					c1.15-3.67,1.83-7.57,2.19-11.54c0.08-0.62,0.28-1.21,0.6-1.73c0.16-0.26,0.34-0.5,0.55-0.73c0.21-0.22,0.43-0.43,0.68-0.62
					c1-0.74,2.32-1.15,3.72-0.99c1.4,0.16,2.59,0.86,3.37,1.9c0.19,0.26,0.36,0.54,0.5,0.84c0.13,0.3,0.24,0.61,0.31,0.93
					c0.15,0.65,0.16,1.34,0.01,2.04c-0.52,2.19-1.12,4.37-1.84,6.53c-0.72,2.16-1.56,4.3-2.57,6.4c-1,2.09-2.17,4.14-3.56,6.07
					c-0.33,0.49-0.72,0.95-1.08,1.42c-0.19,0.23-0.38,0.46-0.58,0.69l-0.29,0.34l-0.3,0.33c-0.8,0.89-1.68,1.73-2.61,2.51
					c-1.85,1.57-3.97,2.85-6.21,3.77c-2.25,0.91-4.62,1.42-6.96,1.57c-2.34,0.15-4.65-0.06-6.87-0.5c-2.22-0.46-4.35-1.15-6.39-2.08
					C190.42,127.81,190.11,126.98,190.44,126.31z"/>
			</g>
		</g>
		<g>
			<path class="st7" d="M216.31,111.03l2.47-10.99c0.75-3.33,3.84-5.56,7.16-4.82l0,0c3.33,0.75,5.63,4.19,4.88,7.52l-2.47,10.99
				L216.31,111.03z"/>
		</g>
	</g>
	<g>
		<path class="st2" d="M233.09,215.53c0.24-0.32,0.64-0.48,1.03-0.55c0.39-0.07,0.8-0.05,1.19-0.07c0.98-0.05,1.94-0.33,2.79-0.81
			c0.44-0.25,0.86-0.56,1.34-0.73l2.8,0.07c0.38,0.41,0.63,0.95,0.75,1.51c0.11,0.5,0.12,1.02,0.09,1.54v0.58H232.8v-0.58h0
			C232.81,216.14,232.88,215.8,233.09,215.53z"/>
	</g>
	<g>
		<polygon class="st9" points="242.59,210.39 242.24,213.45 239.44,213.37 239.2,210.45 		"/>
	</g>
	<g>
		<g>
			<path class="st5" d="M230.72,150.13c-2.78,7.02-6.36,13.33-10.27,17.96l-4.31,43.03l-13.84-0.79l6.45-42.12
				c0.29-1.89,0.72-3.75,1.3-5.57c0,0,9.92-30.86,9.92-30.86c1.05-4.03,22.84-1.13,22.84-1.13c6.02,8.36,2.23,34.95,2.23,34.95
				l3.22,44.69l-14.73,0.25l0.06-44.32L230.72,150.13z"/>
		</g>
	</g>
	<g>
		<polygon class="st9" points="210.8,210.82 209.94,213.44 207.14,213.37 207.56,210.64 		"/>
	</g>
	<g>
		<path class="st2" d="M200.79,215.54c0.24-0.32,0.64-0.48,1.03-0.55c0.39-0.07,0.8-0.05,1.19-0.07c0.98-0.05,1.94-0.33,2.79-0.81
			c0.44-0.25,0.86-0.56,1.34-0.73l2.8,0.07c0.38,0.41,0.63,0.95,0.75,1.51c0.11,0.5,0.12,1.02,0.09,1.54l0,0.58l-10.28,0.01l0-0.58
			h0C200.51,216.15,200.58,215.81,200.79,215.54z"/>
	</g>
	<g>
		<path class="st7" d="M234.2,93.85L234.2,93.85c-8.56-0.51-15.57,6.71-14.8,15.25l0.58,22.68c9.33,3.91,16.56,2.02,22.84-1.13
			l2.18-23.63C245.93,100.33,240.95,94.25,234.2,93.85z"/>
	</g>
	<g>
		<path class="st10" d="M237.64,94.33l0.01,0.26c3.09,1.18,5.51,3.63,6.68,6.66c0.08-0.01,0.17-0.01,0.25-0.02
			c-0.45-1.19-1.09-2.31-1.91-3.31C241.33,96.29,239.59,95.05,237.64,94.33z M221.68,132.71c2.91,1.02,5.72,1.52,8.55,1.52
			c1.8,0,3.59-0.21,5.42-0.63l-0.03-0.25c-4.11,0.96-8.67,0.95-13.91-0.9L221.68,132.71z M219.15,109.12l0.05,1.96l0.25-0.02
			l-0.05-1.95c-0.58-6.42,3.24-12.1,8.81-14.3l-0.04-0.24c-2.02,0.79-3.85,2.03-5.34,3.66
			C220.09,101.21,218.79,105.08,219.15,109.12z M219.71,121.29h-0.25l0.19,7.36h0.25L219.71,121.29z M240.49,131.74V132
			c0.8-0.33,1.61-0.71,2.44-1.12l0.12-0.06l0.51-5.47l-0.24-0.13l-0.5,5.44C242.06,131.04,241.28,131.4,240.49,131.74z"/>
	</g>
	<g>
		<g>
			<path class="st9" d="M229.94,89.06l0.03,8.6c1.87,1.21,3.74,1.2,5.61-0.02l-0.03-8.6L229.94,89.06z"/>
		</g>
		<g>
			<path class="st8" d="M229.94,89.83l0.01,2.13c0.84,0.5,1.82,0.8,2.85,0.85c0.06,0,0.12,0,0.17,0c0.97,0,1.9-0.38,2.58-1.04
				l-0.01-1.97L229.94,89.83z"/>
		</g>
		<g>
			<path class="st9" d="M227.59,80.96l0.14,5.01l0.03,1.11c0.1,2.77,2.32,5.01,5.09,5.13c0.28,0.01,0.56-0.01,0.84-0.08
				c0.11-0.03,0.21-0.06,0.32-0.09c0.02-0.01,0.04-0.02,0.07-0.02c0.4-0.15,0.77-0.39,1.07-0.71c0.66-0.7,1.1-1.47,1.5-2.26
				c0.35-0.7,0.66-1.38,0.89-2.09c0.27-0.84,0.42-1.69,0.37-2.62l-0.16-4.4l-8.5-1.06L227.59,80.96z"/>
		</g>
		<g>
			<path class="st2" d="M225.85,82.32c0.03-0.54,0.53-1.83,0.53-1.83s0.38-0.56,1.04-0.91c0.18-0.09,0.43-0.13,0.7-0.13
				c0.28-0.32,0.61-0.6,1.01-0.81c2-1.04,4.71-1.17,6.14-0.56c1.02,0.44,2.97,0.64,2.59,1.05c0.68-0.02,0.24,0.86,0.71,2.65
				c0.42,1.59,0.33,4.27-0.48,4.78c-0.82,0.51-1.99,0.32-1.25-1.63c0,0,0.01-0.08,0.02-0.22c-0.33-0.07-0.63-0.28-0.84-0.55
				c-0.31-0.4-0.44-0.9-0.52-1.4c-0.08-0.5-0.11-1-0.26-1.48c-0.2-0.65-0.61-1.17-1.12-1.58c-0.07-0.03-0.15-0.06-0.22-0.09
				c-0.19,0.1-0.38,0.19-0.48,0.27c-0.58,0.46-0.92,1.14-1.35,1.73c-0.85,1.15-2.08,2.01-3.46,2.41c-0.3,0.09-0.63,0.14-0.95,0.12
				c0,0.08,0.01,0.17,0.02,0.25c0,0-1.12-0.07-1.46-0.6C225.88,83.23,225.83,82.86,225.85,82.32z"/>
		</g>
		<g>
			<path class="st9" d="M235.97,85.34c0,1.13,0.92,2.04,2.05,2.03c1.13,0,2.04-0.92,2.03-2.05c0-1.13-0.92-2.04-2.05-2.03
				C236.88,83.29,235.97,84.21,235.97,85.34z"/>
		</g>
	</g>
	<g>
		<g>
			<path class="st2" d="M165.2,71.02c-13.41,12.13-14.45,32.84-2.32,46.25c9.03,9.99,22.82,13.11,34.81,9.05l10.83,0.53l24.83,27.46
				c0.55,0.6,1.48,0.65,2.09,0.1l5.7-5.15c0.6-0.55,0.65-1.48,0.1-2.09l-24.83-27.46l0.56-10.83c5.24-11.52,3.52-25.56-5.52-35.54
				C199.33,59.93,178.62,58.89,165.2,71.02z M206.36,116.54c-11.72,10.6-29.82,9.69-40.42-2.03c-10.6-11.72-9.69-29.82,2.03-40.42
				c11.72-10.6,29.82-9.69,40.42,2.03C219,87.84,218.09,105.93,206.36,116.54z"/>
		</g>
		<g class="st11">
			
				<ellipse transform="matrix(0.8761 -0.4821 0.4821 0.8761 -22.7611 102.0455)" class="st4" cx="187.17" cy="95.31" rx="28.62" ry="28.62"/>
		</g>
		<g>
			<rect x="208.03" y="123.03" transform="matrix(0.7417 -0.6707 0.6707 0.7417 -28.2383 175.1908)" width="10.63" height="2.46"/>
		</g>
	</g>
	<g>
		<g>
			<g>
				<path class="st9" d="M231.64,151.19c-0.58-0.48-0.78-1.23-0.46-1.79c0.48-0.85,0.91-1.74,1.32-2.64
					c0.21-0.45,0.39-0.91,0.58-1.37c0.18-0.46,0.36-0.92,0.53-1.39c0.68-1.87,1.24-3.77,1.69-5.7c0.92-3.86,1.43-7.8,1.62-11.75
					l0.04-0.74l0.02-0.74l0.03-1.48l-0.01-1.48c-0.01-0.49,0-0.99-0.03-1.48c-0.04-0.99-0.06-1.97-0.15-2.96l-0.1-1.48
					c-0.04-0.49-0.1-0.98-0.14-1.47c-0.39-3.93-1.05-7.82-1.92-11.67c-0.23-1.23,0.08-2.44,0.82-3.43c0.74-0.99,1.89-1.76,3.27-2.02
					l0,0c1.38-0.26,2.72,0.04,3.76,0.77c1.04,0.73,1.79,1.87,1.91,3.24c0.34,4.29,0.44,8.61,0.26,12.91
					c-0.02,0.54-0.04,1.07-0.07,1.61l-0.12,1.61c-0.07,1.07-0.19,2.15-0.3,3.21c-0.05,0.53-0.13,1.07-0.2,1.6l-0.22,1.6l-0.26,1.59
					l-0.13,0.79l-0.16,0.79c-0.82,4.22-1.97,8.38-3.55,12.36c-0.79,1.99-1.68,3.95-2.69,5.84c-0.25,0.47-0.52,0.94-0.78,1.41
					c-0.28,0.46-0.54,0.92-0.83,1.38c-0.57,0.91-1.18,1.8-1.84,2.66C233.09,151.56,232.22,151.67,231.64,151.19z"/>
			</g>
		</g>
		<g>
			<path class="st7" d="M247.01,114.17l-1.35-11.19c-0.41-3.38-3.26-5.92-6.64-5.51l0,0c-3.38,0.41-6.02,3.61-5.61,6.99l1.35,11.19
				L247.01,114.17z"/>
		</g>
		<g>
			<path class="st10" d="M233.81,109.94l0.72,5.99l2.11-0.26l0.01-0.25l-1.9,0.23l-0.69-5.73L233.81,109.94z M233.11,103.54
				l0.25,0.05c0.09-3.05,2.55-5.75,5.65-6.12c0.41-0.05,0.81-0.06,1.2-0.02l0.07-0.25c-0.43-0.04-0.86-0.03-1.3,0.02
				c-1.68,0.2-3.29,1.1-4.39,2.47C233.67,100.83,233.16,102.17,233.11,103.54z M244.65,99.74l-0.17,0.2
				c0.62,0.87,1.03,1.91,1.17,3.05l0.47,3.87l0.25,0.01l-0.47-3.9C245.76,101.76,245.32,100.66,244.65,99.74z M247.01,114.17
				l-7.03,0.85l0.06,0.24l7.25-0.88l-0.39-3.19l-0.25,0.03L247.01,114.17z"/>
		</g>
	</g>
</g>
</svg>
