<?xml version="1.0" encoding="utf-8"?>
<!-- Generator: Adobe Illustrator 25.2.1, SVG Export Plug-In . SVG Version: 6.00 Build 0)  -->
<svg version="1.1" id="color_line" xmlns="http://www.w3.org/2000/svg" xmlns:xlink="http://www.w3.org/1999/xlink" x="0px" y="0px"
	 viewBox="0 0 512 512" style="enable-background:new 0 0 512 512;" xml:space="preserve">
<style type="text/css">
	.st0{fill:#EBF0F3;}
	.st1{fill:#D03938;}
	.st2{fill:#3F9BD6;}
	.st3{fill:#F8D006;}
	.st4{opacity:0.1;enable-background:new    ;}
</style>
<g>
	<path class="st0" d="M246.06,86.44L108.02,208.39h276.09L246.06,86.44z"/>
	<path d="M384.11,211.85H108.04c-1.91,0-3.46-1.55-3.46-3.46c0-0.99,0.43-1.94,1.17-2.6L243.77,83.85c1.31-1.16,3.27-1.16,4.58,0
		L386.4,205.8c1.43,1.26,1.57,3.45,0.31,4.88C386.05,211.43,385.1,211.86,384.11,211.85L384.11,211.85z M117.16,204.93h257.83
		L246.06,91.05L117.16,204.93z"/>
	<path class="st1" d="M133.18,208.39h58.27v23.39h-58.27V208.39z"/>
	<path d="M191.45,235.24h-58.27c-1.91,0-3.46-1.55-3.46-3.46v-23.39c0-1.91,1.55-3.46,3.46-3.46h58.27c1.91,0,3.46,1.55,3.46,3.46
		v23.39C194.91,233.69,193.36,235.24,191.45,235.24z M136.64,228.32h51.35v-16.47h-51.35V228.32z"/>
	<path class="st0" d="M144.88,231.78h34.85v96.86h-34.85V231.78z"/>
	<path d="M179.74,332.11h-34.85c-1.91,0-3.46-1.55-3.46-3.46v-96.86c0-1.91,1.55-3.46,3.46-3.46h34.85c1.91,0,3.46,1.55,3.46,3.46
		v96.86C183.19,330.56,181.65,332.11,179.74,332.11z M148.34,325.19h27.93v-89.95h-27.93V325.19z"/>
	<path class="st1" d="M216.92,208.39h58.27v23.39h-58.27V208.39z"/>
	<path d="M275.2,235.24h-58.27c-1.91,0-3.46-1.55-3.46-3.46v-23.39c0-1.91,1.55-3.46,3.46-3.46h58.27c1.91,0,3.46,1.55,3.46,3.46
		v23.39C278.66,233.69,277.11,235.24,275.2,235.24z M220.38,228.32h51.35v-16.47h-51.35V228.32z"/>
	<path class="st0" d="M228.64,231.78h34.85v96.86h-34.85V231.78z"/>
	<path d="M263.49,332.11h-34.85c-1.91,0-3.46-1.55-3.46-3.46v-96.86c0-1.91,1.55-3.46,3.46-3.46h34.85c1.91,0,3.46,1.55,3.46,3.46
		v96.86C266.95,330.56,265.4,332.11,263.49,332.11z M232.1,325.19h27.93v-89.95H232.1V325.19z"/>
	<path class="st1" d="M300.67,208.39h58.27v23.39h-58.27V208.39z"/>
	<path d="M358.94,235.24h-58.27c-1.91,0-3.46-1.55-3.46-3.46v-23.39c0-1.91,1.55-3.46,3.46-3.46h58.27c1.91,0,3.46,1.55,3.46,3.46
		v23.39C362.4,233.69,360.85,235.24,358.94,235.24z M304.13,228.32h51.35v-16.47h-51.35V228.32z"/>
	<path class="st0" d="M385.75,362.38v17.61H106.37v-17.61c0-8.23,6.67-14.9,14.9-14.9h249.57c8.23-0.01,14.9,6.66,14.91,14.88
		C385.75,362.37,385.75,362.37,385.75,362.38L385.75,362.38z"/>
	<path d="M385.75,383.45H106.37c-1.91,0-3.46-1.55-3.46-3.46v-17.61c0.02-10.13,8.23-18.34,18.36-18.35h249.58
		c10.13,0.01,18.34,8.22,18.36,18.35v17.61C389.2,381.89,387.66,383.44,385.75,383.45L385.75,383.45z M109.83,376.53h272.46v-14.15
		c-0.01-6.32-5.13-11.43-11.45-11.43H121.26c-6.31,0.01-11.43,5.12-11.44,11.43L109.83,376.53z"/>
	<path class="st0" d="M312.38,231.78h34.85v96.86h-34.85V231.78z"/>
	<path d="M347.24,332.11h-34.85c-1.91,0-3.46-1.55-3.46-3.46v-96.86c0-1.91,1.55-3.46,3.46-3.46h34.85c1.91,0,3.46,1.55,3.46,3.46
		v96.86C350.7,330.56,349.15,332.11,347.24,332.11z M315.84,325.19h27.93v-89.95h-27.93V325.19z"/>
	<path class="st2" d="M246.06,86.44L108.02,208.39h276.09L246.06,86.44z"/>
	<path class="st3" d="M144.88,231.78h34.85v96.86h-34.85V231.78z"/>
	<path class="st3" d="M228.64,231.78h34.85v96.86h-34.85V231.78z"/>
	<path class="st2" d="M385.75,362.38v17.61H106.37v-17.61c0-8.23,6.67-14.9,14.9-14.9h249.57c8.23-0.01,14.9,6.66,14.91,14.88
		C385.75,362.37,385.75,362.37,385.75,362.38L385.75,362.38z"/>
	<path class="st3" d="M312.38,231.78h34.85v96.86h-34.85V231.78z"/>
	<path class="st4" d="M384.13,208.4h-17.44L237.38,94.1l8.72-7.68L384.13,208.4z"/>
	<path class="st4" d="M166.67,231.78h13.08v96.29h-13.08V231.78z"/>
	<path class="st4" d="M250.38,231.78h13.08v96.29h-13.08V231.78z"/>
	<path class="st4" d="M385.72,362.41v17.57h-13.08v-17.57c0.02-8.23-6.64-14.93-14.88-14.94c0,0,0,0,0,0h13.08
		C379.08,347.49,385.74,354.18,385.72,362.41C385.72,362.41,385.72,362.41,385.72,362.41z"/>
	<path class="st4" d="M334.1,231.78h13.15v94.56H334.1V231.78z"/>
	<g>
		<path d="M243.2,181.84v-4.4c-4.55-0.01-9.01-1.3-12.87-3.7l2.01-5.64c3.61,2.34,7.81,3.6,12.11,3.62c5.97,0,10.01-3.46,10.01-8.24
			c0-4.63-3.28-7.49-9.51-10.01c-8.58-3.36-13.87-7.23-13.87-14.53c0.11-7.11,5.61-12.97,12.7-13.54V121h5.21v4.07
			c3.84,0.03,7.6,1.05,10.94,2.95l-2.08,5.54c-3.2-1.91-6.87-2.9-10.6-2.86c-6.48,0-8.92,3.87-8.92,7.23
			c0,4.37,3.11,6.56,10.43,9.59c8.66,3.54,13.04,7.91,13.04,15.39c-0.13,7.46-5.86,13.62-13.29,14.3v4.66L243.2,181.84z"/>
		<path d="M35.97,339.47c-1.48,0-2.79-0.94-3.27-2.34C-7.47,219.17,55.6,91,173.56,50.84c17.52-5.96,35.7-9.75,54.15-11.27
			c1.91-0.15,3.58,1.27,3.74,3.18c0.15,1.91-1.27,3.58-3.18,3.74C107.88,56.42,18.36,162.07,28.3,282.44
			c1.48,17.86,5.14,35.47,10.91,52.44c0.62,1.81-0.35,3.77-2.15,4.39c0,0,0,0,0,0C36.7,339.39,36.34,339.46,35.97,339.47
			L35.97,339.47z"/>
		<path d="M243.74,494.7c-74-0.03-143.29-36.34-185.43-97.18c-1.12-1.54-0.78-3.71,0.76-4.83c1.54-1.12,3.71-0.78,4.83,0.76
			c0.03,0.04,0.06,0.09,0.09,0.13c68.69,99.27,204.85,124.05,304.11,55.36c0.86-0.59,1.71-1.19,2.55-1.79
			c1.53-1.14,3.7-0.82,4.84,0.72c1.14,1.53,0.82,3.7-0.72,4.84c-0.03,0.02-0.06,0.05-0.1,0.07
			C336.52,480.15,290.7,494.81,243.74,494.7L243.74,494.7z"/>
		<path d="M446.74,362.7c-1.91,0-3.46-1.56-3.45-3.47c0-0.51,0.11-1.01,0.33-1.47c51.6-109.22,4.89-239.58-104.33-291.18
			c-7.1-3.36-14.38-6.33-21.81-8.9c-1.8-0.64-2.75-2.61-2.11-4.41c0.63-1.78,2.58-2.73,4.37-2.12
			c117.74,40.81,180.11,169.33,139.31,287.08c-2.65,7.66-5.72,15.17-9.18,22.5C449.29,361.93,448.07,362.7,446.74,362.7
			L446.74,362.7z"/>
		<path d="M195.42,82.56c-1.91,0-3.46-1.55-3.46-3.46c0-0.86,0.32-1.69,0.9-2.33l29.55-32.32l-39.84-20.63
			c-1.7-0.88-2.36-2.97-1.48-4.66c0.88-1.7,2.97-2.36,4.66-1.48l43.85,22.7c1.7,0.88,2.36,2.97,1.48,4.66
			c-0.14,0.27-0.31,0.52-0.52,0.74l-32.6,35.65C197.32,82.15,196.39,82.56,195.42,82.56L195.42,82.56z"/>
		<path d="M63.8,448.08c-1.85,0-3.37-1.45-3.46-3.3l-2.23-49.32c-0.08-1.91,1.4-3.52,3.31-3.6c0.28-0.01,0.56,0.01,0.84,0.07
			l47.17,10.38c1.87,0.41,3.05,2.26,2.63,4.13c-0.41,1.87-2.26,3.05-4.13,2.63l-42.76-9.43l2.08,44.81c0.09,1.91-1.39,3.53-3.3,3.61
			c0,0,0,0,0,0L63.8,448.08z"/>
		<path d="M446.3,362.5c-1.51,0-2.84-0.98-3.3-2.41l-14.57-46.06c-0.65-1.8,0.28-3.78,2.08-4.43c1.8-0.65,3.78,0.28,4.43,2.08
			c0.03,0.09,0.06,0.19,0.09,0.28l13.21,41.76l37.78-24.22c1.59-1.07,3.73-0.65,4.8,0.94c1.07,1.59,0.65,3.73-0.94,4.8
			c-0.04,0.03-0.09,0.06-0.13,0.08l-41.58,26.62C447.61,362.3,446.96,362.49,446.3,362.5z"/>
		<path d="M346.97,151.35c-0.84,0-1.66-0.31-2.29-0.86l-46.01-40.65c-1.47-1.23-1.66-3.41-0.44-4.87c1.23-1.47,3.41-1.66,4.87-0.44
			c0.05,0.04,0.1,0.08,0.14,0.13l46.01,40.64c1.43,1.26,1.57,3.45,0.31,4.88C348.91,150.93,347.97,151.35,346.97,151.35
			L346.97,151.35z"/>
		<path d="M361.45,163.79c-0.84,0-1.66-0.31-2.29-0.86l-2.5-2.21c-1.4-1.3-1.47-3.49-0.17-4.89c1.25-1.34,3.34-1.47,4.75-0.29
			l2.5,2.21c1.43,1.26,1.57,3.45,0.31,4.88C363.39,163.37,362.44,163.8,361.45,163.79L361.45,163.79z"/>
		<path d="M247.95,404.2h-56.5c-1.91,0-3.46-1.55-3.46-3.46s1.55-3.46,3.46-3.46h56.51c1.91,0,3.46,1.55,3.46,3.46
			S249.87,404.2,247.95,404.2L247.95,404.2z"/>
		<path d="M176.71,404.2h-6.05c-1.91,0-3.46-1.55-3.46-3.46s1.55-3.46,3.46-3.46h6.05c1.91,0,3.46,1.55,3.46,3.46
			S178.62,404.2,176.71,404.2z"/>
		<path d="M384.11,211.85H108.04c-1.91,0-3.46-1.55-3.46-3.46c0-0.99,0.43-1.94,1.17-2.6L243.77,83.85c1.31-1.16,3.27-1.16,4.58,0
			L386.4,205.8c1.43,1.26,1.57,3.45,0.31,4.88C386.05,211.43,385.1,211.86,384.11,211.85L384.11,211.85z M117.16,204.93h257.83
			L246.06,91.05L117.16,204.93z"/>
		<path d="M179.74,332.11h-34.85c-1.91,0-3.46-1.55-3.46-3.46v-96.86c0-1.91,1.55-3.46,3.46-3.46h34.85c1.91,0,3.46,1.55,3.46,3.46
			v96.86C183.19,330.56,181.65,332.11,179.74,332.11z M148.34,325.19h27.93v-89.95h-27.93V325.19z"/>
		<path d="M263.49,332.11h-34.85c-1.91,0-3.46-1.55-3.46-3.46v-96.86c0-1.91,1.55-3.46,3.46-3.46h34.85c1.91,0,3.46,1.55,3.46,3.46
			v96.86C266.95,330.56,265.4,332.11,263.49,332.11z M232.1,325.19h27.93v-89.95H232.1V325.19z"/>
		<path d="M385.75,383.45H106.37c-1.91,0-3.46-1.55-3.46-3.46v-17.61c0.02-10.13,8.23-18.34,18.36-18.35h249.58
			c10.13,0.01,18.34,8.22,18.36,18.35v17.61C389.2,381.89,387.66,383.44,385.75,383.45L385.75,383.45z M109.83,376.53h272.46v-14.15
			c-0.01-6.32-5.13-11.43-11.45-11.43H121.26c-6.31,0.01-11.43,5.12-11.44,11.43L109.83,376.53z"/>
		<path d="M347.24,332.11h-34.85c-1.91,0-3.46-1.55-3.46-3.46v-96.86c0-1.91,1.55-3.46,3.46-3.46h34.85c1.91,0,3.46,1.55,3.46,3.46
			v96.86C350.7,330.56,349.15,332.11,347.24,332.11z M315.84,325.19h27.93v-89.95h-27.93V325.19z"/>
	</g>
	<path class="st1" d="M133.18,324.31h58.27v23.39h-58.27V324.31z"/>
	<path d="M191.45,351.16h-58.27c-1.91,0-3.46-1.55-3.46-3.46v-23.39c0-1.91,1.55-3.46,3.46-3.46h58.27c1.91,0,3.46,1.55,3.46,3.46
		v23.39C194.91,349.61,193.36,351.16,191.45,351.16z M136.64,344.24h51.35v-16.47h-51.35V344.24z"/>
	<path class="st1" d="M216.92,324.31h58.27v23.39h-58.27V324.31z"/>
	<path d="M275.2,351.16h-58.27c-1.91,0-3.46-1.55-3.46-3.46v-23.39c0-1.91,1.55-3.46,3.46-3.46h58.27c1.91,0,3.46,1.55,3.46,3.46
		v23.39C278.66,349.61,277.11,351.16,275.2,351.16z M220.38,344.24h51.35v-16.47h-51.35V344.24z"/>
	<path class="st1" d="M300.67,324.31h58.27v23.39h-58.27V324.31z"/>
	<path d="M358.94,351.16h-58.27c-1.91,0-3.46-1.55-3.46-3.46v-23.39c0-1.91,1.55-3.46,3.46-3.46h58.27c1.91,0,3.46,1.55,3.46,3.46
		v23.39C362.4,349.61,360.85,351.16,358.94,351.16z M304.13,344.24h51.35v-16.47h-51.35V344.24z"/>
</g>
</svg>
