<?xml version="1.0" encoding="utf-8"?>
<!-- Generator: Adobe Illustrator 24.0.1, SVG Export Plug-In . SVG Version: 6.00 Build 0)  -->
<svg version="1.1" id="Layer_3" xmlns="http://www.w3.org/2000/svg" xmlns:xlink="http://www.w3.org/1999/xlink" x="0px" y="0px"
	 viewBox="0 0 512 512" style="enable-background:new 0 0 512 512;" xml:space="preserve">
<style type="text/css">
	.st0{fill:#ED1B2F;}
	.st1{fill:#4D4D4F;}
</style>
<path class="st0" d="M248,104v113.6c2.2-1,4.6-1.6,7-1.6c9.4,0,17,7.6,17,17c0,4.5-1.8,8.8-5,12l48-48c3.2-3.2,7.5-5,12-5
	c9.4,0,17,7.6,17,17c0,4.5-1.8,8.8-5,12l-91,91v22.5l64-46.5h2.7c11.8,0,21.3,9.5,21.3,21.3c0,6.7-3.2,13-8.5,17.1l-77.6,58.2
	c-0.6,0.4-1.2,0.8-1.8,1.2V408h224V104H248z M332,289.9l-5.8-3c-3.7-1.9-7.6-2.9-11.5-2.9H308v-24h24V289.9z M313.7,252l28.2-28.2
	c4-4,6.1-9.2,6.1-14.8c0-3.1-0.8-6.2-2.3-9.2l-1.3-2.6l15.5-15.5l70.3,70.3H313.7z M340,348v-88h40v88H340z M388,348v-88h24v88H388z
	 M332,328v20h-26.7L332,328z"/>
<g>
	<path class="st1" d="M464,12H256c-19.8,0-36,16.2-36,36v60h-64V60H51.7l-1-2.7C47.9,49.4,40.4,44,32,44c-11,0-20,9-20,20
		s9,20,20,20c8.4,0,15.9-5.4,18.8-13.3l1-2.7H148v48h72v40H115.7l-1-2.7c-2.9-8-10.4-13.3-18.8-13.3c-11,0-20,9-20,20s9,20,20,20
		c8.4,0,15.9-5.4,18.8-13.3l1-2.7H220v32.1l-2.9,0.8c-3.3,1-6.2,2.6-8.5,4.8l-4.1,3.9l-2.3-5.2c-3.4-7.6-10.9-12.5-19.2-12.5
		c-5.5,0-10.9,2.2-14.8,6.1L112,250.3c-7.7,7.7-12.7,17.5-14.5,28.2l-5.3,31.6L64,338.3l-8-8L10.3,376L120,485.7l45.7-45.7l-8-8
		l28.2-28.2l34.1-4.9V464c0,19.8,16.2,36,36,36h208c19.8,0,36-16.2,36-36V48C500,28.2,483.8,12,464,12z M32,76c-6.6,0-12-5.4-12-12
		s5.4-12,12-12s12,5.4,12,12S38.6,76,32,76z M96,172c-6.6,0-12-5.4-12-12s5.4-12,12-12s12,5.4,12,12S102.6,172,96,172z M120,474.3
		L21.7,376L56,341.7l98.3,98.3L120,474.3z M182.1,396.2L152,426.3L69.7,344l30.1-30.1l5.7-34.1c1.5-9.1,5.8-17.4,12.3-23.9
		l56.2-56.2c2.4-2.4,5.8-3.8,9.2-3.8c7.1,0,13,5.8,13,13c0,3.5-1.3,6.7-3.8,9.2L160,250.3l5.7,5.7l48.2-48.2
		c2.4-2.4,5.8-3.8,9.2-3.8c7.1,0,13,5.8,13,13c0,3.5-1.3,6.7-3.8,9.2L184,274.3l5.7,5.7l56.2-56.2c2.4-2.4,5.8-3.8,9.2-3.8
		c7.1,0,13,5.8,13,13c0,3.5-1.3,6.7-3.8,9.2L208,298.3l5.7,5.7l104.2-104.2c2.4-2.4,5.8-3.8,9.2-3.8c7.1,0,13,5.8,13,13
		c0,3.5-1.3,6.7-3.8,9.2L212,342.3V356h13.3l88-64h1.3c9.6,0,17.4,7.8,17.4,17.3c0,5.4-2.6,10.6-6.9,13.9l-77.6,58.2
		c-5.9,4.4-12.9,7.3-20.2,8.4L182.1,396.2z M345.8,199.8l-1.3-2.6l15.5-15.5l70.3,70.3H313.7l28.2-28.2c4-4,6.1-9.2,6.1-14.8
		C348,205.9,347.2,202.8,345.8,199.8z M412,260v88h-24v-88H412z M380,260v88h-40v-88H380z M332,328v20h-26.7L332,328z M308,260h24
		v29.9l-5.8-3c-3.7-1.9-7.6-2.9-11.5-2.9H308V260z M300,265.7v26.1l-52,37.8l-2.6,1.9l-5.2-6.1l7.7-7.7L300,265.7z M492,464
		c0,15.4-12.6,28-28,28H256c-15.4,0-28-12.6-28-28v-28h264V464z M492,428H228v-30.3l3.2-0.7c6-1.2,11.7-3.4,16.8-6.4
		c1.5-0.9,2.9-1.8,4.2-2.8l42.4-31.8H436v-8h-16v-88h16v-13.7l-76-76l-21.2,21.2l-2.6-1.3c-3-1.5-6.1-2.3-9.2-2.3
		c-5.5,0-10.9,2.2-14.8,6.1l-35.7,35.7l-2.4-5.3c-3.4-7.6-10.9-12.5-19.1-12.5c-2.2,0-4.5,0.4-7,1.3h-0.1l-3.8,1.4l-1.2-4
		c-1.9-6.1-6.4-11-12.4-13.3l-2.5-1V84h264L492,428L492,428z M492,76H228V48c0-15.4,12.6-28,28-28h208c15.4,0,28,12.6,28,28V76z"/>
</g>
<g>
	<rect x="396" y="44" class="st1" width="8" height="8"/>
</g>
<g>
	<rect x="316" y="44" class="st1" width="56" height="8"/>
</g>
<g>
	<rect x="332" y="460" class="st1" width="56" height="8"/>
</g>
<g>
	<rect x="444" y="460" class="st1" width="8" height="8"/>
</g>
<g>
	<rect x="268" y="460" class="st1" width="8" height="8"/>
</g>
<g>
	<rect x="284" y="140" class="st1" width="8" height="8"/>
</g>
<g>
	<rect x="316" y="140" class="st1" width="8" height="8"/>
</g>
<g>
	<rect x="348" y="140" class="st1" width="8" height="8"/>
</g>
<polygon class="st0" points="9.1,12.9 89.9,62.9 9.1,112.9 "/>
<polygon class="st0" points="119,210 38.2,160 119,110 "/>
</svg>
