<?xml version="1.0" encoding="utf-8"?>
<!-- Generator: Adobe Illustrator 25.2.1, SVG Export Plug-In . SVG Version: 6.00 Build 0)  -->
<svg version="1.1" id="color_line" xmlns="http://www.w3.org/2000/svg" xmlns:xlink="http://www.w3.org/1999/xlink" x="0px" y="0px"
	 viewBox="0 0 512 512" style="enable-background:new 0 0 512 512;" xml:space="preserve">
<style type="text/css">
	.st0{fill:#2172C1;}
	.st1{fill:#F8D006;}
	.st2{fill:#EEEFEE;}
	.st3{fill:#D03938;}
	.st4{opacity:0.2;enable-background:new    ;}
	.st5{fill:#3F9BD6;}
	.st6{opacity:0.1;enable-background:new    ;}
	.st7{fill:#FFFFFF;}
</style>
<path d="M92.8,203.4c-1.4,0-2.5-1.1-2.5-2.5c0-0.4,0.1-0.7,0.2-1.1c9-18.6,27.6-30.7,48.3-31.3c0.1,0,0.2,0,0.3,0h1.1
	c1.4,0,2.5,1.1,2.5,2.5s-1.1,2.5-2.5,2.5c-19.2,0.1-36.8,11.2-45.1,28.5C94.7,202.9,93.8,203.4,92.8,203.4z"/>
<path d="M157.5,173.5h-3.4c-1.4,0-2.5-1.1-2.5-2.5s1.1-2.5,2.5-2.5h3.4c1.4,0,2.5,1.1,2.5,2.5S158.9,173.5,157.5,173.5z"/>
<path class="st0" d="M315.7,186h48.1v75.3H140.2c-20.8,0-37.6-16.8-37.6-37.6s16.8-37.6,37.6-37.6h61.1"/>
<path d="M363.8,263.7H140.2c-22.2-0.2-39.9-18.4-39.7-40.6c0.2-21.8,17.9-39.4,39.7-39.7h61.1c1.4,0,2.5,1.1,2.5,2.5
	s-1.1,2.5-2.5,2.5h-61.1c-19.4,0.2-34.9,16.1-34.7,35.6c0.2,19.1,15.6,34.5,34.7,34.7h221.1v-70.3h-45.6c-1.4,0-2.5-1.1-2.5-2.5
	s1.1-2.5,2.5-2.5h48.1c1.4,0,2.5,1.1,2.5,2.5v75.3C366.3,262.6,365.2,263.7,363.8,263.7z"/>
<g>
	<path class="st1" d="M118.6,96l171.6-67.4c6.1-2.4,13,0.6,15.5,6.7l39.6,100.8c2.4,6.1-0.6,13-6.7,15.5l-171.6,67.4
		c-6.1,2.4-13-0.6-15.5-6.7l-39.6-100.8C109.5,105.4,112.5,98.4,118.6,96z"/>
	<path class="st2" d="M160.5,184.6l-23.1-58.8c9.9-3.9,14.7-15,10.9-24.9c0,0,0,0,0,0l123.7-48.5c3.9,9.9,15,14.7,24.9,10.9l0,0
		l23.1,58.8c-9.9,3.9-14.7,15-10.8,24.9l-123.7,48.5C181.4,185.5,170.3,180.7,160.5,184.6C160.5,184.6,160.5,184.6,160.5,184.6z"/>
	<path d="M309.6,148.5L186,197.1c-0.9,0.4-2-0.1-2.3-1c-3.5-8.9-13.6-13.3-22.5-9.8c-0.9,0.4-2-0.1-2.3-1l-23.1-58.8
		c-0.4-0.9,0.1-2,1-2.3c8.9-3.5,13.3-13.6,9.8-22.5c-0.4-0.9,0.1-2,1-2.3l123.7-48.5c0.9-0.4,2,0.1,2.3,1
		c3.5,8.9,13.6,13.3,22.5,9.8c0.9-0.4,2,0.1,2.3,1l23.1,58.8c0.4,0.9-0.1,2-1,2.3c-8.9,3.5-13.3,13.6-9.8,22.5
		C311,147.1,310.6,148.2,309.6,148.5L309.6,148.5z M186.3,193.1l120.5-47.3c-2.9-9.8,1.7-20.2,10.8-24.8l-21.8-55.6
		c-9.8,2.9-20.2-1.7-24.8-10.8l-120.5,47.3c2.9,9.8-1.7,20.2-10.8,24.8l21.8,55.6C171.3,179.4,181.7,184,186.3,193.1L186.3,193.1z"
		/>
	<path class="st3" d="M177.7,104.3l-2.4,1c-1.2,0.5-2.6-0.1-3-1.3s0.1-2.6,1.3-3l0,0l2.4-1c1.2-0.5,2.6,0.1,3,1.3
		C179.5,102.5,178.9,103.9,177.7,104.3z"/>
	<path class="st3" d="M151.4,135.3c-1.2,0.5-2.6-0.1-3-1.3c-0.5-1.2,0.1-2.6,1.3-3c8.6-3.4,12.9-13.2,9.5-21.8
		c-0.5-1.2,0.1-2.6,1.3-3l4.6-1.8c1.2-0.5,2.6,0.1,3,1.3c0.5,1.2-0.1,2.6-1.3,3l-2.5,1C167.2,120.2,161.6,131.2,151.4,135.3z"/>
	<circle class="st1" cx="228.6" cy="123.9" r="32.9"/>
	<path d="M241.3,156.2c-17.9,7-38-1.8-45-19.6c-7-17.9,1.8-38,19.6-45c17.9-7,38,1.8,45,19.6C267.9,129,259.1,149.2,241.3,156.2
		L241.3,156.2z M217.2,94.9c-16,6.3-23.9,24.3-17.6,40.3c6.3,16,24.3,23.9,40.3,17.6c16-6.3,23.9-24.3,17.6-40.3
		C251.3,96.5,233.2,88.6,217.2,94.9L217.2,94.9z"/>
	<path d="M234.3,143.7l-1.1-2.8c-2.9,1.1-6,1.4-9,0.8l-0.1-4c2.9,0.6,5.8,0.3,8.5-0.7c3.8-1.5,5.4-4.6,4.3-7.7
		c-1.1-2.9-3.9-3.9-8.5-4c-6.2,0-10.5-1.1-12.3-5.7c-1.7-4.5,0.3-9.6,4.7-11.7l-1.1-2.8l3.3-1.3l1,2.6c2.4-0.9,5-1.2,7.6-0.8l0.1,4
		c-2.5-0.4-5-0.1-7.4,0.8c-4.1,1.6-4.7,4.6-3.8,6.8c1.1,2.8,3.6,3.4,8.9,3.5c6.3,0.1,10.2,1.8,12,6.5c1.8,4.7-0.3,10-4.8,12.3
		l1.1,2.9L234.3,143.7z"/>
	<path d="M169.1,140.7c-0.9,0.4-2-0.1-2.3-1c-0.4-0.9,0.1-2,1-2.3l9.9-3.9c0.9-0.4,2,0.1,2.3,1s-0.1,2-1,2.3L169.1,140.7z"/>
	<path d="M175,155.4c-0.9,0.4-2-0.1-2.3-1c-0.4-0.9,0.1-2,1-2.3l9.9-3.9c0.9-0.4,2,0.1,2.3,1s-0.1,2-1,2.3L175,155.4z"/>
	<path d="M283.6,95.7l-9.9,3.9c-0.9,0.4-2-0.1-2.3-1c-0.4-0.9,0.1-2,1-2.3l9.9-3.9c0.9-0.4,2,0.1,2.3,1
		C285,94.3,284.5,95.4,283.6,95.7z"/>
	<path d="M289.3,110.5l-9.9,3.9c-0.9,0.4-2-0.1-2.3-1c-0.4-0.9,0.1-2,1-2.3l9.9-3.9c0.9-0.4,2,0.1,2.3,1
		C290.7,109.1,290.3,110.1,289.3,110.5L289.3,110.5z"/>
	<path d="M237.9,204.8l-3.1,1.2c-0.9,0.4-2-0.1-2.3-1c-0.4-0.9,0.1-2,1-2.3l3.1-1.2c0.9-0.4,2,0.1,2.3,1
		C239.3,203.4,238.8,204.4,237.9,204.8z"/>
	<path d="M226.5,209.2l-35.6,14c-0.9,0.4-2-0.1-2.3-1c-0.4-0.9,0.1-2,1-2.3l35.6-14c0.9-0.4,2,0.1,2.3,1
		C227.9,207.8,227.5,208.9,226.5,209.2z"/>
	<path d="M259.3,33.2l-3.6,1.4c-0.9,0.4-2-0.1-2.3-1c-0.4-0.9,0.1-2,1-2.3l3.6-1.4c0.9-0.4,2,0.1,2.3,1
		C260.7,31.8,260.3,32.8,259.3,33.2L259.3,33.2z"/>
	<path d="M302.3,22c-0.4,0.2-0.8,0.2-1.2,0c-4.7-1.6-9.7-1.4-14.3,0.4L267.5,30c-0.9,0.4-2-0.1-2.3-1c-0.4-0.9,0.1-2,1-2.3l19.3-7.6
		c5.4-2.1,11.3-2.2,16.7-0.4c0.9,0.3,1.5,1.3,1.1,2.3C303.2,21.4,302.8,21.8,302.3,22z"/>
	<path class="st4" d="M305.7,35.5l39.6,100.9c2.1,5.4,0,11.6-5,14.6c-0.1-0.6-0.3-1.3-0.5-1.9L300.2,48.2c-2.4-6.1-9.3-9.1-15.5-6.7
		l-171,67.1c-0.6,0.2-1.2,0.5-1.7,0.9c-1.2-5.7,1.9-11.4,7.3-13.6l171.1-67.1C296.4,26.3,303.3,29.3,305.7,35.5
		C305.7,35.5,305.7,35.5,305.7,35.5L305.7,35.5z"/>
	<path d="M339.2,153.4l-171.6,67.4c-7.1,2.8-15-0.7-17.8-7.8l-39.6-100.8c-2.8-7.1,0.7-15,7.8-17.8L289.6,27
		c7.1-2.8,15,0.7,17.8,7.8L347,135.6C349.7,142.6,346.3,150.6,339.2,153.4z M119.3,97.7c-5.2,2.1-7.7,7.9-5.7,13.1l39.6,100.8
		c2.1,5.2,7.9,7.7,13.1,5.7L337.9,150c5.2-2.1,7.7-7.9,5.7-13.1L304,36.1c-2.1-5.2-7.9-7.7-13.1-5.7L119.3,97.7z"/>
</g>
<g>
	<path class="st1" d="M118.9,150.5l171.6-67.4c6.1-2.4,13,0.6,15.5,6.7l39.6,100.8c2.4,6.1-0.6,13-6.7,15.5l-171.6,67.4
		c-6.1,2.4-13-0.6-15.5-6.7L112.2,166C109.8,159.8,112.8,152.9,118.9,150.5z"/>
	<path class="st2" d="M160.7,239l-23.1-58.8c9.9-3.9,14.7-15,10.9-24.9c0,0,0,0,0,0l123.7-48.5c3.9,9.9,15,14.7,24.9,10.9l0,0
		l23.1,58.8c-9.9,3.9-14.7,15-10.8,24.9l-123.7,48.5C181.7,240,170.6,235.2,160.7,239C160.7,239,160.7,239,160.7,239z"/>
	<path d="M309.9,203l-123.7,48.5c-0.9,0.4-2-0.1-2.3-1c-3.5-8.9-13.6-13.3-22.5-9.8c-0.9,0.4-2-0.1-2.3-1l-23.1-58.8
		c-0.4-0.9,0.1-2,1-2.3c8.9-3.5,13.3-13.6,9.8-22.5c-0.4-0.9,0.1-2,1-2.3l123.7-48.5c0.9-0.4,2,0.1,2.3,1
		c3.5,8.9,13.6,13.3,22.5,9.8c0.9-0.4,2,0.1,2.3,1l23.1,58.8c0.4,0.9-0.1,2-1,2.3c-8.9,3.5-13.3,13.6-9.8,22.5
		C311.3,201.6,310.8,202.7,309.9,203L309.9,203z M186.5,247.6L307,200.3c-2.9-9.8,1.7-20.2,10.8-24.8L296,119.9
		c-9.8,2.9-20.2-1.7-24.8-10.8l-120.5,47.3c2.9,9.8-1.7,20.2-10.8,24.8l21.8,55.6C171.5,233.9,182,238.4,186.5,247.6L186.5,247.6z"
		/>
	<path class="st3" d="M178,158.8l-2.4,1c-1.2,0.5-2.6-0.1-3-1.3s0.1-2.6,1.3-3l0,0l2.4-1c1.2-0.5,2.6,0.1,3,1.3
		C179.8,157,179.2,158.3,178,158.8z"/>
	<path class="st3" d="M151.7,189.7c-1.2,0.5-2.6-0.1-3-1.3c-0.5-1.2,0.1-2.6,1.3-3c8.6-3.4,12.9-13.2,9.5-21.8
		c-0.5-1.2,0.1-2.6,1.3-3l4.6-1.8c1.2-0.5,2.6,0.1,3,1.3c0.5,1.2-0.1,2.6-1.3,3l-2.5,1C167.5,174.7,161.9,185.7,151.7,189.7z"/>
	<circle class="st1" cx="228.9" cy="178.3" r="32.9"/>
	<path d="M241.6,210.7c-17.9,7-38-1.8-45-19.6c-7-17.9,1.8-38,19.6-45s38,1.8,45,19.6C268.2,183.5,259.4,203.7,241.6,210.7
		L241.6,210.7z M217.5,149.4c-16,6.3-23.9,24.3-17.6,40.3c6.3,16,24.3,23.9,40.3,17.6c16-6.3,23.9-24.3,17.6-40.3
		C251.5,151,233.5,143.1,217.5,149.4L217.5,149.4z"/>
	<path d="M234.6,198.2l-1.1-2.8c-2.9,1.1-6,1.4-9,0.8l-0.1-4c2.9,0.6,5.8,0.3,8.5-0.7c3.8-1.5,5.4-4.6,4.3-7.7
		c-1.1-2.9-3.9-3.9-8.5-4c-6.2,0-10.5-1.1-12.3-5.7c-1.7-4.5,0.3-9.6,4.7-11.7l-1.1-2.8l3.3-1.3l1,2.6c2.4-0.9,5-1.2,7.6-0.8l0.1,4
		c-2.5-0.4-5-0.1-7.4,0.8c-4.1,1.6-4.7,4.6-3.8,6.8c1.1,2.8,3.6,3.4,8.9,3.5c6.3,0.1,10.2,1.8,12,6.5c1.8,4.7-0.3,10-4.8,12.3
		l1.1,2.9L234.6,198.2z"/>
	<path d="M169.4,195.1c-0.9,0.4-2-0.1-2.3-1s0.1-2,1-2.3l9.9-3.9c0.9-0.4,2,0.1,2.3,1c0.4,0.9-0.1,2-1,2.3L169.4,195.1z"/>
	<path d="M175.2,209.8c-0.9,0.4-2-0.1-2.3-1c-0.4-0.9,0.1-2,1-2.3l9.9-3.9c0.9-0.4,2,0.1,2.3,1s-0.1,2-1,2.3L175.2,209.8z"/>
	<path d="M283.9,150.2l-9.9,3.9c-0.9,0.4-2-0.1-2.3-1c-0.4-0.9,0.1-2,1-2.3l9.9-3.9c0.9-0.4,2,0.1,2.3,1
		C285.3,148.8,284.8,149.9,283.9,150.2z"/>
	<path d="M289.6,164.9l-9.9,3.9c-0.9,0.4-2-0.1-2.3-1c-0.4-0.9,0.1-2,1-2.3l9.9-3.9c0.9-0.4,2,0.1,2.3,1
		C291,163.5,290.5,164.6,289.6,164.9L289.6,164.9z"/>
	<path d="M238.2,259.3l-3.1,1.2c-0.9,0.4-2-0.1-2.3-1c-0.4-0.9,0.1-2,1-2.3l3.1-1.2c0.9-0.4,2,0.1,2.3,1
		C239.5,257.8,239.1,258.9,238.2,259.3z"/>
	<path d="M226.8,263.7l-35.6,14c-0.9,0.4-2-0.1-2.3-1c-0.4-0.9,0.1-2,1-2.3l35.6-14c0.9-0.4,2,0.1,2.3,1
		C228.2,262.3,227.7,263.3,226.8,263.7z"/>
	<path class="st4" d="M306,90l39.6,100.9c2.1,5.4,0,11.6-5,14.6c-0.1-0.6-0.3-1.3-0.5-1.9l-39.6-100.9c-2.4-6.1-9.3-9.1-15.5-6.7
		l-171,67.1c-0.6,0.2-1.2,0.5-1.7,0.9c-1.2-5.7,1.9-11.4,7.3-13.6l171.1-67.1C296.7,80.8,303.6,83.8,306,90
		C306,89.9,306,89.9,306,90L306,90z"/>
	<path d="M339.5,207.9l-171.6,67.4c-7.1,2.8-15-0.7-17.8-7.8l-39.6-100.8c-2.8-7.1,0.7-15,7.8-17.8l171.6-67.4
		c7.1-2.8,15,0.7,17.8,7.8l39.6,100.8C350,197.1,346.5,205.1,339.5,207.9z M119.6,152.2c-5.2,2.1-7.7,7.9-5.7,13.1l39.6,100.8
		c2.1,5.2,7.9,7.7,13.1,5.7l171.6-67.4c5.2-2.1,7.7-7.9,5.7-13.1L304.3,90.5c-2.1-5.2-7.9-7.7-13.1-5.7L119.6,152.2z"/>
</g>
<g>
	<path class="st1" d="M125.4,232.6L297,165.2c6.1-2.4,13,0.6,15.5,6.7l39.6,100.8c2.4,6.1-0.6,13-6.7,15.5l-171.6,67.4
		c-6.1,2.4-13-0.6-15.5-6.7L118.7,248C116.3,241.9,119.3,235,125.4,232.6z"/>
	<path class="st2" d="M167.2,321.1l-23.1-58.8c9.9-3.9,14.7-15,10.9-24.9c0,0,0,0,0,0l123.7-48.5c3.9,9.9,15,14.7,24.9,10.9l0,0
		l23.1,58.8c-9.9,3.9-14.7,15-10.8,24.9l-123.7,48.5C188.2,322.1,177.1,317.2,167.2,321.1C167.2,321.1,167.2,321.1,167.2,321.1z"/>
	<path d="M316.4,285.1l-123.7,48.5c-0.9,0.4-2-0.1-2.3-1c-3.5-8.9-13.6-13.3-22.5-9.8c-0.9,0.4-2-0.1-2.3-1l-23.1-58.8
		c-0.4-0.9,0.1-2,1-2.3c8.9-3.5,13.3-13.6,9.8-22.5c-0.4-0.9,0.1-2,1-2.3L278,187.2c0.9-0.4,2,0.1,2.3,1c3.5,8.9,13.6,13.3,22.5,9.8
		c0.9-0.4,2,0.1,2.3,1l23.1,58.8c0.4,0.9-0.1,2-1,2.3c-8.9,3.5-13.3,13.6-9.8,22.5C317.8,283.7,317.4,284.7,316.4,285.1L316.4,285.1
		z M193,329.6l120.5-47.3c-2.9-9.8,1.7-20.2,10.8-24.8L302.5,202c-9.8,2.9-20.2-1.7-24.8-10.8l-120.5,47.3
		c2.9,9.8-1.7,20.2-10.8,24.8l21.8,55.6C178.1,315.9,188.5,320.5,193,329.6L193,329.6z"/>
	<path class="st3" d="M184.5,240.9l-2.4,1c-1.2,0.5-2.6-0.1-3-1.3s0.1-2.6,1.3-3l0,0l2.4-1c1.2-0.5,2.6,0.1,3,1.3
		C186.3,239,185.7,240.4,184.5,240.9z"/>
	<path class="st3" d="M158.2,271.8c-1.2,0.5-2.6-0.1-3-1.3c-0.5-1.2,0.1-2.6,1.3-3c8.6-3.4,12.9-13.2,9.5-21.8
		c-0.5-1.2,0.1-2.6,1.3-3l4.6-1.8c1.2-0.5,2.6,0.1,3,1.3c0.5,1.2-0.1,2.6-1.3,3l-2.5,1C174,256.7,168.4,267.8,158.2,271.8z"/>
	<circle class="st1" cx="235.4" cy="260.4" r="32.9"/>
	<path d="M248.1,292.7c-17.9,7-38-1.8-45-19.6c-7-17.9,1.8-38,19.6-45s38,1.8,45,19.6C274.7,265.6,265.9,285.7,248.1,292.7
		L248.1,292.7z M224,231.4c-16,6.3-23.9,24.3-17.6,40.3c6.3,16,24.3,23.9,40.3,17.6s23.9-24.3,17.6-40.3
		C258,233,240,225.2,224,231.4L224,231.4z"/>
	<path d="M241.1,280.3l-1.1-2.8c-2.9,1.1-6,1.4-9,0.8l-0.1-4c2.9,0.6,5.8,0.3,8.5-0.7c3.8-1.5,5.4-4.6,4.3-7.7
		c-1.1-2.9-3.9-3.9-8.5-4c-6.2,0-10.5-1.1-12.3-5.7c-1.7-4.5,0.3-9.6,4.7-11.7l-1.1-2.8l3.3-1.3l1,2.6c2.4-0.9,5-1.2,7.6-0.8l0.1,4
		c-2.5-0.4-5-0.1-7.4,0.8c-4.1,1.6-4.7,4.6-3.8,6.8c1.1,2.8,3.6,3.4,8.9,3.5c6.3,0.1,10.2,1.8,12,6.5c1.8,4.7-0.3,10-4.8,12.3
		l1.1,2.9L241.1,280.3z"/>
	<path d="M175.9,277.2c-0.9,0.4-2-0.1-2.3-1c-0.4-0.9,0.1-2,1-2.3l9.9-3.9c0.9-0.4,2,0.1,2.3,1c0.4,0.9-0.1,2-1,2.3L175.9,277.2z"/>
	<path d="M181.7,291.9c-0.9,0.4-2-0.1-2.3-1s0.1-2,1-2.3l9.9-3.9c0.9-0.4,2,0.1,2.3,1c0.4,0.9-0.1,2-1,2.3L181.7,291.9z"/>
	<path d="M290.4,232.3l-9.9,3.9c-0.9,0.4-2-0.1-2.3-1c-0.4-0.9,0.1-2,1-2.3l9.9-3.9c0.9-0.4,2,0.1,2.3,1S291.3,231.9,290.4,232.3z"
		/>
	<path d="M296.1,247l-9.9,3.9c-0.9,0.4-2-0.1-2.3-1c-0.4-0.9,0.1-2,1-2.3l9.9-3.9c0.9-0.4,2,0.1,2.3,1
		C297.5,245.6,297,246.6,296.1,247L296.1,247z"/>
	<path d="M244.7,341.3l-3.1,1.2c-0.9,0.4-2-0.1-2.3-1c-0.4-0.9,0.1-2,1-2.3l3.1-1.2c0.9-0.4,2,0.1,2.3,1
		C246.1,339.9,245.6,340.9,244.7,341.3z"/>
	<path d="M233.3,345.8l-35.6,14c-0.9,0.4-2-0.1-2.3-1s0.1-2,1-2.3l35.6-14c0.9-0.4,2,0.1,2.3,1C234.7,344.3,234.2,345.4,233.3,345.8
		z"/>
	<path class="st4" d="M312.5,172l39.6,100.9c2.1,5.4,0,11.6-5,14.6c-0.1-0.6-0.3-1.3-0.5-1.9L307,184.7c-2.4-6.1-9.3-9.1-15.5-6.7
		l-171,67.1c-0.6,0.2-1.2,0.5-1.7,0.9c-1.2-5.7,1.9-11.4,7.3-13.6l171.1-67.1C303.2,162.9,310.1,165.9,312.5,172
		C312.5,172,312.5,172,312.5,172L312.5,172z"/>
	<path d="M346,289.9l-171.6,67.4c-7.1,2.8-15-0.7-17.8-7.8L117,248.7c-2.8-7.1,0.7-15,7.8-17.8l171.6-67.4c7.1-2.8,15,0.7,17.8,7.8
		l39.6,100.8C356.5,279.2,353,287.1,346,289.9z M126.1,234.2c-5.2,2.1-7.7,7.9-5.7,13.1l39.6,100.8c2.1,5.2,7.9,7.7,13.1,5.7
		l171.6-67.4c5.2-2.1,7.7-7.9,5.7-13.1l-39.6-100.8c-2.1-5.2-7.9-7.7-13.1-5.7L126.1,234.2z"/>
</g>
<path class="st5" d="M393,261.2H144.2c-26.1-1.4-37.7-16.1-41.6-37.6v216.6c0,20.8,16.9,37.6,37.6,37.6c0,0,0,0,0,0H393V261.2z"/>
<path class="st6" d="M393,261.2v216.5H140.2c-14.2,0-27.1-7.9-33.5-20.6c5.2,2.7,11,4.1,16.9,4h252.8v-200H393z"/>
<g>
	<g>
		<path d="M310.7,495.2h-5c-1.4,0-2.5-1.1-2.5-2.5c0-1.4,1.1-2.5,2.5-2.5h5c1.4,0,2.5,1.1,2.5,2.5
			C313.2,494.1,312.1,495.2,310.7,495.2z"/>
		<path d="M293.7,495.2h-57.4c-1.4,0-2.5-1.1-2.5-2.5c0-1.4,1.1-2.5,2.5-2.5h57.4c1.4,0,2.5,1.1,2.5,2.5
			C296.2,494.1,295.1,495.2,293.7,495.2z"/>
	</g>
</g>
<path class="st7" d="M123.1,391.3c-1.8,0-3.2-1.5-3.2-3.2l0,0v-6.2c0-1.8,1.5-3.2,3.2-3.2c1.8,0,3.2,1.5,3.2,3.2v6.2
	C126.4,389.9,124.9,391.3,123.1,391.3L123.1,391.3z"/>
<path class="st7" d="M123.1,369.5c-1.8,0-3.2-1.5-3.2-3.2l0,0v-49.9c0-1.8,1.5-3.2,3.2-3.2c1.8,0,3.2,1.5,3.2,3.2l0,0v49.9
	C126.4,368,124.9,369.5,123.1,369.5L123.1,369.5z"/>
<path d="M393,480.2H140.2c-22.1,0-40.1-17.9-40.1-40.1V223.6c0-1.3,1.1-2.4,2.4-2.5c1.3-0.1,2.5,0.9,2.6,2.2c0,0,0,0.1,0,0.1
	c1.6,22.5,14.5,34.1,39.2,35.3H393c1.4,0,2.5,1.1,2.5,2.5v216.5C395.5,479.1,394.4,480.2,393,480.2z M105.1,242.9v197.2
	c0,19.4,15.8,35.1,35.1,35.1h250.3V263.7H144.2C124.8,262.7,111.7,255.8,105.1,242.9L105.1,242.9z"/>
<path class="st3" d="M353.9,397.4h47.7c5.2,0,9.5-4.2,9.5-9.5l0,0V351c0-5.2-4.2-9.5-9.5-9.5l0,0h-47.7c-15.4,0-28,12.5-28,28
	C325.9,384.9,338.4,397.4,353.9,397.4L353.9,397.4z"/>
<path d="M401.6,399.9h-47.7c-16.8,0-30.5-13.6-30.5-30.5c0-16.8,13.6-30.5,30.5-30.5h47.7c6.6,0,12,5.4,12,12V388
	C413.5,394.6,408.2,399.9,401.6,399.9L401.6,399.9z M353.9,344c-14.1,0-25.5,11.4-25.5,25.5c0,14.1,11.4,25.5,25.5,25.5h47.7
	c3.9,0,7-3.1,7-7l0,0V351c0-3.9-3.1-7-7-7l0,0H353.9z"/>
<circle class="st1" cx="351.2" cy="369.5" r="11.3"/>
<path d="M372.5,76.5c1.2,0,2.2,1,2.2,2.2l0,0V83c0,1.2-1,2.2-2.2,2.2c-1.2,0-2.2-1-2.2-2.2v-4.3C370.3,77.5,371.3,76.5,372.5,76.5
	L372.5,76.5z"/>
<path d="M372.5,91.4c1.2,0,2.2,1,2.2,2.2l0,0v34.1c0,1.2-1,2.2-2.2,2.2c-1.2,0-2.2-1-2.2-2.2l0,0V93.6
	C370.3,92.4,371.3,91.4,372.5,91.4L372.5,91.4z"/>
<path d="M388,130c1.2,0,2.2,1,2.2,2.2l0,0v4.3c0,1.2-1,2.2-2.2,2.2c-1.2,0-2.2-1-2.2-2.2v-4.3C385.8,131,386.8,130,388,130L388,130z
	"/>
<path d="M388,144.9c1.2,0,2.2,1,2.2,2.2l0,0v34.1c0,1.2-1,2.2-2.2,2.2c-1.2,0-2.2-1-2.2-2.2l0,0v-34.1
	C385.8,145.9,386.8,144.9,388,144.9L388,144.9z"/>
</svg>
