<?xml version="1.0" encoding="utf-8"?>
<!-- Generator: Adobe Illustrator 25.2.1, SVG Export Plug-In . SVG Version: 6.00 Build 0)  -->
<svg version="1.1" id="Layer_1" xmlns="http://www.w3.org/2000/svg" xmlns:xlink="http://www.w3.org/1999/xlink" x="0px" y="0px"
	 viewBox="0 0 300 220" style="enable-background:new 0 0 300 220;" xml:space="preserve">
<style type="text/css">
	.st0{opacity:0.4;}
	.st1{fill:url(#SVGID_1_);}
	.st2{fill:#1E1E1E;}
	.st3{fill:#FFFFFF;}
	.st4{fill:#FEBD1D;}
	.st5{fill:#FFD45B;}
	.st6{fill:#D6A02F;}
	.st7{fill:#E4A218;}
	.st8{opacity:0.1;}
	.st9{fill:#0C9197;}
	.st10{fill:#F9E288;}
	.st11{opacity:0.2;}
	.st12{fill:#D03938;}
	.st13{fill:#A51313;}
	.st14{fill:#3F9BD6;}
	.st15{fill:#1477AF;}
	.st16{fill:#E9EBED;}
	.st17{fill:#84A9FF;}
	.st18{fill:#050F64;}
	.st19{fill:#EA8096;}
	.st20{fill:#F8D006;}
	.st21{fill:#FF8F08;}
	.st22{fill:#FCBEBE;}
	.st23{fill:#F5BDC8;}
	.st24{fill:#1DA1F2;}
</style>
<g>
	<g class="st0">
		
			<linearGradient id="SVGID_1_" gradientUnits="userSpaceOnUse" x1="18.0691" y1="111.0144" x2="280.0568" y2="111.0144" gradientTransform="matrix(1 0 0 -1 0 220)">
			<stop  offset="0" style="stop-color:#F0F0FB"/>
			<stop  offset="1" style="stop-color:#D2D7F6"/>
		</linearGradient>
		<path class="st1" d="M36.79,141.3c5.74,32.93,58.23,49.74,70.35,53.62c46.17,14.78,138.39,24.47,165.57-26.04
			c18.48-34.35-3.24-77.73-7.28-85.81c-3.2-6.4-25.69-49.76-68.29-58.19c-24.69-4.89-28.04,7.51-61.28,8.68
			C78.02,35.58,48.26-0.57,28.62,15.17c-12.36,9.9-10.67,32.28-10.21,38.3c1.8,23.89,17.21,30.33,19.91,58.21
			C39.93,128.29,34.89,130.42,36.79,141.3z"/>
	</g>
</g>
<path d="M298.5,220H1.5c-0.83,0-1.5-0.67-1.5-1.5l0,0c0-0.83,0.67-1.5,1.5-1.5h297c0.83,0,1.5,0.67,1.5,1.5l0,0
	C300,219.33,299.33,220,298.5,220z"/>
<g>
	<g>
		<g>
			<path class="st2" d="M206.95,42.23h-90.07c-5.39,0-9.75,4.37-9.75,9.75v151.7c0,7.65,6.2,13.86,13.86,13.86h81.85
				c7.65,0,13.86-6.2,13.86-13.86V51.98C216.7,46.6,212.34,42.23,206.95,42.23z"/>
		</g>
		<g>
			<path class="st3" d="M209.55,55.55v140.24c0,2.19-1.77,3.96-3.96,3.96h-87.33c-2.19,0-3.96-1.77-3.96-3.96V55.55H209.55z"/>
		</g>
		<g>
			<g>
				<g>
					<g>
						<g>
							<g>
								<g>
									<g>
										<g>
											<rect x="171.15" y="171.82" class="st4" width="37.84" height="4.92"/>
										</g>
									</g>
								</g>
							</g>
						</g>
					</g>
				</g>
				<g>
					<g>
						<g>
							<g>
								<g>
									<g>
										<g>
											<rect x="171.16" y="170.94" class="st5" width="37.84" height="0.9"/>
										</g>
									</g>
								</g>
							</g>
						</g>
					</g>
				</g>
				<g>
					<g>
						<g>
							<g>
								<g>
									<g>
										<g>
											<rect x="171.16" y="176.73" class="st6" width="37.84" height="0.9"/>
										</g>
									</g>
								</g>
							</g>
						</g>
					</g>
				</g>
				<g>
					<g>
						<g>
							<g>
								<g>
									<g>
										<g>
											<g>
												<rect x="173.44" y="171.82" class="st7" width="0.89" height="4.92"/>
											</g>
										</g>
									</g>
								</g>
							</g>
						</g>
					</g>
					<g>
						<g>
							<g>
								<g>
									<g>
										<g>
											<g>
												<rect x="176.68" y="171.82" class="st7" width="0.89" height="4.92"/>
											</g>
										</g>
									</g>
								</g>
							</g>
						</g>
					</g>
					<g>
						<g>
							<g>
								<g>
									<g>
										<g>
											<g>
												<rect x="179.92" y="171.82" class="st7" width="0.89" height="4.92"/>
											</g>
										</g>
									</g>
								</g>
							</g>
						</g>
					</g>
					<g>
						<g>
							<g>
								<g>
									<g>
										<g>
											<g>
												<rect x="183.15" y="171.82" class="st7" width="0.89" height="4.92"/>
											</g>
										</g>
									</g>
								</g>
							</g>
						</g>
					</g>
					<g>
						<g>
							<g>
								<g>
									<g>
										<g>
											<g>
												<rect x="186.39" y="171.82" class="st7" width="0.89" height="4.92"/>
											</g>
										</g>
									</g>
								</g>
							</g>
						</g>
					</g>
					<g>
						<g>
							<g>
								<g>
									<g>
										<g>
											<g>
												<rect x="189.62" y="171.82" class="st7" width="0.89" height="4.92"/>
											</g>
										</g>
									</g>
								</g>
							</g>
						</g>
					</g>
					<g>
						<g>
							<g>
								<g>
									<g>
										<g>
											<g>
												<rect x="192.86" y="171.82" class="st7" width="0.89" height="4.92"/>
											</g>
										</g>
									</g>
								</g>
							</g>
						</g>
					</g>
					<g>
						<g>
							<g>
								<g>
									<g>
										<g>
											<g>
												<rect x="196.09" y="171.82" class="st7" width="0.89" height="4.92"/>
											</g>
										</g>
									</g>
								</g>
							</g>
						</g>
					</g>
					<g>
						<g>
							<g>
								<g>
									<g>
										<g>
											<g>
												<rect x="199.33" y="171.82" class="st7" width="0.89" height="4.92"/>
											</g>
										</g>
									</g>
								</g>
							</g>
						</g>
					</g>
					<g>
						<g>
							<g>
								<g>
									<g>
										<g>
											<g>
												<rect x="202.56" y="171.82" class="st7" width="0.89" height="4.92"/>
											</g>
										</g>
									</g>
								</g>
							</g>
						</g>
					</g>
					<g>
						<g>
							<g>
								<g>
									<g>
										<g>
											<g>
												<rect x="205.8" y="171.82" class="st7" width="0.89" height="4.92"/>
											</g>
										</g>
									</g>
								</g>
							</g>
						</g>
					</g>
				</g>
			</g>
			<g>
				<g>
					<g>
						<g>
							<g>
								<g>
									<g>
										<g>
											<rect x="167.91" y="178.52" class="st4" width="37.84" height="4.92"/>
										</g>
									</g>
								</g>
							</g>
						</g>
					</g>
				</g>
				<g>
					<g>
						<g>
							<g>
								<g>
									<g>
										<g>
											<rect x="167.92" y="177.63" class="st5" width="37.84" height="0.9"/>
										</g>
									</g>
								</g>
							</g>
						</g>
					</g>
				</g>
				<g>
					<g>
						<g>
							<g>
								<g>
									<g>
										<g>
											<rect x="167.92" y="183.43" class="st6" width="37.84" height="0.9"/>
										</g>
									</g>
								</g>
							</g>
						</g>
					</g>
				</g>
				<g>
					<g>
						<g>
							<g>
								<g>
									<g>
										<g>
											<g>
												<rect x="170.2" y="178.52" class="st7" width="0.89" height="4.92"/>
											</g>
										</g>
									</g>
								</g>
							</g>
						</g>
					</g>
					<g>
						<g>
							<g>
								<g>
									<g>
										<g>
											<g>
												<rect x="173.44" y="178.52" class="st7" width="0.89" height="4.92"/>
											</g>
										</g>
									</g>
								</g>
							</g>
						</g>
					</g>
					<g>
						<g>
							<g>
								<g>
									<g>
										<g>
											<g>
												<rect x="176.67" y="178.52" class="st7" width="0.89" height="4.92"/>
											</g>
										</g>
									</g>
								</g>
							</g>
						</g>
					</g>
					<g>
						<g>
							<g>
								<g>
									<g>
										<g>
											<g>
												<rect x="179.91" y="178.52" class="st7" width="0.89" height="4.92"/>
											</g>
										</g>
									</g>
								</g>
							</g>
						</g>
					</g>
					<g>
						<g>
							<g>
								<g>
									<g>
										<g>
											<g>
												<rect x="183.15" y="178.52" class="st7" width="0.89" height="4.92"/>
											</g>
										</g>
									</g>
								</g>
							</g>
						</g>
					</g>
					<g>
						<g>
							<g>
								<g>
									<g>
										<g>
											<g>
												<rect x="186.38" y="178.52" class="st7" width="0.89" height="4.92"/>
											</g>
										</g>
									</g>
								</g>
							</g>
						</g>
					</g>
					<g>
						<g>
							<g>
								<g>
									<g>
										<g>
											<g>
												<rect x="189.62" y="178.52" class="st7" width="0.89" height="4.92"/>
											</g>
										</g>
									</g>
								</g>
							</g>
						</g>
					</g>
					<g>
						<g>
							<g>
								<g>
									<g>
										<g>
											<g>
												<rect x="192.85" y="178.52" class="st7" width="0.89" height="4.92"/>
											</g>
										</g>
									</g>
								</g>
							</g>
						</g>
					</g>
					<g>
						<g>
							<g>
								<g>
									<g>
										<g>
											<g>
												<rect x="196.09" y="178.52" class="st7" width="0.89" height="4.92"/>
											</g>
										</g>
									</g>
								</g>
							</g>
						</g>
					</g>
					<g>
						<g>
							<g>
								<g>
									<g>
										<g>
											<g>
												<rect x="199.32" y="178.52" class="st7" width="0.89" height="4.92"/>
											</g>
										</g>
									</g>
								</g>
							</g>
						</g>
					</g>
					<g>
						<g>
							<g>
								<g>
									<g>
										<g>
											<g>
												<rect x="202.56" y="178.52" class="st7" width="0.89" height="4.92"/>
											</g>
										</g>
									</g>
								</g>
							</g>
						</g>
					</g>
				</g>
			</g>
			<g>
				<g>
					<g>
						<g>
							<g>
								<g>
									<g>
										<g>
											<rect x="171.15" y="185.21" class="st4" width="37.84" height="4.92"/>
										</g>
									</g>
								</g>
							</g>
						</g>
					</g>
				</g>
				<g>
					<g>
						<g>
							<g>
								<g>
									<g>
										<g>
											<rect x="171.15" y="184.32" class="st5" width="37.84" height="0.9"/>
										</g>
									</g>
								</g>
							</g>
						</g>
					</g>
				</g>
				<g>
					<g>
						<g>
							<g>
								<g>
									<g>
										<g>
											<rect x="171.15" y="190.12" class="st6" width="37.84" height="0.9"/>
										</g>
									</g>
								</g>
							</g>
						</g>
					</g>
				</g>
				<g>
					<g>
						<g>
							<g>
								<g>
									<g>
										<g>
											<g>
												<rect x="173.44" y="185.21" class="st7" width="0.89" height="4.92"/>
											</g>
										</g>
									</g>
								</g>
							</g>
						</g>
					</g>
					<g>
						<g>
							<g>
								<g>
									<g>
										<g>
											<g>
												<rect x="176.68" y="185.21" class="st7" width="0.89" height="4.92"/>
											</g>
										</g>
									</g>
								</g>
							</g>
						</g>
					</g>
					<g>
						<g>
							<g>
								<g>
									<g>
										<g>
											<g>
												<rect x="179.91" y="185.21" class="st7" width="0.89" height="4.92"/>
											</g>
										</g>
									</g>
								</g>
							</g>
						</g>
					</g>
					<g>
						<g>
							<g>
								<g>
									<g>
										<g>
											<g>
												<rect x="183.15" y="185.21" class="st7" width="0.89" height="4.92"/>
											</g>
										</g>
									</g>
								</g>
							</g>
						</g>
					</g>
					<g>
						<g>
							<g>
								<g>
									<g>
										<g>
											<g>
												<rect x="186.38" y="185.21" class="st7" width="0.89" height="4.92"/>
											</g>
										</g>
									</g>
								</g>
							</g>
						</g>
					</g>
					<g>
						<g>
							<g>
								<g>
									<g>
										<g>
											<g>
												<rect x="189.62" y="185.21" class="st7" width="0.89" height="4.92"/>
											</g>
										</g>
									</g>
								</g>
							</g>
						</g>
					</g>
					<g>
						<g>
							<g>
								<g>
									<g>
										<g>
											<g>
												<rect x="192.85" y="185.21" class="st7" width="0.89" height="4.92"/>
											</g>
										</g>
									</g>
								</g>
							</g>
						</g>
					</g>
					<g>
						<g>
							<g>
								<g>
									<g>
										<g>
											<g>
												<rect x="196.09" y="185.21" class="st7" width="0.89" height="4.92"/>
											</g>
										</g>
									</g>
								</g>
							</g>
						</g>
					</g>
					<g>
						<g>
							<g>
								<g>
									<g>
										<g>
											<g>
												<rect x="199.32" y="185.21" class="st7" width="0.89" height="4.92"/>
											</g>
										</g>
									</g>
								</g>
							</g>
						</g>
					</g>
					<g>
						<g>
							<g>
								<g>
									<g>
										<g>
											<g>
												<rect x="202.56" y="185.21" class="st7" width="0.89" height="4.92"/>
											</g>
										</g>
									</g>
								</g>
							</g>
						</g>
					</g>
					<g>
						<g>
							<g>
								<g>
									<g>
										<g>
											<g>
												<rect x="205.8" y="185.21" class="st7" width="0.89" height="4.92"/>
											</g>
										</g>
									</g>
								</g>
							</g>
						</g>
					</g>
				</g>
			</g>
			<g>
				<g>
					<g>
						<g>
							<g>
								<g>
									<g>
										<g>
											<rect x="173.49" y="191.91" class="st4" width="37.84" height="4.92"/>
										</g>
									</g>
								</g>
							</g>
						</g>
					</g>
				</g>
				<g>
					<g>
						<g>
							<g>
								<g>
									<g>
										<g>
											<rect x="173.5" y="191.02" class="st5" width="37.84" height="0.9"/>
										</g>
									</g>
								</g>
							</g>
						</g>
					</g>
				</g>
				<g>
					<g>
						<g>
							<g>
								<g>
									<g>
										<g>
											<rect x="173.5" y="196.81" class="st6" width="37.84" height="0.9"/>
										</g>
									</g>
								</g>
							</g>
						</g>
					</g>
				</g>
				<g>
					<g>
						<g>
							<g>
								<g>
									<g>
										<g>
											<g>
												<rect x="175.79" y="191.91" class="st7" width="0.89" height="4.92"/>
											</g>
										</g>
									</g>
								</g>
							</g>
						</g>
					</g>
					<g>
						<g>
							<g>
								<g>
									<g>
										<g>
											<g>
												<rect x="179.02" y="191.91" class="st7" width="0.89" height="4.92"/>
											</g>
										</g>
									</g>
								</g>
							</g>
						</g>
					</g>
					<g>
						<g>
							<g>
								<g>
									<g>
										<g>
											<g>
												<rect x="182.26" y="191.91" class="st7" width="0.89" height="4.92"/>
											</g>
										</g>
									</g>
								</g>
							</g>
						</g>
					</g>
					<g>
						<g>
							<g>
								<g>
									<g>
										<g>
											<g>
												<rect x="185.49" y="191.91" class="st7" width="0.89" height="4.92"/>
											</g>
										</g>
									</g>
								</g>
							</g>
						</g>
					</g>
					<g>
						<g>
							<g>
								<g>
									<g>
										<g>
											<g>
												<rect x="188.73" y="191.91" class="st7" width="0.89" height="4.92"/>
											</g>
										</g>
									</g>
								</g>
							</g>
						</g>
					</g>
					<g>
						<g>
							<g>
								<g>
									<g>
										<g>
											<g>
												<rect x="191.97" y="191.91" class="st7" width="0.89" height="4.92"/>
											</g>
										</g>
									</g>
								</g>
							</g>
						</g>
					</g>
					<g>
						<g>
							<g>
								<g>
									<g>
										<g>
											<g>
												<rect x="195.2" y="191.91" class="st7" width="0.89" height="4.92"/>
											</g>
										</g>
									</g>
								</g>
							</g>
						</g>
					</g>
					<g>
						<g>
							<g>
								<g>
									<g>
										<g>
											<g>
												<rect x="198.44" y="191.91" class="st7" width="0.89" height="4.92"/>
											</g>
										</g>
									</g>
								</g>
							</g>
						</g>
					</g>
					<g>
						<g>
							<g>
								<g>
									<g>
										<g>
											<g>
												<rect x="201.67" y="191.91" class="st7" width="0.89" height="4.92"/>
											</g>
										</g>
									</g>
								</g>
							</g>
						</g>
					</g>
					<g>
						<g>
							<g>
								<g>
									<g>
										<g>
											<g>
												<rect x="204.91" y="191.91" class="st7" width="0.89" height="4.92"/>
											</g>
										</g>
									</g>
								</g>
							</g>
						</g>
					</g>
					<g>
						<g>
							<g>
								<g>
									<g>
										<g>
											<g>
												<rect x="208.14" y="191.91" class="st7" width="0.89" height="4.92"/>
											</g>
										</g>
									</g>
								</g>
							</g>
						</g>
					</g>
				</g>
			</g>
			<g>
				<g>
					<g>
						<g>
							<g>
								<g>
									<g>
										<g>
											<rect x="170.7" y="198.6" class="st4" width="37.84" height="4.92"/>
										</g>
									</g>
								</g>
							</g>
						</g>
					</g>
				</g>
				<g>
					<g>
						<g>
							<g>
								<g>
									<g>
										<g>
											<rect x="170.71" y="197.71" class="st5" width="37.84" height="0.9"/>
										</g>
									</g>
								</g>
							</g>
						</g>
					</g>
				</g>
				<g>
					<g>
						<g>
							<g>
								<g>
									<g>
										<g>
											<rect x="170.71" y="203.51" class="st6" width="37.84" height="0.9"/>
										</g>
									</g>
								</g>
							</g>
						</g>
					</g>
				</g>
				<g>
					<g>
						<g>
							<g>
								<g>
									<g>
										<g>
											<g>
												<rect x="173" y="198.6" class="st7" width="0.89" height="4.92"/>
											</g>
										</g>
									</g>
								</g>
							</g>
						</g>
					</g>
					<g>
						<g>
							<g>
								<g>
									<g>
										<g>
											<g>
												<rect x="176.23" y="198.6" class="st7" width="0.89" height="4.92"/>
											</g>
										</g>
									</g>
								</g>
							</g>
						</g>
					</g>
					<g>
						<g>
							<g>
								<g>
									<g>
										<g>
											<g>
												<rect x="179.47" y="198.6" class="st7" width="0.89" height="4.92"/>
											</g>
										</g>
									</g>
								</g>
							</g>
						</g>
					</g>
					<g>
						<g>
							<g>
								<g>
									<g>
										<g>
											<g>
												<rect x="182.7" y="198.6" class="st7" width="0.89" height="4.92"/>
											</g>
										</g>
									</g>
								</g>
							</g>
						</g>
					</g>
					<g>
						<g>
							<g>
								<g>
									<g>
										<g>
											<g>
												<rect x="185.94" y="198.6" class="st7" width="0.89" height="4.92"/>
											</g>
										</g>
									</g>
								</g>
							</g>
						</g>
					</g>
					<g>
						<g>
							<g>
								<g>
									<g>
										<g>
											<g>
												<rect x="189.17" y="198.6" class="st7" width="0.89" height="4.92"/>
											</g>
										</g>
									</g>
								</g>
							</g>
						</g>
					</g>
					<g>
						<g>
							<g>
								<g>
									<g>
										<g>
											<g>
												<rect x="192.41" y="198.6" class="st7" width="0.89" height="4.92"/>
											</g>
										</g>
									</g>
								</g>
							</g>
						</g>
					</g>
					<g>
						<g>
							<g>
								<g>
									<g>
										<g>
											<g>
												<rect x="195.64" y="198.6" class="st7" width="0.89" height="4.92"/>
											</g>
										</g>
									</g>
								</g>
							</g>
						</g>
					</g>
					<g>
						<g>
							<g>
								<g>
									<g>
										<g>
											<g>
												<rect x="198.88" y="198.6" class="st7" width="0.89" height="4.92"/>
											</g>
										</g>
									</g>
								</g>
							</g>
						</g>
					</g>
					<g>
						<g>
							<g>
								<g>
									<g>
										<g>
											<g>
												<rect x="202.12" y="198.6" class="st7" width="0.89" height="4.92"/>
											</g>
										</g>
									</g>
								</g>
							</g>
						</g>
					</g>
					<g>
						<g>
							<g>
								<g>
									<g>
										<g>
											<g>
												<rect x="205.35" y="198.6" class="st7" width="0.89" height="4.92"/>
											</g>
										</g>
									</g>
								</g>
							</g>
						</g>
					</g>
				</g>
			</g>
			<g>
				<g>
					<g>
						<g>
							<g>
								<g>
									<g>
										<g>
											<rect x="173.49" y="205.3" class="st4" width="37.84" height="4.92"/>
										</g>
									</g>
								</g>
							</g>
						</g>
					</g>
				</g>
				<g>
					<g>
						<g>
							<g>
								<g>
									<g>
										<g>
											<rect x="173.5" y="204.41" class="st5" width="37.84" height="0.9"/>
										</g>
									</g>
								</g>
							</g>
						</g>
					</g>
				</g>
				<g>
					<g>
						<g>
							<g>
								<g>
									<g>
										<g>
											<rect x="173.5" y="210.2" class="st6" width="37.84" height="0.9"/>
										</g>
									</g>
								</g>
							</g>
						</g>
					</g>
				</g>
				<g>
					<g>
						<g>
							<g>
								<g>
									<g>
										<g>
											<g>
												<rect x="175.79" y="205.3" class="st7" width="0.89" height="4.92"/>
											</g>
										</g>
									</g>
								</g>
							</g>
						</g>
					</g>
					<g>
						<g>
							<g>
								<g>
									<g>
										<g>
											<g>
												<rect x="179.02" y="205.3" class="st7" width="0.89" height="4.92"/>
											</g>
										</g>
									</g>
								</g>
							</g>
						</g>
					</g>
					<g>
						<g>
							<g>
								<g>
									<g>
										<g>
											<g>
												<rect x="182.26" y="205.3" class="st7" width="0.89" height="4.92"/>
											</g>
										</g>
									</g>
								</g>
							</g>
						</g>
					</g>
					<g>
						<g>
							<g>
								<g>
									<g>
										<g>
											<g>
												<rect x="185.49" y="205.3" class="st7" width="0.89" height="4.92"/>
											</g>
										</g>
									</g>
								</g>
							</g>
						</g>
					</g>
					<g>
						<g>
							<g>
								<g>
									<g>
										<g>
											<g>
												<rect x="188.73" y="205.3" class="st7" width="0.89" height="4.92"/>
											</g>
										</g>
									</g>
								</g>
							</g>
						</g>
					</g>
					<g>
						<g>
							<g>
								<g>
									<g>
										<g>
											<g>
												<rect x="191.97" y="205.3" class="st7" width="0.89" height="4.92"/>
											</g>
										</g>
									</g>
								</g>
							</g>
						</g>
					</g>
					<g>
						<g>
							<g>
								<g>
									<g>
										<g>
											<g>
												<rect x="195.2" y="205.3" class="st7" width="0.89" height="4.92"/>
											</g>
										</g>
									</g>
								</g>
							</g>
						</g>
					</g>
					<g>
						<g>
							<g>
								<g>
									<g>
										<g>
											<g>
												<rect x="198.44" y="205.3" class="st7" width="0.89" height="4.92"/>
											</g>
										</g>
									</g>
								</g>
							</g>
						</g>
					</g>
					<g>
						<g>
							<g>
								<g>
									<g>
										<g>
											<g>
												<rect x="201.67" y="205.3" class="st7" width="0.89" height="4.92"/>
											</g>
										</g>
									</g>
								</g>
							</g>
						</g>
					</g>
					<g>
						<g>
							<g>
								<g>
									<g>
										<g>
											<g>
												<rect x="204.91" y="205.3" class="st7" width="0.89" height="4.92"/>
											</g>
										</g>
									</g>
								</g>
							</g>
						</g>
					</g>
					<g>
						<g>
							<g>
								<g>
									<g>
										<g>
											<g>
												<rect x="208.14" y="205.3" class="st7" width="0.89" height="4.92"/>
											</g>
										</g>
									</g>
								</g>
							</g>
						</g>
					</g>
				</g>
			</g>
			<g>
				<g>
					<g>
						<g>
							<g>
								<g>
									<g>
										<g>
											<rect x="169.81" y="211.99" class="st4" width="37.84" height="4.92"/>
										</g>
									</g>
								</g>
							</g>
						</g>
					</g>
				</g>
				<g>
					<g>
						<g>
							<g>
								<g>
									<g>
										<g>
											<rect x="169.81" y="211.1" class="st5" width="37.84" height="0.9"/>
										</g>
									</g>
								</g>
							</g>
						</g>
					</g>
				</g>
				<g>
					<g>
						<g>
							<g>
								<g>
									<g>
										<g>
											<rect x="169.81" y="216.9" class="st6" width="37.84" height="0.9"/>
										</g>
									</g>
								</g>
							</g>
						</g>
					</g>
				</g>
				<g>
					<g>
						<g>
							<g>
								<g>
									<g>
										<g>
											<g>
												<rect x="172.1" y="211.99" class="st7" width="0.89" height="4.92"/>
											</g>
										</g>
									</g>
								</g>
							</g>
						</g>
					</g>
					<g>
						<g>
							<g>
								<g>
									<g>
										<g>
											<g>
												<rect x="175.34" y="211.99" class="st7" width="0.89" height="4.92"/>
											</g>
										</g>
									</g>
								</g>
							</g>
						</g>
					</g>
					<g>
						<g>
							<g>
								<g>
									<g>
										<g>
											<g>
												<rect x="178.57" y="211.99" class="st7" width="0.89" height="4.92"/>
											</g>
										</g>
									</g>
								</g>
							</g>
						</g>
					</g>
					<g>
						<g>
							<g>
								<g>
									<g>
										<g>
											<g>
												<rect x="181.81" y="211.99" class="st7" width="0.89" height="4.92"/>
											</g>
										</g>
									</g>
								</g>
							</g>
						</g>
					</g>
					<g>
						<g>
							<g>
								<g>
									<g>
										<g>
											<g>
												<rect x="185.04" y="211.99" class="st7" width="0.89" height="4.92"/>
											</g>
										</g>
									</g>
								</g>
							</g>
						</g>
					</g>
					<g>
						<g>
							<g>
								<g>
									<g>
										<g>
											<g>
												<rect x="188.28" y="211.99" class="st7" width="0.89" height="4.92"/>
											</g>
										</g>
									</g>
								</g>
							</g>
						</g>
					</g>
					<g>
						<g>
							<g>
								<g>
									<g>
										<g>
											<g>
												<rect x="191.52" y="211.99" class="st7" width="0.89" height="4.92"/>
											</g>
										</g>
									</g>
								</g>
							</g>
						</g>
					</g>
					<g>
						<g>
							<g>
								<g>
									<g>
										<g>
											<g>
												<rect x="194.75" y="211.99" class="st7" width="0.89" height="4.92"/>
											</g>
										</g>
									</g>
								</g>
							</g>
						</g>
					</g>
					<g>
						<g>
							<g>
								<g>
									<g>
										<g>
											<g>
												<rect x="197.99" y="211.99" class="st7" width="0.89" height="4.92"/>
											</g>
										</g>
									</g>
								</g>
							</g>
						</g>
					</g>
					<g>
						<g>
							<g>
								<g>
									<g>
										<g>
											<g>
												<rect x="201.22" y="211.99" class="st7" width="0.89" height="4.92"/>
											</g>
										</g>
									</g>
								</g>
							</g>
						</g>
					</g>
					<g>
						<g>
							<g>
								<g>
									<g>
										<g>
											<g>
												<rect x="204.46" y="211.99" class="st7" width="0.89" height="4.92"/>
											</g>
										</g>
									</g>
								</g>
							</g>
						</g>
					</g>
				</g>
			</g>
			<g class="st8">
				<g>
					<g>
						<g>
							<g>
								<g>
									<g>
										<g>
											<path class="st9" d="M207.67,217.79v-1.69v-1.18v-3.81v-0.89v-0.02v-0.54v-4.35v-0.24v-0.16v-0.49v-0.89v-2.28v-2.61
												v-0.02v-0.87v-0.89v-0.02v-0.38v-3.62v-0.89v-0.89v-0.89v-1.79v-0.26v-2.85v-0.02v-0.87v-1.53v-0.61
												c-0.14-0.02-0.31-0.02-0.45-0.02c-0.49,0-0.99,0.02-1.48,0.07c-0.78,0.05-1.53,0.16-2.28,0.31
												c-0.31,0.07-0.59,0.12-0.89,0.19c-0.73,0.19-1.41,0.42-2.09,0.68c-0.02,0-0.05,0-0.05,0.02
												c-0.68,0.26-1.32,0.54-1.95,0.87l-0.02,0.02c0,0-0.02-0.02-0.02,0c-0.49,0.26-0.96,0.54-1.44,0.87h-0.02l-0.02,0.02
												c-0.28,0.16-0.56,0.35-0.85,0.56c-0.82,0.61-1.62,1.27-2.35,2.02c-0.31,0.31-0.59,0.64-0.89,0.96
												c-0.35,0.42-0.71,0.87-1.04,1.34c-0.21,0.28-0.42,0.59-0.61,0.89c-0.19,0.28-0.35,0.59-0.52,0.89
												c-0.4,0.73-0.75,1.48-1.06,2.26c-0.26,0.66-0.49,1.34-0.68,2.02c-0.05,0.21-0.09,0.4-0.14,0.61c0,0,0,0.02-0.02,0.02
												c-0.05,0.28-0.12,0.59-0.16,0.89c-0.05,0.28-0.09,0.56-0.14,0.87c0,0,0,0,0,0.02c-0.12,0.8-0.16,1.62-0.16,2.47
												c0,0.82,0.05,1.62,0.16,2.42c0.02,0.31,0.07,0.61,0.14,0.89c0.05,0.31,0.09,0.61,0.16,0.89
												c0.21,0.94,0.49,1.84,0.85,2.71c0.31,0.75,0.64,1.48,1.04,2.19l0.02,0.02c0.14,0.31,0.33,0.59,0.52,0.89
												c0.16,0.31,0.38,0.59,0.56,0.87c0.02,0,0.02,0.02,0.02,0.02c0.21,0.31,0.42,0.59,0.64,0.87
												c0.71,0.87,1.48,1.67,2.33,2.42c0.28,0.26,0.59,0.49,0.89,0.73c0.4,0.31,0.8,0.59,1.22,0.87
												c0.47,0.33,0.96,0.61,1.48,0.89H207.67z"/>
										</g>
									</g>
								</g>
							</g>
						</g>
					</g>
				</g>
			</g>
			<g>
				<g>
					<g>
						<g>
							<g>
								<g>
									<g>
										<g>
											<g>
												<path class="st4" d="M226.59,198.88c0,10.45-8.47,18.92-18.92,18.92c-3.08,0-6-0.73-8.56-2.05
													c-2.75-1.41-5.11-3.46-6.87-5.95c-2.19-3.08-3.48-6.85-3.48-10.92c0-10.45,8.47-18.92,18.92-18.92
													c1.91,0,3.74,0.28,5.46,0.8c3.62,1.08,6.8,3.25,9.13,6.09C224.96,190.13,226.59,194.31,226.59,198.88z"/>
											</g>
										</g>
									</g>
								</g>
							</g>
						</g>
					</g>
				</g>
				<g>
					<g>
						<g>
							<g>
								<g>
									<g>
										<g>
											<g>
												<path class="st5" d="M207.67,216.1c-9.5,0-17.23-7.73-17.23-17.23c0-9.5,7.73-17.23,17.23-17.23
													c9.5,0,17.23,7.73,17.23,17.23C224.9,208.37,217.17,216.1,207.67,216.1z M207.67,182.82c-8.85,0-16.05,7.2-16.05,16.05
													c0,8.85,7.2,16.05,16.05,16.05s16.05-7.2,16.05-16.05C223.72,190.02,216.52,182.82,207.67,182.82z"/>
											</g>
										</g>
									</g>
								</g>
							</g>
						</g>
					</g>
				</g>
				<g>
					<g>
						<g>
							<g>
								<g>
									<g>
										<g>
											<g>
												<path class="st10" d="M213.21,200.86c-0.42-0.7-0.94-1.29-1.54-1.77c-0.57-0.45-1.33-0.96-2.26-1.51
													c-0.76-0.46-1.34-0.85-1.75-1.17c-0.38-0.29-0.71-0.64-0.98-1.03c-0.24-0.35-0.36-0.75-0.36-1.21
													c0-0.49,0.12-0.85,0.34-1.05c0.24-0.21,0.63-0.32,1.15-0.32s0.91,0.11,1.15,0.32c0.23,0.2,0.34,0.55,0.34,1.05v1.2h4.53
													v-1.01c0-1.37-0.39-2.48-1.17-3.32c-0.7-0.76-1.7-1.27-2.98-1.52v-1.43h-4.04v1.44c-1.25,0.27-2.24,0.79-2.93,1.55
													c-0.76,0.84-1.15,1.95-1.15,3.29c0,0.95,0.22,1.8,0.66,2.52c0.42,0.7,0.94,1.29,1.54,1.77
													c0.57,0.45,1.33,0.96,2.26,1.51c0.76,0.46,1.34,0.85,1.75,1.17c0.38,0.29,0.71,0.64,0.98,1.03
													c0.24,0.36,0.36,0.75,0.36,1.21c0,0.67-0.19,1.34-1.57,1.34c-1.38,0-1.57-0.68-1.57-1.34v-1.88h-4.53v1.69
													c0,1.36,0.39,2.49,1.17,3.33c0.7,0.77,1.72,1.29,3.01,1.54v1.4h4.04v-1.41c1.27-0.25,2.28-0.77,2.99-1.54
													c0.79-0.85,1.19-1.97,1.19-3.34C213.87,202.43,213.64,201.58,213.21,200.86z"/>
											</g>
										</g>
									</g>
								</g>
							</g>
						</g>
					</g>
				</g>
				<g class="st11">
					<g>
						<g>
							<g>
								<g>
									<g>
										<g>
											<g>
												<path class="st3" d="M222.26,186.85l-23.15,28.89c-2.75-1.41-5.11-3.46-6.87-5.95l20.89-29.04
													C216.75,181.84,219.93,184.01,222.26,186.85z"/>
											</g>
										</g>
									</g>
								</g>
							</g>
						</g>
					</g>
				</g>
			</g>
		</g>
		<g>
			<path class="st3" d="M181.27,50.32h-38.71c-0.28,0-0.51-0.23-0.51-0.51v-1.39c0-0.28,0.23-0.51,0.51-0.51h38.71
				c0.28,0,0.51,0.23,0.51,0.51v1.39C181.78,50.09,181.55,50.32,181.27,50.32z"/>
		</g>
		<g>
			<path class="st12" d="M235.02,123.24h-16.91c-2.91,0-5.26-2.36-5.26-5.26v-9.43c0-2.91,2.36-5.26,5.26-5.26h16.91
				c2.91,0,5.26,2.36,5.26,5.26v9.43C240.28,120.89,237.93,123.24,235.02,123.24z"/>
			<g>
				<polygon class="st13" points="226.56,130.86 226.56,123.24 220.14,123.24 				"/>
				<polygon class="st13" points="226.56,123.24 226.56,130.86 232.99,123.24 				"/>
			</g>
			<g>
				<path class="st3" d="M221.68,114.03l4.8,4.87l4.87-4.8c4.23-4.17-0.57-9.03-4.8-4.87C222.44,105.07,217.58,109.87,221.68,114.03
					z"/>
			</g>
		</g>
		<g>
			<path class="st14" d="M235.02,157.12h-16.91c-2.91,0-5.26-2.36-5.26-5.26v-9.43c0-2.91,2.36-5.26,5.26-5.26h16.91
				c2.91,0,5.26,2.36,5.26,5.26v9.43C240.28,154.77,237.93,157.12,235.02,157.12z"/>
			<g>
				<polygon class="st15" points="226.56,164.74 226.56,157.12 220.14,157.12 				"/>
				<polygon class="st15" points="226.56,157.12 226.56,164.74 232.99,157.12 				"/>
			</g>
			<g>
				<path class="st16" d="M231.59,150.01c-0.04-0.23-0.14-0.46-0.29-0.68c-0.46-0.65-1.31-0.77-2.03-0.96
					c-0.88-0.23-1.55-0.72-2.11-1.43c-0.49-0.62-0.95-1.36-1.17-2.12c-0.27-0.89-0.32-1.84-0.3-2.76c0.01-0.37-0.02-1.09-0.57-0.91
					c-0.31,0.1-0.55,0.43-0.74,0.69c-0.23,0.32-0.3,0.7-0.36,1.09c-0.06,0.34-0.07,0.63,0.01,0.96c0.09,0.38,0.33,0.89,0.04,1.24
					c-0.23,0.28-1.12,0.48-1.47,0.43c-0.41-0.06-0.85-0.1-1.15-0.02c-0.69,0.17-0.79,0.93-0.16,1.71c0.62,0.77-0.49,1.07-0.33,2.06
					c0.16,0.99,1.01,1.26,0.52,2.41c-0.77,1.81,7.92,0.69,8.67,0.5C231.11,151.97,231.77,150.97,231.59,150.01z"/>
				<rect x="230.44" y="147.41" class="st17" width="1.8" height="5.75"/>
			</g>
		</g>
		<g>
			<path class="st18" d="M72.49,217.54h14.18c-0.01-0.49-0.11-0.95-0.4-1.33c-0.34-0.44-0.88-0.66-1.42-0.76
				c-0.54-0.09-1.1-0.07-1.65-0.1c-1.35-0.07-2.67-0.45-3.85-1.11c-0.61-0.34-1.19-0.77-1.85-1.01l-3.87,0.1
				c-0.53,0.57-0.87,1.32-1.03,2.08C72.46,216.12,72.45,216.83,72.49,217.54z"/>
			<path class="st18" d="M44.87,217.54h14.18c-0.01-0.49-0.11-0.95-0.4-1.33c-0.34-0.44-0.88-0.66-1.42-0.76
				c-0.54-0.09-1.1-0.07-1.65-0.1c-1.35-0.07-2.67-0.45-3.85-1.11c-0.61-0.34-1.19-0.77-1.85-1.01l-3.87,0.1
				c-0.53,0.57-0.87,1.32-1.03,2.08C44.85,216.12,44.83,216.83,44.87,217.54z"/>
			<path class="st14" d="M78.26,213.27l-1.54-43.71c0,0-0.05-0.78-0.07-0.9l-3.78-30.34c-0.26-3.81-30.5,2.23-30.5,2.23l3.39,72.84
				l5-0.16l7.06-59.48l8.47,16.78l6.86,42.86L78.26,213.27z"/>
			<g>
				<g>
					<path class="st19" d="M87.14,107.23c-0.83,0-1.51,0.47-1.57,1.06c-0.21,1.74-0.5,3.47-0.99,5.04c-0.12,0.39-0.25,0.77-0.4,1.14
						c-0.04,0.1-0.07,0.16-0.1,0.23l-0.1,0.21c-0.07,0.13-0.13,0.24-0.19,0.35c-0.27,0.45-0.58,0.85-0.96,1.13s-0.85,0.43-1.32,0.37
						c-0.46-0.06-0.88-0.28-1.22-0.55c-0.17-0.13-0.32-0.28-0.46-0.42c-0.07-0.08-0.13-0.15-0.2-0.23l-0.09-0.12l-0.17-0.19
						c-0.49-0.54-0.96-1.14-1.41-1.79c-0.45-0.65-0.88-1.33-1.3-2.04c-0.41-0.71-0.8-1.45-1.18-2.19c-0.75-1.5-1.44-3.06-2.06-4.66
						c-1.26-3.19-2.32-6.5-3.23-9.87c-0.32-1.06-1.21-1.81-2.39-2.19c-1.17-0.38-2.65-0.39-4.11,0.11l0,0
						c-1.47,0.49-2.63,1.4-3.3,2.48c-0.67,1.07-0.85,2.31-0.36,3.42c1.63,3.44,3.42,6.82,5.45,10.11c1.01,1.64,2.1,3.26,3.28,4.84
						c1.18,1.57,2.45,3.11,3.92,4.57c0.74,0.73,1.52,1.43,2.4,2.1l0.34,0.25l0.43,0.31c0.29,0.21,0.6,0.39,0.9,0.58
						c0.15,0.1,0.31,0.17,0.46,0.26c0.16,0.08,0.31,0.17,0.47,0.24c0.32,0.14,0.63,0.29,0.95,0.4c0.32,0.12,0.65,0.21,0.97,0.3
						c0.33,0.07,0.65,0.14,0.98,0.17c0.66,0.07,1.32,0.07,1.96-0.05c1.29-0.22,2.47-0.91,3.35-1.84c0.9-0.93,1.51-2.11,1.95-3.32
						c0.1-0.31,0.2-0.62,0.29-0.92l0.11-0.44c0.04-0.15,0.07-0.3,0.09-0.42c0.1-0.51,0.18-1.01,0.24-1.51
						c0.24-1.99,0.21-3.9,0.1-5.78C88.64,107.72,87.96,107.22,87.14,107.23L87.14,107.23z"/>
				</g>
				<path class="st20" d="M64.11,114.05l-4.56-12.32c-1.38-3.73,0.23-7.88,3.95-9.26l0,0c3.73-1.38,8.16,0.53,9.54,4.26l4.56,12.32
					L64.11,114.05z"/>
			</g>
			<path class="st20" d="M54.94,88.95L54.94,88.95c7.69-1.17,14.73,4.49,15.25,12.24l2.69,37.13c-11.97,6.76-19.41,5.13-30.5,2.23
				l-1.26-34.92C40.82,97.37,46.76,90.2,54.94,88.95z"/>
			<path class="st21" d="M41.24,109.15h-0.41l0.61,16.96h0.42L41.24,109.15z M72.43,126.43l-0.41,0.03l0.86,11.87
				c-11.34,6.4-18.61,5.28-28.79,2.67l0.01,0.43c4.79,1.22,8.68,2.05,12.74,2.05c5.35,0,10.36-1.48,16.23-4.79l0.23-0.13
				L72.43,126.43z M56.96,88.8c6.86,0,12.76,5.32,13.23,12.4l0.82,11.37h0.41l-0.82-11.39C70.12,94,64.13,88.39,56.96,88.39
				c-0.69,0-1.39,0.05-2.08,0.16c-0.05,0.01-0.1,0.01-0.15,0.02L54.7,89c0.08-0.01,0.16-0.03,0.24-0.04
				C55.62,88.85,56.29,88.8,56.96,88.8z"/>
			<g>
				<path class="st12" d="M142.02,95.99l-66.8,89.63c-1.74,2.33-5.03,2.81-7.36,1.07L27.7,156.76c-2.33-1.74-2.81-5.03-1.07-7.36
					l66.8-89.63c1.74-2.33,5.03-2.81,7.36-1.07l40.16,29.93C143.28,90.36,143.76,93.66,142.02,95.99z"/>
				<g>
					<ellipse class="st22" cx="98.91" cy="78.17" rx="7.75" ry="7.75"/>
					
						<rect x="35.73" y="141.18" transform="matrix(0.5976 -0.8018 0.8018 0.5976 -93.3509 99.901)" class="st22" width="34.24" height="3.55"/>
					
						<rect x="53.74" y="143.03" transform="matrix(0.5976 -0.8018 0.8018 0.5976 -78.3183 133.5562)" class="st22" width="80.32" height="3.55"/>
					
						<rect x="56.77" y="159.84" transform="matrix(0.5976 -0.8018 0.8018 0.5976 -102.2375 119.5101)" class="st22" width="22.34" height="3.55"/>
					
						<rect x="72.3" y="138.1" transform="matrix(0.5976 -0.8018 0.8018 0.5976 -78.2955 123.7536)" class="st22" width="23.69" height="3.55"/>
					
						<rect x="88.9" y="115.83" transform="matrix(0.5976 -0.8018 0.8018 0.5976 -53.7564 128.1027)" class="st22" width="23.69" height="3.55"/>
					
						<rect x="105.77" y="94.1" transform="matrix(0.5976 -0.8018 0.8018 0.5976 -29.813 132.3373)" class="st22" width="22.34" height="3.55"/>
					
						<rect x="46.99" y="149.95" transform="matrix(0.5976 -0.8018 0.8018 0.5976 -99.4178 109.4166)" class="st22" width="24.62" height="7.61"/>
				</g>
			</g>
			<g>
				<path class="st23" d="M78.15,142.17c-1.87-1.2-3.72-2.41-5.54-3.65c-1.81-1.24-3.59-2.51-5.26-3.85
					c-1.67-1.33-3.22-2.74-4.55-4.24c-1.33-1.5-2.42-3.1-3.28-4.8c-0.84-1.72-1.45-3.56-1.92-5.51c-0.47-1.95-0.79-3.99-1.03-6.08
					c-0.06-0.53-0.13-1.04-0.17-1.58l-0.15-1.59c-0.08-1.07-0.17-2.14-0.23-3.23c-0.14-2.16-0.23-4.35-0.32-6.55
					c-0.17-2.78-2.86-4.86-5.95-4.55l0,0c-3.08,0.32-5.29,2.93-4.84,5.76c0.42,2.22,0.84,4.44,1.31,6.69
					c0.23,1.12,0.49,2.25,0.74,3.37l0.41,1.69c0.13,0.56,0.29,1.13,0.44,1.7c0.61,2.27,1.32,4.56,2.23,6.84s2.05,4.55,3.5,6.64
					c1.46,2.09,3.21,3.96,5.09,5.53c1.88,1.58,3.86,2.89,5.86,4.06s4.03,2.21,6.06,3.21s4.06,1.94,6.1,2.86
					c0.69,0.32,1.53,0,1.92-0.73l0,0C78.97,143.45,78.78,142.57,78.15,142.17z"/>
				<path class="st20" d="M45.42,117.55l-1.72-13.02c-0.52-3.94,1.96-7.63,5.9-8.15l0,0c3.94-0.52,7.84,2.33,8.37,6.27l1.72,13.02
					L45.42,117.55z"/>
				<path class="st21" d="M58.37,102.59c-0.5-3.75-3.94-6.69-7.84-6.69c-0.33,0-0.67,0.02-0.99,0.06c-1.82,0.24-3.42,1.13-4.58,2.54
					h0.55c1.03-1.12,2.43-1.91,4.08-2.12c3.94-0.52,7.85,2.33,8.37,6.26l0.05,0.34h0.42L58.37,102.59z M59.13,108.34h-0.42
					l0.97,7.32l-5.76,0.76v0.42l6.22-0.82L59.13,108.34z M43.91,106.17H43.5l1.57,11.84l2.47-0.33v-0.42l-2.11,0.28L43.91,106.17z"
					/>
			</g>
			<g>
				<g>
					<path class="st23" d="M60.07,85.08l-1.19,9.37c-2.2,1.06-4.24,0.81-6.11-0.78l1.19-9.37L60.07,85.08z"/>
					<path class="st19" d="M60.07,85.08l-0.54,4.24c-0.45,0.11-0.92,0.16-1.41,0.14c-0.16-0.01-0.31-0.02-0.46-0.04
						c-1.68-0.21-3.16-1.19-4.02-2.6l0.32-2.52L60.07,85.08z"/>
					<path class="st23" d="M63.57,79.7l-0.65,3.9l-0.26,1.58c-0.36,2.19-2.3,3.76-4.51,3.67c-0.73-0.03-1.43-0.22-2.06-0.55
						c-0.14-0.08-0.29-0.16-0.42-0.25c-0.08-0.05-0.17-0.11-0.25-0.17c-0.77-0.58-1.38-1.38-1.7-2.34c-0.27-0.8-0.51-1.68-0.73-2.61
						c-0.13-0.53-0.24-1.07-0.36-1.62c-0.5-2.43,0.33-4.98,2.26-6.54c1.64-1.33,3.52-1.57,5.66-0.64
						C62.72,75.07,63.96,77.37,63.57,79.7z"/>
				</g>
				<path d="M64.8,80.89c0.45-0.36,0.55-1.09,0.54-1.71s-0.08-1.28,0.2-1.84c0.35-0.71,1.17-1.05,1.38-1.82
					c0.2-0.76-0.3-1.43-0.76-1.93c-1.23-1.33-2.45-2.67-3.68-4c-0.5-0.55-1.02-1.1-1.65-1.41c-0.64-0.3-1.43-0.32-2.04,0.18
					c-0.32,0.26-0.56,0.64-0.89,0.89c-0.74,0.55-1.64,0.25-2.44,0.02c-0.99-0.28-2.07-0.42-3.05,0.07
					c-0.99,0.49-1.81,1.76-1.62,2.96c0.09,0.57,0.38,1.03,0.6,1.54c0.22,0.5,0.37,1.12,0.16,1.67c-0.28,0.74-1.03,1.02-1.61,1.44
					c-0.83,0.6-1.42,1.67-1.55,2.78s0.21,2.24,0.89,2.93c0.59,0.6,1.6,0.8,2.17,0.07c0.66-0.84,0.43-2.44,1.28-2.94
					c1.03-0.6,2.04,1.34,3.05,0.72c0.54-0.34,0.69-1.22,1.17-1.68c0.63-0.61,1.47-0.26,2.1-0.02c0.69,0.26,1.35,0.41,2.06,0.54
					c0.65,0.12,1.15,0.42,1.68,0.87C63.32,80.67,64.05,81.44,64.8,80.89z"/>
				<path class="st23" d="M55.66,81.59c-0.14,1.12-1.28,1.91-2.55,1.75c-1.26-0.16-2.17-1.2-2.03-2.33s1.28-1.91,2.55-1.75
					C54.89,79.42,55.8,80.46,55.66,81.59z"/>
			</g>
		</g>
	</g>
</g>
<g>
	<g>
		<g>
			<path class="st24" d="M161.92,160.81c-18,0-32.65-14.65-32.65-32.65s14.65-32.65,32.65-32.65s32.65,14.65,32.65,32.65
				S179.92,160.81,161.92,160.81z"/>
			<path class="st3" d="M161.92,96.01c17.76,0,32.15,14.39,32.15,32.15s-14.39,32.15-32.15,32.15s-32.15-14.39-32.15-32.15
				C129.77,110.41,144.16,96.01,161.92,96.01 M161.92,95.01c-18.28,0-33.15,14.87-33.15,33.15s14.87,33.15,33.15,33.15
				s33.15-14.87,33.15-33.15S180.2,95.01,161.92,95.01L161.92,95.01z"/>
		</g>
		<path class="st3" d="M155,143.33c14.08,0,21.78-11.67,21.78-21.79c0-0.33-0.01-0.66-0.02-0.99c1.5-1.08,2.8-2.43,3.82-3.96
			c-1.37,0.61-2.85,1.02-4.4,1.21c1.58-0.95,2.79-2.45,3.37-4.24c-1.48,0.88-3.12,1.52-4.86,1.86c-1.4-1.49-3.38-2.42-5.59-2.42
			c-4.23,0-7.65,3.43-7.65,7.65c0,0.6,0.07,1.18,0.2,1.75c-6.36-0.32-12.01-3.37-15.78-8c-0.66,1.13-1.04,2.44-1.04,3.85
			c0,2.66,1.35,5,3.41,6.37c-1.26-0.04-2.44-0.38-3.47-0.96c0,0.03,0,0.07,0,0.1c0,3.71,2.64,6.81,6.14,7.51
			c-0.64,0.17-1.32,0.27-2.01,0.27c-0.49,0-0.97-0.05-1.44-0.14c0.98,3.05,3.8,5.26,7.15,5.32c-2.62,2.05-5.92,3.28-9.51,3.28
			c-0.62,0-1.22-0.04-1.83-0.11C146.65,142.06,150.67,143.33,155,143.33"/>
	</g>
</g>
</svg>
