<?xml version="1.0" encoding="utf-8"?>
<!-- Generator: Adobe Illustrator 25.2.1, SVG Export Plug-In . SVG Version: 6.00 Build 0)  -->
<svg version="1.1" id="Layer_1" xmlns="http://www.w3.org/2000/svg" xmlns:xlink="http://www.w3.org/1999/xlink" x="0px" y="0px"
	 viewBox="0 0 300 220" style="enable-background:new 0 0 300 220;" xml:space="preserve">
<style type="text/css">
	.st0{opacity:0.4;}
	.st1{fill:url(#SVGID_1_);}
	.st2{fill:#F5BDC8;}
	.st3{fill:#EA8096;}
	.st4{fill:#3F9BD6;}
	.st5{fill:#F8D006;}
	.st6{opacity:0.2;}
	.st7{fill:#EAC666;}
	.st8{fill:#FFD766;}
	.st9{fill:#D03938;}
	.st10{fill:#FFFFFF;}
	.st11{fill:#0979B7;}
	.st12{fill:#84A9FF;}
</style>
<g>
	<g class="st0">
		<g>
			<linearGradient id="SVGID_1_" gradientUnits="userSpaceOnUse" x1="19.9063" y1="109.784" x2="275.1552" y2="109.784">
				<stop  offset="0" style="stop-color:#F0F0FB"/>
				<stop  offset="1" style="stop-color:#D2D7F6"/>
			</linearGradient>
			<path class="st1" d="M275.16,161.89c0-72.41-85.26-54.34-129.37-115.45S70.79-2.51,53.76,8.84c-40.8,27.2-6.86,83.23-7.62,103.6
				c-0.76,20.37-34.55,29.56-24.3,73.64c2.67,11.48,15.69,33.89,31.44,33.89L219.99,220C258.93,220,275.16,186.38,275.16,161.89z"/>
		</g>
	</g>
	<g>
		<g>
			<g>
				<g>
					<g>
						<g>
							<g>
								<g>
									<path d="M232.58,215.86c0.23-0.29,0.6-0.45,0.96-0.51c0.37-0.06,0.74-0.05,1.11-0.06c0.91-0.04,1.81-0.3,2.6-0.75
										c0.41-0.23,0.8-0.52,1.25-0.68l2.61,0.07c0.36,0.38,0.59,0.89,0.7,1.41c0.1,0.47,0.11,0.95,0.08,1.43v0.54h-9.57v-0.54h0
										C232.32,216.43,232.39,216.12,232.58,215.86z"/>
								</g>
							</g>
						</g>
					</g>
				</g>
			</g>
		</g>
		<g>
			<g>
				<g>
					<g>
						<g>
							<g>
								<g>
									<polygon class="st2" points="241.44,211.03 241.11,213.92 238.5,213.86 238.33,211.18 									"/>
								</g>
							</g>
						</g>
					</g>
				</g>
			</g>
		</g>
		<g>
			<g>
				<g>
					<g>
						<g>
							<g>
								<g>
									<path d="M207.09,214.83c0.26-0.27,0.64-0.38,1.01-0.4c0.37-0.02,0.74,0.04,1.11,0.06c0.91,0.06,1.83-0.1,2.67-0.46
										c0.44-0.18,0.85-0.42,1.32-0.54l2.59,0.36c0.31,0.42,0.48,0.95,0.53,1.48c0.05,0.48,0,0.96-0.08,1.43l-0.06,0.54
										l-9.51-1.08l0.06-0.54l0,0C206.76,215.36,206.86,215.06,207.09,214.83z"/>
								</g>
							</g>
						</g>
					</g>
				</g>
			</g>
		</g>
		<g>
			<g>
				<g>
					<g>
						<g>
							<g>
								<g>
									<path d="M243.73,168.93c0.55-10.1,0.45-24.41-2.28-32.47c-0.02-0.15-21.17,1.75-21.17,1.75l-4.93,20.3
										c-1.74,7.14-2.58,14.47-2.52,21.82l0.26,30.46l3.57,0.23l6.61-40.34c2.46-4.79,5.1-10.3,7.14-15.68l7.69,56.17l3.57-0.17
										C241.66,211.02,243.73,168.96,243.73,168.93L243.73,168.93z"/>
								</g>
							</g>
						</g>
					</g>
				</g>
			</g>
		</g>
		<g>
			<g>
				<g>
					<g>
						<g>
							<g>
								<g>
									<polygon class="st2" points="216.43,211.01 215.78,213.86 213.19,213.5 213.32,210.81 									"/>
								</g>
							</g>
						</g>
					</g>
				</g>
			</g>
		</g>
		<g>
			<g>
				<g>
					<g>
						<g>
							<g>
								<g>
									<g>
										<g>
											<path class="st3" d="M209.57,65.03c0.7-0.05,1.32,0.42,1.41,1.08c0.61,3.9,1.38,7.76,2.36,11.53
												c0.99,3.77,2.19,7.47,3.64,11.02c1.46,3.55,3.16,6.97,5.12,10.2c0.98,1.61,2.03,3.18,3.13,4.7
												c0.28,0.38,0.55,0.76,0.84,1.13l0.86,1.11c0.59,0.73,1.17,1.45,1.79,2.15c0.19,0.23,0.34,0.47,0.47,0.73
												c0.13,0.25,0.23,0.52,0.31,0.79c0.15,0.55,0.18,1.13,0.11,1.7c-0.14,1.15-0.7,2.31-1.7,3.16c-1,0.85-2.24,1.2-3.45,1.05
												c-0.61-0.07-1.19-0.28-1.73-0.6c-0.27-0.16-0.52-0.35-0.76-0.57c-0.24-0.22-0.44-0.48-0.63-0.75
												c-0.58-0.88-1.13-1.79-1.68-2.7l-0.79-1.37c-0.26-0.46-0.51-0.93-0.76-1.39c-0.99-1.86-1.91-3.75-2.74-5.68
												c-1.66-3.85-2.99-7.81-4.01-11.8c-1.02-4-1.74-8.04-2.22-12.08c-0.48-4.04-0.72-8.08-0.79-12.1
												C208.34,65.65,208.87,65.08,209.57,65.03z"/>
										</g>
									</g>
								</g>
							</g>
						</g>
					</g>
				</g>
			</g>
			<g>
				<g>
					<g>
						<g>
							<g>
								<g>
									<g>
										<path class="st4" d="M214.06,104.06l5.86,8.71c1.77,2.63,5.21,3.53,7.85,1.76l0,0c2.63-1.77,3.47-5.54,1.69-8.18
											l-5.86-8.71L214.06,104.06z"/>
									</g>
								</g>
							</g>
						</g>
					</g>
				</g>
			</g>
		</g>
		<g>
			<g>
				<g>
					<g>
						<g>
							<g>
								<g>
									<path class="st4" d="M231.76,102.33L231.76,102.33c-7.99-0.08-14.18,6.96-13.08,14.87l1.6,21.01
										c8.87,3.21,15.47,1.46,21.17-1.75l0.96-22.35C242.97,107.83,238.06,102.4,231.76,102.33z"/>
								</g>
							</g>
						</g>
					</g>
				</g>
			</g>
		</g>
		<g>
			<g>
				<g>
					<g>
						<g>
							<g>
								<g>
									<path d="M240.64,106.74l-0.16,0.18c0.87,1.24,1.49,2.66,1.78,4.19l0.23-0.02C242.19,109.53,241.56,108.04,240.64,106.74z
										 M231.8,139.78v0.23c1.95-0.22,3.87-0.7,5.82-1.46l-0.07-0.22C235.75,139.03,233.84,139.54,231.8,139.78z M236.38,103.17
										c-1.43-0.68-3.01-1.05-4.62-1.07h-0.14c-3.85,0-7.5,1.67-10.03,4.57c-1.47,1.68-2.46,3.69-2.94,5.81l0.22,0.05
										c1.31-5.81,6.53-10.26,12.89-10.2c1.65,0.02,3.2,0.4,4.58,1.07L236.38,103.17z M220.08,135.56
										c-0.07,0.04-0.15,0.08-0.22,0.12l0.21,2.7l0.14,0.05c1.99,0.72,3.95,1.22,5.86,1.48v-0.23c-1.82-0.26-3.74-0.73-5.78-1.47
										L220.08,135.56z M218.45,117.28l0.81,10.59h0.23l-0.81-10.59H218.45z"/>
								</g>
							</g>
						</g>
					</g>
				</g>
			</g>
		</g>
		<g>
			<g>
				<g>
					<g>
						<g>
							<g>
								<g>
									<path d="M233.71,87.75c0,0,5.52,1.29,4.15,7.42c-0.92,4.1-3.89,6.18-8.19,6.88L233.71,87.75z"/>
								</g>
							</g>
						</g>
					</g>
				</g>
			</g>
		</g>
		<g>
			<g>
				<g>
					<g>
						<g>
							<g>
								<g>
									<g>
										<path class="st2" d="M227.95,98.07l0.42,6.33c1.8,1.04,3.54,0.95,5.22-0.27l-0.42-6.33L227.95,98.07z"/>
									</g>
								</g>
							</g>
						</g>
					</g>
				</g>
			</g>
			<g>
				<g>
					<g>
						<g>
							<g>
								<g>
									<g>
										<path class="st3" d="M227.99,98.8l0.1,1.99c0.81,0.43,1.73,0.66,2.69,0.66c0.05,0,0.11,0,0.16-0.01
											c0.9-0.05,1.76-0.44,2.35-1.08l-0.1-1.83L227.99,98.8z"/>
									</g>
								</g>
							</g>
						</g>
					</g>
				</g>
			</g>
			<g>
				<g>
					<g>
						<g>
							<g>
								<g>
									<g>
										<path class="st2" d="M225.39,90.65l0.36,4.66l0.08,1.03c0.22,2.58,2.39,4.55,4.97,4.54c0.26,0,0.52-0.04,0.78-0.11
											c0.1-0.03,0.19-0.06,0.29-0.1c0.02-0.01,0.04-0.02,0.06-0.03c0.36-0.16,0.7-0.4,0.97-0.71c0.59-0.68,0.95-1.42,1.29-2.18
											c0.29-0.66,0.55-1.32,0.74-1.98c0.22-0.79,0.32-1.6,0.22-2.45l-0.35-4.08l-7.96-0.6L225.39,90.65z"/>
									</g>
								</g>
							</g>
						</g>
					</g>
				</g>
			</g>
			<g>
				<g>
					<g>
						<g>
							<g>
								<g>
									<g>
										<path d="M233.58,89.46c0,0-9.1,0.57-7.31,8.56c0,0-2.86-5.79,0.05-9.67c3.21-4.27,7.49-2.87,9.02-0.83
											c1.52,2.04,2.66,5.43-1.58,7.85C233.76,95.37,235.19,92.34,233.58,89.46z"/>
									</g>
								</g>
							</g>
						</g>
					</g>
				</g>
			</g>
			<g>
				<g>
					<g>
						<g>
							<g>
								<g>
									<g>
										<circle class="st2" cx="235.29" cy="94.23" r="1.9"/>
									</g>
								</g>
							</g>
						</g>
					</g>
				</g>
			</g>
		</g>
	</g>
	<g>
		<g>
			<g>
				<g>
					<g>
						<g>
							<g>
								<g>
									<g>
										<path class="st5" d="M94.99,211.82l-2.19,5.48H62.13c-2.14,0-3.8-1.86-3.56-3.98l5.8-52.29l0.07-0.61l24.26,0.75
											l-0.05,0.36l-0.67,5.15l-4.78,36.43L94.99,211.82z"/>
									</g>
								</g>
							</g>
						</g>
					</g>
				</g>
			</g>
			<g>
				<g>
					<g>
						<g>
							<g>
								<g>
									<g>
										<polygon points="43.35,120.74 43.35,146.96 60.62,151.89 60.62,115.81 										"/>
									</g>
								</g>
							</g>
						</g>
					</g>
				</g>
			</g>
			<g>
				<g>
					<g>
						<g>
							<g>
								<g>
									<g>
										<g>
											<path class="st4" d="M104.93,108.82v45.85H61.19c-3.74,0-6.87-2.61-7.67-6.11v0c-0.13-0.56-0.2-1.15-0.2-1.75v-30.12
												c0-4.35,3.52-7.86,7.86-7.86H104.93z"/>
										</g>
									</g>
								</g>
							</g>
						</g>
					</g>
				</g>
			</g>
			<g>
				<g>
					<g>
						<g>
							<g>
								<g>
									<g>
										<g>
											<path class="st4" d="M98.14,154.67l-3.68,7.94l-0.95,2.06c-0.82,1.76-2.76,2.7-4.65,2.25l-0.9-0.22l-11.38-2.73
												l-12.22-2.93L64,160.95c-1.28-0.31-2.18-1.45-2.18-2.76v-3.52H98.14z"/>
										</g>
									</g>
								</g>
							</g>
						</g>
					</g>
				</g>
			</g>
			<g>
				<g>
					<g>
						<g>
							<g>
								<g>
									<g>
										<path d="M86.46,178.37l-2.14,16.14h1.33c2.52,0,4.65-1.87,4.99-4.37l0.81-6.08C91.84,181.05,89.5,178.37,86.46,178.37z"/>
									</g>
								</g>
							</g>
						</g>
					</g>
				</g>
			</g>
		</g>
		<g>
			<g>
				<g>
					<g>
						<g>
							<g>
								<g>
									<g>
										<path class="st5" d="M172.11,76.35v110.7c-3.91-3.36-7.89-6.5-11.94-9.4c-0.27-0.19-0.53-0.38-0.8-0.57
											c-0.53-0.37-1.06-0.75-1.6-1.11c-0.27-0.19-0.53-0.37-0.8-0.55c-0.27-0.18-0.53-0.36-0.8-0.54
											c-0.27-0.18-0.53-0.36-0.8-0.53c-0.81-0.53-1.62-1.06-2.43-1.57c-0.23-0.15-0.46-0.29-0.7-0.44
											c-0.85-0.53-1.71-1.05-2.57-1.56c-0.27-0.16-0.55-0.33-0.82-0.48c-0.22-0.13-0.44-0.26-0.67-0.39
											c-0.98-0.57-1.97-1.12-2.96-1.66c-0.28-0.15-0.56-0.3-0.84-0.46c-0.34-0.18-0.69-0.37-1.03-0.55
											c-0.35-0.18-0.69-0.36-1.04-0.54c-0.04-0.02-0.07-0.04-0.11-0.06c-0.66-0.34-1.31-0.66-1.97-0.99
											c-0.35-0.17-0.7-0.34-1.05-0.51c-1.04-0.5-2.09-0.98-3.14-1.45c-0.03-0.01-0.05-0.02-0.08-0.04
											c-0.34-0.15-0.67-0.3-1.01-0.44c-0.36-0.16-0.71-0.31-1.06-0.46c-0.77-0.32-1.54-0.64-2.31-0.95
											c-0.24-0.1-0.48-0.19-0.73-0.29c-0.63-0.25-1.27-0.49-1.9-0.73c-0.15-0.06-0.3-0.11-0.46-0.17
											c-0.09-0.03-0.18-0.07-0.27-0.1c-0.61-0.23-1.23-0.44-1.85-0.66c-1.54-0.53-3.08-1.03-4.64-1.5
											c-0.24-0.07-0.48-0.14-0.72-0.21c-0.76-0.23-1.53-0.44-2.3-0.65c-0.26-0.07-0.52-0.14-0.78-0.21
											c-0.06-0.02-0.11-0.03-0.17-0.05c-0.22-0.06-0.43-0.11-0.65-0.17c-0.25-0.07-0.5-0.13-0.75-0.19
											c-0.37-0.09-0.74-0.18-1.11-0.27c-0.38-0.09-0.76-0.18-1.14-0.27c-0.38-0.09-0.75-0.17-1.13-0.25
											c-0.34-0.07-0.68-0.15-1.02-0.22c-0.09-0.02-0.18-0.04-0.27-0.05c-0.27-0.05-0.53-0.11-0.8-0.16
											c-1.1-0.22-2.21-0.42-3.33-0.6c-0.25-0.04-0.49-0.08-0.74-0.12c-0.01,0-0.02,0-0.04-0.01c-0.3-0.05-0.6-0.09-0.91-0.14
											c-0.31-0.05-0.62-0.09-0.94-0.14c-0.88-1.77-1.64-3.56-2.3-5.37c-4.6-12.65-3.83-26.14,2.3-40.48
											c19.24-1.23,37.32-8.3,54.24-21.23C163.56,84.24,167.88,80.49,172.11,76.35z"/>
									</g>
								</g>
							</g>
						</g>
					</g>
				</g>
			</g>
			<g>
				<g>
					<g>
						<g>
							<g>
								<g>
									<g>
										<g>
											<path class="st5" d="M193.53,131.7c0,30.57-9.59,55.35-21.42,55.35c-4.42,0-8.53-3.46-11.94-9.4
												c-5.71-9.94-9.47-26.81-9.47-45.94c0-9.41,0.91-18.28,2.51-26.04c1.46-7.08,3.51-13.25,5.97-18.07
												c3.59-7.05,8.07-11.24,12.94-11.24C183.94,76.35,193.53,101.13,193.53,131.7z"/>
										</g>
									</g>
								</g>
							</g>
						</g>
					</g>
				</g>
				<g class="st6">
					<g>
						<g>
							<g>
								<g>
									<g>
										<g>
											<path d="M191.15,131.7c0,6.28-0.39,12.29-1.09,17.84c-0.43,3.41-0.98,6.64-1.64,9.65c-0.11,0.52-0.23,1.04-0.35,1.54
												c-0.96,4.06-2.12,7.7-3.43,10.77c-2.93,6.86-6.64,10.96-10.66,10.96c-6.74,0-12.58-11.48-15.39-28.19
												c-0.25-1.5-0.48-3.05-0.68-4.63c-0.05-0.36-0.09-0.73-0.14-1.1c-0.01-0.12-0.03-0.23-0.04-0.35
												c-0.07-0.58-0.13-1.17-0.19-1.76c-0.48-4.66-0.73-9.6-0.73-14.73c0-5.97,0.35-11.7,0.99-17.02v0
												c2.37-19.66,8.72-33.74,16.19-33.74C183.46,80.93,191.15,103.66,191.15,131.7z"/>
										</g>
									</g>
								</g>
							</g>
						</g>
					</g>
				</g>
				<g>
					<g>
						<g>
							<g>
								<g>
									<g>
										<g>
											<g>
												<path class="st7" d="M188.07,160.73c-0.96,4.06-2.12,7.7-3.43,10.77l-26.05-17.23c-0.25-1.5-0.48-3.05-0.68-4.63
													L188.07,160.73z"/>
											</g>
										</g>
									</g>
								</g>
							</g>
						</g>
					</g>
					<g>
						<g>
							<g>
								<g>
									<g>
										<g>
											<g>
												<path class="st7" d="M190.06,149.54c-0.43,3.41-0.98,6.64-1.64,9.65l-30.69-11c-0.07-0.58-0.13-1.17-0.19-1.76
													L190.06,149.54z"/>
											</g>
										</g>
									</g>
								</g>
							</g>
						</g>
					</g>
				</g>
				<g>
					<g>
						<g>
							<g>
								<g>
									<g>
										<g>
											<path d="M175.71,120.04v23.31c-11.25-0.35-17.94,5.2-17.94,5.2l0-0.01c-0.62-5.27-0.97-10.94-0.97-16.84
												c0-5.97,0.35-11.7,0.99-17.02v0C163.78,122.07,175.71,120.04,175.71,120.04z"/>
										</g>
									</g>
								</g>
							</g>
						</g>
					</g>
				</g>
				<g>
					<g>
						<g>
							<g>
								<g>
									<g>
										<g>
											<ellipse class="st5" cx="175.71" cy="131.7" rx="5.68" ry="11.66"/>
										</g>
									</g>
								</g>
							</g>
						</g>
					</g>
				</g>
			</g>
		</g>
		<g class="st6">
			<g>
				<g>
					<g>
						<g>
							<g>
								<g>
									<path d="M104.93,154.67H61.19c-3.74,0-6.87-2.61-7.67-6.11v0c0,0,8.49-0.21,34.38,0c4.71,0.04,9.71,0.36,14.73,0.75
										C103.29,151.1,104.05,152.89,104.93,154.67z"/>
								</g>
							</g>
						</g>
					</g>
				</g>
			</g>
		</g>
		<g class="st6">
			<g>
				<g>
					<g>
						<g>
							<g>
								<g>
									<path d="M160.17,177.64c-0.27-0.19-0.53-0.38-0.8-0.57c-0.53-0.37-1.06-0.75-1.6-1.11c-0.27-0.18-0.53-0.37-0.8-0.55
										c-0.27-0.18-0.53-0.36-0.8-0.54c-0.27-0.18-0.54-0.36-0.8-0.53c-0.81-0.53-1.62-1.06-2.43-1.57
										c-0.23-0.15-0.46-0.29-0.7-0.44c-0.85-0.53-1.71-1.05-2.57-1.56c-0.27-0.16-0.55-0.32-0.82-0.48
										c-0.22-0.13-0.44-0.26-0.67-0.39c-0.98-0.57-1.97-1.12-2.96-1.66c-0.28-0.15-0.56-0.31-0.84-0.46
										c-0.34-0.19-0.69-0.37-1.03-0.55c-0.35-0.18-0.69-0.36-1.04-0.54c-0.04-0.02-0.07-0.04-0.11-0.06
										c-0.66-0.34-1.31-0.67-1.97-0.99c-0.35-0.17-0.7-0.34-1.05-0.51c-1.04-0.5-2.08-0.98-3.14-1.45
										c-0.03-0.01-0.05-0.02-0.08-0.04c-0.34-0.15-0.67-0.3-1.01-0.44c-0.36-0.16-0.71-0.31-1.06-0.46
										c-0.77-0.32-1.54-0.64-2.31-0.95c-0.24-0.1-0.48-0.19-0.73-0.29c-0.63-0.25-1.27-0.49-1.9-0.73
										c-0.15-0.06-0.3-0.11-0.46-0.17c-0.09-0.03-0.18-0.07-0.27-0.1c-0.61-0.23-1.23-0.44-1.85-0.66
										c-1.54-0.53-3.08-1.03-4.64-1.5c-0.24-0.07-0.48-0.14-0.72-0.21c-0.76-0.23-1.53-0.44-2.3-0.65
										c-0.26-0.07-0.52-0.14-0.78-0.21c-0.06-0.02-0.11-0.03-0.17-0.05c-0.22-0.06-0.43-0.11-0.65-0.17
										c-0.25-0.07-0.5-0.13-0.75-0.19c-0.37-0.09-0.74-0.18-1.11-0.27c-0.38-0.09-0.76-0.18-1.14-0.27
										c-0.38-0.09-0.75-0.17-1.13-0.25c-0.34-0.07-0.68-0.15-1.02-0.22c-0.09-0.02-0.18-0.04-0.27-0.05
										c-0.27-0.05-0.53-0.11-0.8-0.16c-1.1-0.22-2.21-0.42-3.33-0.6c-0.25-0.04-0.49-0.08-0.74-0.12c-0.01,0-0.02,0-0.04-0.01
										c-0.3-0.05-0.6-0.1-0.91-0.14c-0.31-0.05-0.62-0.09-0.94-0.14c-0.88-1.77-1.64-3.56-2.3-5.37c0.77,0.06,1.53,0.12,2.3,0.18
										c21.85,1.76,43.38,4.19,42.58-10.3c-0.52-9.41,2.57-22.76,5.7-33.52c-1.6,7.76-2.51,16.63-2.51,26.04
										C150.69,150.84,154.45,167.71,160.17,177.64z"/>
								</g>
							</g>
						</g>
					</g>
				</g>
			</g>
		</g>
		<g class="st6">
			<g>
				<g>
					<g>
						<g>
							<g>
								<g>
									<path d="M76.58,163.96c-3.93,2.38-7.31,6.76-8.97,14.41c-5.6,25.7-9.44,35.85-3,38.93h-2.48c-2.14,0-3.8-1.86-3.56-3.98
										l5.8-52.29L76.58,163.96z"/>
								</g>
							</g>
						</g>
					</g>
				</g>
			</g>
		</g>
		<g class="st6">
			<g>
				<g>
					<g>
						<g>
							<g>
								<g>
									<path d="M98.14,154.67l-3.68,7.94c-1.6-0.44-3.62-0.88-5.83-1.06c-3.81-0.33-8.2,0.08-12.06,2.42l-12.22-2.93L64,160.95
										c-1.28-0.31-2.18-1.45-2.18-2.76v-3.52H98.14z"/>
								</g>
							</g>
						</g>
					</g>
				</g>
			</g>
		</g>
		<g>
			<g>
				<g>
					<g>
						<g>
							<g>
								<g>
									<path class="st8" d="M110.89,110.39c-2.5,0.17-4.66,1.79-5.54,4.13c-1.17,3.11-2.34,7.48-1.48,11.1
										c1.23,5.2,4.06,2.84,4.79-1.87c1.04-6.68-0.68-8.99,8.31-10.35c8.99-1.36,16.96-6.45,22.39-10.18
										C139.37,103.22,125.42,109.4,110.89,110.39z"/>
								</g>
							</g>
						</g>
					</g>
				</g>
			</g>
		</g>
	</g>
	<g>
		<g>
			<g>
				<g>
					<g>
						<g>
							<g>
								<g>
									<polygon class="st9" points="47.93,191.7 38.77,186.03 76.13,125.75 187.73,125.75 214.64,69.59 224.35,74.24 
										194.52,136.52 82.13,136.52 									"/>
								</g>
							</g>
						</g>
					</g>
				</g>
			</g>
		</g>
		<g>
			<g>
				<g>
					<g>
						<g>
							<g>
								<g>
									<g>
										<polygon class="st5" points="231.99,83.13 229.51,51 202.92,69.2 										"/>
									</g>
								</g>
							</g>
						</g>
					</g>
				</g>
			</g>
		</g>
	</g>
	<g>
		<g>
			<g>
				<g>
					<g>
						<g>
							<g>
								<g>
									<g>
										<path class="st2" d="M186.85,118.5c0.09-0.69,0.67-1.21,1.34-1.17c3.94,0.18,7.88,0.2,11.77-0.01
											c3.9-0.21,7.75-0.65,11.53-1.36c3.77-0.72,7.46-1.71,11.02-2.97c1.78-0.64,3.52-1.35,5.23-2.13
											c0.42-0.2,0.85-0.39,1.27-0.59l1.26-0.62c0.83-0.43,1.66-0.86,2.47-1.33c0.26-0.14,0.53-0.24,0.81-0.32
											c0.27-0.08,0.55-0.13,0.83-0.14c0.56-0.03,1.14,0.05,1.69,0.23c1.1,0.36,2.12,1.15,2.76,2.3
											c0.63,1.15,0.73,2.44,0.34,3.59c-0.19,0.58-0.51,1.11-0.94,1.57c-0.21,0.23-0.45,0.44-0.71,0.63
											c-0.26,0.19-0.56,0.34-0.87,0.47c-0.98,0.4-1.98,0.75-2.98,1.1l-1.5,0.5c-0.5,0.17-1.01,0.31-1.51,0.47
											c-2.02,0.6-4.06,1.12-6.11,1.55c-4.1,0.85-8.25,1.36-12.37,1.57c-4.12,0.2-8.23,0.1-12.28-0.24
											c-4.05-0.34-8.06-0.92-12.01-1.65C187.22,119.83,186.76,119.19,186.85,118.5z"/>
									</g>
								</g>
							</g>
						</g>
					</g>
				</g>
			</g>
		</g>
		<g>
			<g>
				<g>
					<g>
						<g>
							<g>
								<g>
									<path class="st4" d="M226.15,122.05l9.71-4c2.94-1.21,4.5-4.4,3.29-7.34l0,0c-1.21-2.94-4.74-4.5-7.68-3.29l-9.71,4
										L226.15,122.05z"/>
								</g>
							</g>
						</g>
					</g>
				</g>
			</g>
		</g>
		<g>
			<g>
				<g>
					<g>
						<g>
							<g>
								<g>
									<path d="M239.79,112.48c-0.03-0.64-0.17-1.26-0.42-1.86c-0.6-1.46-1.81-2.67-3.31-3.33c-0.25-0.11-0.5-0.2-0.75-0.27
										l-0.04,0.23c1.7,0.51,3.18,1.75,3.88,3.46c0.91,2.21,0.25,4.56-1.38,6.1l0.19,0.13
										C239.18,115.77,239.87,114.16,239.79,112.48z M235.95,118.26c0.03-0.01,0.06-0.03,0.1-0.04l-0.25-0.15l-2.92,1.2l0.11,0.2
										L235.95,118.26z M231.91,119.92l-0.18-0.18l-2.73,1.13l0.13,0.2L231.91,119.92z M227.74,121.64l-0.13-0.2l-1.46,0.6
										l-3.36-8.16l-0.22,0.07l3.46,8.39L227.74,121.64z M230.07,107.74l-7.07,2.91l0.07,0.22l7.13-2.94L230.07,107.74z"/>
								</g>
							</g>
						</g>
					</g>
				</g>
			</g>
		</g>
	</g>
	<g>
		<g>
			<g>
				<g>
					<g>
						<g>
							<g>
								<g>
									<g>
										<g>
											<path class="st9" d="M69.84,61.12c-14.8,0-26.78,11.98-26.78,26.78c0,14.8,11.98,26.78,26.78,26.78
												c14.8,0,26.78-11.98,26.78-26.78C96.62,73.1,84.64,61.12,69.84,61.12z M69.84,110.85c-8.5,0-15.92-4.61-19.88-11.47
												C48,96,46.89,92.08,46.89,87.9s1.12-8.11,3.07-11.48c3.97-6.86,11.38-11.47,19.88-11.47c8.5,0,15.92,4.61,19.88,11.47
												c1.95,3.38,3.07,7.3,3.07,11.48s-1.12,8.1-3.07,11.48C85.76,106.24,78.34,110.85,69.84,110.85z"/>
										</g>
									</g>
								</g>
							</g>
						</g>
					</g>
				</g>
				<g>
					<g>
						<g>
							<g>
								<g>
									<g>
										<g>
											<path class="st10" d="M89.72,76.42c-3.97-6.86-11.38-11.47-19.88-11.47c-8.5,0-15.92,4.61-19.88,11.47
												c-1.95,3.38-3.07,7.3-3.07,11.48S48,96,49.95,99.38c3.97,6.86,11.38,11.47,19.88,11.47c8.5,0,15.92-4.61,19.88-11.47
												c1.95-3.38,3.07-7.3,3.07-11.48S91.68,79.79,89.72,76.42z M86.41,97.46c-3.3,5.72-9.48,9.56-16.57,9.56
												c-7.09,0-13.27-3.84-16.57-9.56c-1.63-2.81-2.56-6.08-2.56-9.57s0.93-6.75,2.56-9.57c3.31-5.72,9.48-9.56,16.57-9.56
												c7.09,0,13.27,3.84,16.57,9.56c1.63,2.81,2.56,6.08,2.56,9.57S88.04,94.65,86.41,97.46z"/>
										</g>
									</g>
								</g>
							</g>
						</g>
					</g>
				</g>
				<g>
					<g>
						<g>
							<g>
								<g>
									<g>
										<g>
											<path class="st9" d="M86.41,78.33c-3.3-5.72-9.48-9.56-16.57-9.56c-7.09,0-13.27,3.84-16.57,9.56
												c-1.63,2.81-2.56,6.08-2.56,9.57s0.93,6.75,2.56,9.57c3.31,5.72,9.48,9.56,16.57,9.56c7.09,0,13.27-3.84,16.57-9.56
												c1.63-2.81,2.56-6.08,2.56-9.57S88.04,81.14,86.41,78.33z M83.1,95.55c-2.64,4.57-7.59,7.65-13.26,7.65
												c-5.67,0-10.61-3.07-13.26-7.65c-1.3-2.25-2.05-4.86-2.05-7.65c0-2.79,0.75-5.4,2.05-7.66
												c2.64-4.57,7.59-7.65,13.26-7.65c5.67,0,10.61,3.07,13.26,7.65c1.3,2.25,2.05,4.86,2.05,7.65
												C85.14,90.69,84.4,93.3,83.1,95.55z"/>
										</g>
									</g>
								</g>
							</g>
						</g>
					</g>
				</g>
				<g>
					<g>
						<g>
							<g>
								<g>
									<g>
										<g>
											<path class="st10" d="M83.1,80.24c-2.64-4.57-7.59-7.65-13.26-7.65c-5.67,0-10.61,3.07-13.26,7.65
												c-1.3,2.25-2.05,4.87-2.05,7.66c0,2.79,0.74,5.4,2.05,7.65c2.64,4.57,7.59,7.65,13.26,7.65c5.67,0,10.61-3.07,13.26-7.65
												c1.3-2.25,2.05-4.86,2.05-7.65C85.14,85.11,84.4,82.49,83.1,80.24z M79.78,93.64c-1.98,3.43-5.69,5.74-9.94,5.74
												c-4.25,0-7.96-2.31-9.94-5.74c-0.97-1.69-1.53-3.65-1.53-5.74c0-2.09,0.56-4.05,1.53-5.74c1.98-3.43,5.69-5.74,9.94-5.74
												c4.25,0,7.96,2.31,9.94,5.74c0.98,1.69,1.53,3.65,1.53,5.74C81.32,89.99,80.76,91.95,79.78,93.64z"/>
										</g>
									</g>
								</g>
							</g>
						</g>
					</g>
				</g>
				<g>
					<g>
						<g>
							<g>
								<g>
									<g>
										<g>
											<path class="st9" d="M79.78,82.16c-1.98-3.43-5.69-5.74-9.94-5.74c-4.25,0-7.96,2.31-9.94,5.74
												c-0.97,1.69-1.53,3.65-1.53,5.74c0,2.09,0.56,4.05,1.53,5.74c1.98,3.43,5.69,5.74,9.94,5.74c4.25,0,7.96-2.31,9.94-5.74
												c0.98-1.69,1.53-3.65,1.53-5.74C81.32,85.81,80.76,83.84,79.78,82.16z M76.47,91.72c-1.32,2.29-3.79,3.82-6.63,3.82
												c-2.83,0-5.31-1.54-6.63-3.82c-0.65-1.13-1.02-2.43-1.02-3.83c0-1.39,0.37-2.7,1.02-3.83c1.32-2.29,3.79-3.83,6.63-3.83
												c2.83,0,5.31,1.54,6.63,3.83c0.65,1.13,1.02,2.43,1.02,3.83C77.49,89.29,77.12,90.6,76.47,91.72z"/>
										</g>
									</g>
								</g>
							</g>
						</g>
					</g>
				</g>
				<g>
					<g>
						<g>
							<g>
								<g>
									<g>
										<g>
											<path class="st10" d="M76.47,84.07c-1.32-2.29-3.79-3.83-6.63-3.83c-2.84,0-5.31,1.54-6.63,3.83
												c-0.65,1.13-1.02,2.43-1.02,3.83c0,1.4,0.37,2.7,1.02,3.83c1.32,2.29,3.79,3.82,6.63,3.82c2.83,0,5.31-1.54,6.63-3.82
												c0.65-1.13,1.02-2.43,1.02-3.83C77.49,86.5,77.12,85.2,76.47,84.07z M69.84,91.72c-1.42,0-2.65-0.77-3.31-1.91
												c-0.33-0.56-0.51-1.21-0.51-1.91c0-0.7,0.18-1.35,0.51-1.91c0.66-1.14,1.89-1.91,3.31-1.91c1.42,0,2.65,0.77,3.31,1.91
												c0.33,0.56,0.51,1.22,0.51,1.91c0,0.7-0.19,1.35-0.51,1.91C72.49,90.95,71.26,91.72,69.84,91.72z"/>
										</g>
									</g>
								</g>
							</g>
						</g>
					</g>
				</g>
			</g>
			<g>
				<g>
					<g>
						<g>
							<g>
								<g>
									<g>
										<g>
											<path class="st9" d="M73.66,87.9c0,0.7-0.19,1.35-0.51,1.91c-0.66,1.14-1.9,1.91-3.31,1.91c-1.42,0-2.65-0.77-3.31-1.91
												c-0.33-0.56-0.51-1.21-0.51-1.91c0-0.7,0.18-1.35,0.51-1.91c0.66-1.14,1.89-1.91,3.31-1.91c1.42,0,2.65,0.77,3.31,1.91
												C73.48,86.55,73.66,87.2,73.66,87.9z"/>
										</g>
									</g>
								</g>
							</g>
						</g>
					</g>
				</g>
			</g>
		</g>
		<g>
			<g>
				<g>
					<g>
						<g>
							<g>
								<g>
									<g>
										<g>
											<g>
												<g>
													<polygon points="87.73,70.06 92.47,71.55 96.68,67.35 92.34,65.45 													"/>
												</g>
											</g>
										</g>
									</g>
								</g>
							</g>
						</g>
					</g>
				</g>
			</g>
			<g>
				<g>
					<g>
						<g>
							<g>
								<g>
									<g>
										<g>
											<g>
												<g>
													<polygon points="87.73,70.06 86.25,65.31 90.45,61.12 92.34,65.45 													"/>
												</g>
											</g>
										</g>
									</g>
								</g>
							</g>
						</g>
					</g>
				</g>
			</g>
			<g>
				<g>
					<g>
						<g>
							<g>
								<g>
									<g>
										<g>
											<g>
												<g>
													<g>
														<path class="st4" d="M92.34,66.35l-22.4,22.21l-0.84-0.83l22.42-22.22c0.21-0.21,0.55-0.23,0.78-0.04
															C92.57,65.69,92.59,66.1,92.34,66.35z"/>
													</g>
												</g>
											</g>
										</g>
									</g>
								</g>
							</g>
						</g>
					</g>
				</g>
			</g>
		</g>
	</g>
	<g>
		<g>
			<g>
				<g>
					<g>
						<g>
							<g>
								<g>
									<polygon class="st11" points="207.12,47.06 188.9,54.42 186.36,60.7 192.1,57.65 191.12,55.62 									"/>
								</g>
							</g>
						</g>
					</g>
				</g>
			</g>
		</g>
		<g>
			<g>
				<g>
					<g>
						<g>
							<g>
								<g>
									<polygon class="st4" points="188.9,54.42 181.78,49.8 207.12,47.06 									"/>
								</g>
							</g>
						</g>
					</g>
				</g>
			</g>
		</g>
		<g>
			<g>
				<g>
					<g>
						<g>
							<g>
								<g>
									<polygon class="st4" points="191.12,55.62 195.11,63.84 207.12,47.06 									"/>
								</g>
							</g>
						</g>
					</g>
				</g>
			</g>
		</g>
	</g>
	<g>
		<g>
			<g>
				<g>
					<g>
						<g>
							<g>
								<path class="st12" d="M105.72,96.53l-0.15-0.66c0.1-0.02,0.2-0.05,0.3-0.07l0.16,0.65
									C105.92,96.49,105.82,96.51,105.72,96.53z M108.64,95.7l-0.22-0.64c0.82-0.28,1.66-0.61,2.48-0.97l0.27,0.62
									C110.33,95.08,109.48,95.41,108.64,95.7z M113.62,93.53l-0.31-0.6c0.76-0.4,1.55-0.84,2.33-1.32l0.35,0.58
									C115.19,92.68,114.4,93.13,113.62,93.53z M118.26,90.73l-0.38-0.56c0.71-0.48,1.44-1.01,2.18-1.56l0.4,0.54
									C119.72,89.71,118.98,90.24,118.26,90.73z M122.6,87.5l-0.42-0.53c0.66-0.53,1.34-1.09,2.07-1.71l0.43,0.52
									C123.95,86.41,123.27,86.97,122.6,87.5z M126.74,84.03l-0.44-0.51c0.67-0.58,1.33-1.16,2-1.74l0.03-0.03l0.44,0.51
									l-0.03,0.03C128.07,82.87,127.41,83.45,126.74,84.03z M130.8,80.49l-0.44-0.51c0.76-0.66,1.43-1.23,2.05-1.75l0.43,0.52
									C132.23,79.26,131.56,79.83,130.8,80.49z M134.92,77.04l-0.42-0.53c0.63-0.5,1.24-0.98,1.83-1.43
									c0.1-0.08,0.2-0.15,0.31-0.23l0.4,0.54c-0.1,0.08-0.2,0.15-0.3,0.23C136.16,76.07,135.54,76.54,134.92,77.04z M139.22,73.84
									l-0.38-0.56c0.74-0.51,1.5-1.01,2.26-1.49l0.36,0.57C140.71,72.84,139.96,73.34,139.22,73.84z M143.75,70.98l-0.34-0.58
									c0.78-0.45,1.57-0.89,2.37-1.31l0.32,0.59C145.31,70.09,144.52,70.53,143.75,70.98z M148.49,68.47l-0.29-0.61
									c0.81-0.39,1.63-0.77,2.46-1.13l0.27,0.62C150.11,67.7,149.29,68.08,148.49,68.47z M153.4,66.31l-0.25-0.63
									c0.83-0.33,1.69-0.65,2.53-0.95l0.22,0.63C155.07,65.67,154.23,65.99,153.4,66.31z M158.45,64.53l-0.2-0.64
									c0.86-0.27,1.73-0.52,2.6-0.76l0.18,0.65C160.17,64.01,159.3,64.26,158.45,64.53z M163.63,63.12l-0.15-0.66
									c0.88-0.2,1.77-0.39,2.65-0.56l0.13,0.66C165.38,62.73,164.49,62.92,163.63,63.12z M168.89,62.1l-0.1-0.67
									c0.89-0.14,1.79-0.26,2.68-0.37l0.08,0.67C170.66,61.84,169.77,61.96,168.89,62.1z M174.21,61.47l-0.05-0.67
									c0.9-0.07,1.8-0.13,2.7-0.16l0.03,0.67C176,61.35,175.1,61.4,174.21,61.47z M182.25,61.3c-0.82-0.03-1.64-0.04-2.46-0.04
									l-0.22,0l0-0.67l0.22,0c0.83,0,1.66,0.01,2.49,0.04L182.25,61.3z"/>
							</g>
						</g>
					</g>
				</g>
			</g>
		</g>
	</g>
</g>
<path d="M298.5,220H1.5c-0.83,0-1.5-0.67-1.5-1.5l0,0c0-0.83,0.67-1.5,1.5-1.5h297c0.83,0,1.5,0.67,1.5,1.5l0,0
	C300,219.33,299.33,220,298.5,220z"/>
</svg>
