<?xml version="1.0" encoding="utf-8"?>
<!-- Generator: Adobe Illustrator 25.2.1, SVG Export Plug-In . SVG Version: 6.00 Build 0)  -->
<svg version="1.1" id="Layer_1" xmlns="http://www.w3.org/2000/svg" xmlns:xlink="http://www.w3.org/1999/xlink" x="0px" y="0px"
	 viewBox="0 0 300 220" style="enable-background:new 0 0 300 220;" xml:space="preserve">
<style type="text/css">
	.st0{opacity:0.4;}
	.st1{fill:url(#SVGID_1_);}
	.st2{fill:#3F9BD6;}
	.st3{fill:none;stroke:#D03938;stroke-width:0.5;stroke-miterlimit:10;}
	.st4{fill:#E5E6EB;}
	.st5{fill:#F8D006;}
	.st6{opacity:0.2;}
	.st7{fill:#EAC666;}
	.st8{fill:#FFD766;}
	.st9{fill:#1E1E1E;}
	.st10{fill:#EA8096;}
	.st11{fill:#FFFFFF;}
	.st12{fill:#F5BDC8;}
	.st13{fill:#D03938;}
	.st14{fill:#155BCC;}
	.st15{fill:#F4BCC7;}
	.st16{fill:#0979B7;}
</style>
<g>
	<g class="st0">
		<linearGradient id="SVGID_1_" gradientUnits="userSpaceOnUse" x1="2.9591" y1="122.6647" x2="297.1102" y2="122.6647">
			<stop  offset="0" style="stop-color:#F0F0FB"/>
			<stop  offset="1" style="stop-color:#D2D7F6"/>
		</linearGradient>
		<path class="st1" d="M3.46,190.56c2.13,13,10.25,22.66,17.05,28.94c92.2,0,184.4,0,276.6,0c-41.12-12.1-54.13-29.11-58.68-41.88
			c-9.68-27.16,13.39-50.65,0.65-83.21c-6.19-15.83-17.35-24.85-26.57-32.3c-54.73-44.24-158.68-48.9-182.91-9.09
			c-13.75,22.58,10.11,39.87-6.06,81.46C14.46,157.84,0.09,169.99,3.46,190.56z"/>
	</g>
</g>
<path d="M298.5,220H1.5c-0.83,0-1.5-0.67-1.5-1.5l0,0c0-0.83,0.67-1.5,1.5-1.5h297c0.83,0,1.5,0.67,1.5,1.5l0,0
	C300,219.33,299.33,220,298.5,220z"/>
<g>
	<g>
		<g>
			<g>
				<path class="st2" d="M34.37,53.05l-0.34-0.34c0.38-0.37,0.77-0.75,1.15-1.11l0.33,0.35C35.13,52.31,34.74,52.68,34.37,53.05z"/>
			</g>
		</g>
		<g>
			<g>
				<path class="st2" d="M59.35,172.05c-0.96-0.45-1.92-0.93-2.87-1.43l0.22-0.42c0.93,0.49,1.89,0.97,2.84,1.41L59.35,172.05z
					 M53.69,169.06c-0.91-0.54-1.83-1.11-2.72-1.69l0.26-0.4c0.89,0.58,1.79,1.14,2.7,1.68L53.69,169.06z M48.34,165.56
					c-0.86-0.62-1.72-1.27-2.55-1.93l0.3-0.38c0.83,0.66,1.68,1.3,2.53,1.92L48.34,165.56z M43.32,161.58
					c-0.8-0.7-1.6-1.42-2.37-2.15l0.33-0.35c0.77,0.73,1.56,1.45,2.35,2.14L43.32,161.58z M38.68,157.18
					c-0.74-0.76-1.47-1.55-2.17-2.35l0.36-0.32c0.7,0.79,1.43,1.58,2.16,2.33L38.68,157.18z M34.44,152.39
					c-0.67-0.83-1.33-1.68-1.96-2.53l0.39-0.29c0.63,0.85,1.28,1.69,1.95,2.51L34.44,152.39z M30.63,147.25
					c-0.59-0.88-1.18-1.79-1.73-2.69l0.41-0.25c0.55,0.9,1.13,1.8,1.72,2.67L30.63,147.25z M27.29,141.79
					c-0.52-0.93-1.02-1.88-1.49-2.83l0.43-0.21c0.47,0.94,0.97,1.89,1.48,2.81L27.29,141.79z M24.43,136.06
					c-0.43-0.97-0.85-1.97-1.23-2.95l0.45-0.17c0.38,0.98,0.79,1.97,1.22,2.93L24.43,136.06z M22.11,130.1
					c-0.34-1.01-0.66-2.03-0.96-3.05l0.46-0.13c0.29,1.01,0.61,2.03,0.95,3.03L22.11,130.1z M20.34,123.95
					c-0.25-1.04-0.47-2.09-0.66-3.13l0.47-0.09c0.19,1.03,0.41,2.08,0.66,3.11L20.34,123.95z M29.93,118.66
					c-0.44,0-0.89-0.02-1.33-0.06l0.04-0.48c1.05,0.09,2.11,0.07,3.13-0.06l0.06,0.48C31.21,118.62,30.57,118.66,29.93,118.66z
					 M25.43,117.99c-1.02-0.3-2.03-0.71-2.99-1.21l0.22-0.43c0.94,0.49,1.92,0.88,2.91,1.18L25.43,117.99z M34.98,117.73l-0.17-0.45
					c0.96-0.37,1.9-0.86,2.77-1.45l0.27,0.4C36.93,116.84,35.97,117.35,34.98,117.73z M19.17,117.66c-0.06-0.47-0.12-0.95-0.18-1.43
					c-0.07-0.6-0.13-1.19-0.17-1.76l0.17-0.01c-0.58-0.5-1.14-1.03-1.65-1.6l0.36-0.32c0.7,0.77,1.48,1.49,2.31,2.13l-0.29,0.38
					c-0.13-0.1-0.26-0.2-0.39-0.31c0.04,0.46,0.09,0.95,0.15,1.44c0.05,0.47,0.11,0.95,0.18,1.42L19.17,117.66z M40.32,114.16
					l-0.34-0.33c0.73-0.76,1.38-1.59,1.93-2.47l0.41,0.25C41.75,112.52,41.08,113.38,40.32,114.16z M18.66,111.27
					c0-0.11,0-0.22,0-0.33c0-1,0.04-1.96,0.13-2.88l0.48,0.04c-0.08,0.9-0.12,1.85-0.12,2.83c0,0.11,0,0.22,0,0.33L18.66,111.27z
					 M15.4,110.28c-0.1-0.17-0.21-0.35-0.31-0.53c-0.42-0.75-0.8-1.55-1.12-2.37l0.45-0.18c0.32,0.8,0.68,1.57,1.1,2.31
					c0.1,0.17,0.2,0.34,0.3,0.51L15.4,110.28z M43.69,108.67l-0.46-0.15c0.33-1.01,0.53-2.04,0.59-3.06l0.48,0.03
					C44.24,106.56,44.03,107.63,43.69,108.67z M19.75,104.99l-0.47-0.1c0.22-0.98,0.51-1.94,0.85-2.83c0.03-0.08,0.06-0.17,0.1-0.25
					l0.45,0.18c-0.03,0.08-0.06,0.16-0.09,0.24C20.24,103.1,19.96,104.03,19.75,104.99z M13.02,104.31c-0.23-1.01-0.4-2.08-0.5-3.18
					l0.48-0.04c0.1,1.08,0.27,2.12,0.49,3.12L13.02,104.31z M43.56,102.37c-0.23-0.99-0.61-1.97-1.12-2.91l0.42-0.23
					c0.53,0.97,0.93,1.99,1.17,3.03L43.56,102.37z M22.1,99.19l-0.4-0.26c0.59-0.92,1.27-1.77,2.01-2.53l0.34,0.33
					C23.33,97.47,22.68,98.29,22.1,99.19z M12.87,97.93l-0.48-0.01c0.02-1.03,0.08-2.11,0.2-3.2l0.48,0.05
					C12.95,95.84,12.89,96.91,12.87,97.93z M40.61,96.93c-0.71-0.77-1.52-1.45-2.38-2.02l0.26-0.4c0.9,0.59,1.73,1.3,2.47,2.1
					L40.61,96.93z M26.47,94.75l-0.26-0.4c0.94-0.6,1.93-1.06,2.94-1.36l0.14,0.46C28.33,93.74,27.37,94.18,26.47,94.75z
					 M35.43,93.54c-1.01-0.33-2.04-0.51-3.06-0.53l0.01-0.48c1.07,0.02,2.14,0.21,3.2,0.56L35.43,93.54z M13.51,91.62l-0.47-0.08
					c0.18-1.01,0.41-2.07,0.66-3.13l0.47,0.11C13.91,89.57,13.69,90.62,13.51,91.62z M14.99,85.45l-0.46-0.13
					c0.3-1.02,0.62-2.04,0.96-3.05l0.45,0.15C15.61,83.42,15.29,84.44,14.99,85.45z M17.04,79.43l-0.45-0.17
					c0.38-0.99,0.79-1.98,1.22-2.96l0.44,0.19C17.83,77.46,17.42,78.45,17.04,79.43z M19.59,73.61l-0.43-0.21
					c0.47-0.95,0.96-1.91,1.47-2.84l0.42,0.23C20.54,71.71,20.05,72.66,19.59,73.61z M22.62,68.02l-0.41-0.25
					c0.55-0.91,1.12-1.82,1.7-2.71l0.4,0.26C23.73,66.21,23.16,67.11,22.62,68.02z M26.11,62.7l-0.39-0.28
					c0.62-0.86,1.27-1.72,1.92-2.56l0.38,0.3C27.37,60.99,26.72,61.85,26.11,62.7z M30.03,57.7l-0.36-0.31
					c0.69-0.81,1.41-1.61,2.13-2.39l0.35,0.33C31.43,56.1,30.72,56.9,30.03,57.7z"/>
			</g>
		</g>
		<g>
			<g>
				<path class="st2" d="M63.8,173.93c-0.5-0.19-1-0.39-1.49-0.59l0.18-0.44c0.49,0.2,0.99,0.4,1.48,0.58L63.8,173.93z"/>
			</g>
		</g>
	</g>
	<g>
		<g>
			<g>
				<path class="st3" d="M115.01,50.47v58.61h80.63c0.13,7.26-11.33,12.29-11.33,12.29c8.04,0,13.8-2.22,17.75-4.77
					c4.65-3,7.42-8.2,7.42-13.74V50.47H115.01z"/>
			</g>
		</g>
		<g>
			<g>
				<path class="st4" d="M109.2,46.11v58.61h80.63c0.13,7.26-11.33,12.29-11.33,12.29c8.04,0,13.8-2.22,17.75-4.77
					c4.65-3,7.42-8.2,7.42-13.74V46.11H109.2z"/>
			</g>
		</g>
		<g>
			<g>
				<g>
					<circle cx="133.93" cy="75.42" r="4.01"/>
				</g>
			</g>
			<g>
				<g>
					<circle cx="156.44" cy="75.42" r="4.01"/>
				</g>
			</g>
			<g>
				<g>
					<circle cx="178.94" cy="75.42" r="4.01"/>
				</g>
			</g>
		</g>
	</g>
	<g>
		<g>
			<g>
				<g>
					<g>
						<g>
							<g>
								<g>
									<g>
										<path class="st5" d="M72.08,212.92l-1.86,4.66H44.15c-1.82,0-3.23-1.58-3.03-3.38l4.93-44.44l0.06-0.52l20.62,0.64
											l-0.04,0.31l-0.57,4.38l-4.06,30.96L72.08,212.92z"/>
									</g>
								</g>
							</g>
						</g>
					</g>
				</g>
			</g>
			<g>
				<g>
					<g>
						<g>
							<g>
								<g>
									<g>
										<polygon points="28.19,135.52 28.19,157.79 42.87,161.99 42.87,131.32 										"/>
									</g>
								</g>
							</g>
						</g>
					</g>
				</g>
			</g>
			<g>
				<g>
					<g>
						<g>
							<g>
								<g>
									<g>
										<g>
											<path class="st2" d="M80.52,125.38v38.96H43.35c-3.18,0-5.84-2.22-6.52-5.19v0c-0.11-0.48-0.17-0.98-0.17-1.49v-25.6
												c0-3.69,2.99-6.68,6.68-6.68H80.52z"/>
										</g>
									</g>
								</g>
							</g>
						</g>
					</g>
				</g>
			</g>
			<g>
				<g>
					<g>
						<g>
							<g>
								<g>
									<g>
										<g>
											<path class="st2" d="M74.75,164.34l-3.12,6.75l-0.81,1.75c-0.69,1.5-2.35,2.3-3.95,1.91l-0.77-0.18l-9.67-2.32
												l-10.39-2.49l-0.3-0.07c-1.09-0.26-1.85-1.23-1.85-2.35v-2.99H74.75z"/>
										</g>
									</g>
								</g>
							</g>
						</g>
					</g>
				</g>
			</g>
			<g>
				<g>
					<g>
						<g>
							<g>
								<g>
									<g>
										<path d="M64.82,184.49L63,198.21h1.13c2.14,0,3.96-1.59,4.24-3.71l0.68-5.17C69.4,186.76,67.4,184.49,64.82,184.49z"/>
									</g>
								</g>
							</g>
						</g>
					</g>
				</g>
			</g>
		</g>
		<g>
			<g>
				<g>
					<g>
						<g>
							<g>
								<g>
									<g>
										<path class="st5" d="M137.61,97.79v94.07c-3.32-2.86-6.7-5.52-10.15-7.99c-0.23-0.16-0.45-0.32-0.68-0.48
											c-0.45-0.32-0.9-0.63-1.36-0.95c-0.23-0.16-0.45-0.31-0.68-0.47c-0.23-0.16-0.45-0.31-0.68-0.46
											c-0.23-0.15-0.45-0.31-0.68-0.45c-0.69-0.45-1.37-0.9-2.07-1.33c-0.2-0.12-0.39-0.25-0.59-0.37
											c-0.72-0.45-1.45-0.9-2.18-1.33c-0.23-0.14-0.47-0.28-0.7-0.41c-0.19-0.11-0.38-0.22-0.57-0.33
											c-0.83-0.48-1.67-0.95-2.51-1.41c-0.24-0.13-0.47-0.26-0.72-0.39c-0.29-0.16-0.58-0.31-0.88-0.47
											c-0.29-0.15-0.59-0.31-0.88-0.46c-0.03-0.02-0.06-0.03-0.1-0.05c-0.56-0.28-1.12-0.56-1.68-0.84
											c-0.3-0.15-0.59-0.29-0.89-0.43c-0.88-0.42-1.77-0.83-2.66-1.23c-0.02-0.01-0.04-0.02-0.07-0.03
											c-0.29-0.13-0.57-0.25-0.86-0.38c-0.3-0.13-0.6-0.26-0.91-0.39c-0.65-0.28-1.31-0.55-1.96-0.81
											c-0.21-0.08-0.41-0.16-0.62-0.24c-0.54-0.21-1.08-0.42-1.62-0.62c-0.13-0.05-0.26-0.1-0.39-0.14
											c-0.07-0.03-0.15-0.06-0.23-0.08c-0.52-0.19-1.04-0.38-1.57-0.56c-1.31-0.45-2.62-0.88-3.94-1.27
											c-0.2-0.06-0.41-0.12-0.61-0.18c-0.65-0.19-1.3-0.37-1.95-0.55c-0.22-0.06-0.44-0.12-0.66-0.18
											c-0.05-0.01-0.1-0.03-0.15-0.04c-0.18-0.05-0.37-0.09-0.55-0.14c-0.21-0.06-0.43-0.11-0.64-0.16
											c-0.31-0.08-0.63-0.15-0.95-0.23c-0.32-0.08-0.65-0.15-0.97-0.23c-0.32-0.07-0.64-0.14-0.96-0.21
											c-0.29-0.06-0.58-0.12-0.87-0.18c-0.07-0.01-0.15-0.03-0.23-0.05c-0.23-0.05-0.45-0.09-0.68-0.14
											c-0.94-0.18-1.88-0.36-2.83-0.51c-0.21-0.04-0.42-0.07-0.63-0.1c-0.01,0-0.02,0-0.03-0.01c-0.26-0.04-0.51-0.08-0.77-0.12
											c-0.26-0.04-0.53-0.08-0.8-0.12c-0.74-1.51-1.4-3.03-1.96-4.56c-3.91-10.75-3.26-22.22,1.96-34.4
											c16.35-1.04,31.71-7.06,46.1-18.04C130.35,104.49,134.01,101.31,137.61,97.79z"/>
									</g>
								</g>
							</g>
						</g>
					</g>
				</g>
			</g>
			<g>
				<g>
					<g>
						<g>
							<g>
								<g>
									<g>
										<g>
											<path class="st5" d="M155.81,144.83c0,25.98-8.15,47.03-18.2,47.03c-3.76,0-7.25-2.94-10.15-7.99
												c-4.86-8.45-8.05-22.78-8.05-39.04c0-8,0.77-15.53,2.14-22.13c1.24-6.02,2.98-11.26,5.07-15.36
												c3.05-5.99,6.86-9.55,10.99-9.55C147.66,97.79,155.81,118.85,155.81,144.83z"/>
										</g>
									</g>
								</g>
							</g>
						</g>
					</g>
				</g>
				<g class="st6">
					<g>
						<g>
							<g>
								<g>
									<g>
										<g>
											<path d="M153.79,144.83c0,5.34-0.33,10.45-0.93,15.16c-0.37,2.89-0.84,5.64-1.4,8.2c-0.09,0.44-0.2,0.88-0.3,1.31
												c-0.82,3.45-1.8,6.54-2.91,9.15c-2.49,5.83-5.64,9.32-9.06,9.32c-5.73,0-10.69-9.76-13.08-23.96
												c-0.22-1.28-0.41-2.59-0.58-3.94c-0.04-0.31-0.08-0.62-0.12-0.93c-0.01-0.1-0.02-0.2-0.03-0.3c-0.06-0.5-0.11-1-0.16-1.5
												c-0.41-3.96-0.62-8.16-0.62-12.51c0-5.07,0.3-9.94,0.84-14.47v0c2.01-16.71,7.41-28.67,13.76-28.67
												C147.26,101.69,153.79,121,153.79,144.83z"/>
										</g>
									</g>
								</g>
							</g>
						</g>
					</g>
				</g>
				<g>
					<g>
						<g>
							<g>
								<g>
									<g>
										<g>
											<g>
												<path class="st7" d="M151.17,169.5c-0.82,3.45-1.8,6.54-2.91,9.15l-22.14-14.64c-0.22-1.28-0.41-2.59-0.58-3.94
													L151.17,169.5z"/>
											</g>
										</g>
									</g>
								</g>
							</g>
						</g>
					</g>
					<g>
						<g>
							<g>
								<g>
									<g>
										<g>
											<g>
												<path class="st7" d="M152.87,159.99c-0.37,2.89-0.84,5.64-1.4,8.2l-26.08-9.35c-0.06-0.5-0.11-1-0.16-1.5L152.87,159.99
													z"/>
											</g>
										</g>
									</g>
								</g>
							</g>
						</g>
					</g>
				</g>
				<g>
					<g>
						<g>
							<g>
								<g>
									<g>
										<g>
											<path d="M140.67,134.92v19.81c-9.56-0.29-15.25,4.42-15.25,4.42l0-0.01c-0.53-4.48-0.82-9.29-0.82-14.31
												c0-5.07,0.3-9.94,0.84-14.47v0C130.53,136.64,140.67,134.92,140.67,134.92z"/>
										</g>
									</g>
								</g>
							</g>
						</g>
					</g>
				</g>
				<g>
					<g>
						<g>
							<g>
								<g>
									<g>
										<g>
											<ellipse class="st5" cx="140.67" cy="144.83" rx="4.83" ry="9.91"/>
										</g>
									</g>
								</g>
							</g>
						</g>
					</g>
				</g>
			</g>
		</g>
		<g class="st6">
			<g>
				<g>
					<g>
						<g>
							<g>
								<g>
									<path d="M80.52,164.34H43.35c-3.18,0-5.84-2.22-6.52-5.19v0c0,0,7.21-0.18,29.22,0c4,0.03,8.25,0.3,12.52,0.63
										C79.12,161.32,79.78,162.84,80.52,164.34z"/>
								</g>
							</g>
						</g>
					</g>
				</g>
			</g>
		</g>
		<g class="st6">
			<g>
				<g>
					<g>
						<g>
							<g>
								<g>
									<path d="M127.46,183.87c-0.23-0.16-0.45-0.32-0.68-0.48c-0.45-0.32-0.9-0.63-1.36-0.95c-0.23-0.16-0.45-0.31-0.68-0.47
										c-0.23-0.15-0.45-0.31-0.68-0.46c-0.23-0.15-0.46-0.3-0.68-0.45c-0.69-0.45-1.37-0.9-2.07-1.33
										c-0.2-0.12-0.39-0.25-0.59-0.37c-0.72-0.45-1.45-0.9-2.18-1.33c-0.23-0.14-0.47-0.28-0.7-0.41
										c-0.19-0.11-0.38-0.22-0.57-0.33c-0.83-0.48-1.67-0.95-2.51-1.41c-0.24-0.13-0.48-0.26-0.72-0.39
										c-0.29-0.16-0.58-0.31-0.88-0.47c-0.29-0.15-0.59-0.31-0.88-0.46c-0.03-0.02-0.06-0.03-0.1-0.05
										c-0.56-0.28-1.12-0.57-1.68-0.84c-0.3-0.15-0.59-0.29-0.89-0.43c-0.88-0.42-1.77-0.84-2.66-1.23
										c-0.02-0.01-0.04-0.02-0.07-0.03c-0.29-0.13-0.57-0.26-0.86-0.38c-0.3-0.13-0.6-0.26-0.91-0.39
										c-0.65-0.28-1.31-0.55-1.96-0.81c-0.21-0.08-0.41-0.16-0.62-0.24c-0.54-0.21-1.08-0.42-1.62-0.62
										c-0.13-0.05-0.26-0.1-0.39-0.14c-0.07-0.03-0.15-0.06-0.23-0.08c-0.52-0.19-1.04-0.38-1.57-0.56
										c-1.31-0.45-2.62-0.88-3.94-1.27c-0.2-0.06-0.41-0.12-0.61-0.18c-0.65-0.19-1.3-0.37-1.95-0.55
										c-0.22-0.06-0.44-0.12-0.66-0.18c-0.05-0.01-0.1-0.03-0.15-0.04c-0.18-0.05-0.37-0.1-0.55-0.14
										c-0.21-0.06-0.43-0.11-0.64-0.16c-0.31-0.08-0.63-0.16-0.95-0.23c-0.32-0.08-0.65-0.15-0.97-0.23
										c-0.32-0.07-0.64-0.14-0.96-0.21c-0.29-0.06-0.58-0.12-0.87-0.18c-0.07-0.01-0.15-0.03-0.23-0.05
										c-0.23-0.05-0.45-0.09-0.68-0.14c-0.94-0.18-1.88-0.36-2.83-0.51c-0.21-0.04-0.42-0.07-0.63-0.1c-0.01,0-0.02,0-0.03-0.01
										c-0.26-0.04-0.51-0.08-0.77-0.12c-0.26-0.04-0.53-0.08-0.8-0.12c-0.74-1.51-1.4-3.03-1.96-4.56
										c0.65,0.05,1.3,0.1,1.96,0.16c18.57,1.49,36.87,3.56,36.19-8.75c-0.45-8,2.18-19.34,4.84-28.49
										c-1.36,6.6-2.14,14.13-2.14,22.13C119.41,161.09,122.6,175.42,127.46,183.87z"/>
								</g>
							</g>
						</g>
					</g>
				</g>
			</g>
		</g>
		<g class="st6">
			<g>
				<g>
					<g>
						<g>
							<g>
								<g>
									<path d="M56.43,172.24c-3.34,2.02-6.21,5.75-7.63,12.25c-4.76,21.84-8.02,30.47-2.55,33.08h-2.11
										c-1.82,0-3.23-1.58-3.03-3.38l4.93-44.44L56.43,172.24z"/>
								</g>
							</g>
						</g>
					</g>
				</g>
			</g>
		</g>
		<g class="st6">
			<g>
				<g>
					<g>
						<g>
							<g>
								<g>
									<path d="M74.75,164.34l-3.12,6.75c-1.36-0.38-3.07-0.75-4.95-0.9c-3.23-0.28-6.97,0.07-10.25,2.06l-10.39-2.49l-0.3-0.07
										c-1.09-0.26-1.85-1.23-1.85-2.35v-2.99H74.75z"/>
								</g>
							</g>
						</g>
					</g>
				</g>
			</g>
		</g>
		<g>
			<g>
				<g>
					<g>
						<g>
							<g>
								<g>
									<path class="st8" d="M85.59,126.71c-2.12,0.14-3.96,1.52-4.71,3.51c-0.99,2.64-1.98,6.36-1.26,9.43
										c1.04,4.42,3.45,2.41,4.07-1.59c0.88-5.68-0.58-7.64,7.06-8.79s14.42-5.48,19.03-8.65
										C109.79,120.62,97.93,125.88,85.59,126.71z"/>
								</g>
							</g>
						</g>
					</g>
				</g>
			</g>
		</g>
	</g>
	<g>
	</g>
	<g>
		<g>
			<g>
				<g>
					<path class="st9" d="M78.75,127.65l8.56,0.06c0-0.29-0.06-0.58-0.24-0.8c-0.2-0.26-0.53-0.4-0.85-0.46
						c-0.33-0.06-0.66-0.05-0.99-0.06c-0.81-0.05-1.61-0.28-2.32-0.69c-0.37-0.21-0.71-0.47-1.11-0.62l-2.33,0.05
						c-0.32,0.34-0.53,0.79-0.63,1.25C78.74,126.79,78.73,127.22,78.75,127.65z"/>
				</g>
			</g>
			<g>
				<g>
					<path class="st9" d="M59.77,127.66l8.56,0.05c0-0.29-0.06-0.58-0.24-0.8c-0.2-0.26-0.53-0.4-0.86-0.46
						c-0.33-0.06-0.66-0.04-0.99-0.06c-0.81-0.04-1.61-0.28-2.32-0.69c-0.37-0.21-0.71-0.47-1.11-0.61l-2.33,0.05
						c-0.32,0.34-0.53,0.79-0.63,1.25C59.76,126.8,59.74,127.23,59.77,127.66z"/>
				</g>
			</g>
			<g>
				<g>
					<path class="st9" d="M60.8,82.27c0,0,8.37-1.55,8.37-1.55l0,0c0.02,0.43,9.87-2.48,10.02-0.19c0,0,1.99,16.28,1.99,16.28
						c0.16,1.29,0.26,2.59,0.29,3.89l0.73,24.5l-2.99-0.02l-8.69-34.78l-7.29,34.69l-2.98,0.03L60.8,82.27z"/>
				</g>
			</g>
		</g>
		<g>
			<g>
				<g>
					<g>
						<path class="st10" d="M102.46,41.46l-1.22,1.34l1.51,1.15l0.98-1.52c0.26-0.38,0.2-0.88-0.14-1.14
							C103.25,41.03,102.76,41.11,102.46,41.46z"/>
					</g>
				</g>
			</g>
			<g>
				<g>
					<path class="st11" d="M102.87,44l-1.72-1.4c-1.68,1.82-3.38,3.6-5.19,5.12c-0.91,0.76-1.85,1.44-2.82,2.01
						c-0.97,0.57-1.98,1.04-3.02,1.37c-2.08,0.67-4.32,0.86-6.61,0.77c-1.15-0.05-2.31-0.17-3.47-0.32l-0.88-0.13l-0.88-0.15
						l-0.44-0.07l-0.44-0.08l-0.88-0.17c-0.04-0.01-0.09-0.02-0.13-0.02c-0.38-0.06-0.75-0.03-1.1,0.07
						c-0.35,0.1-0.68,0.25-0.98,0.47c-0.59,0.43-1.03,1.1-1.17,1.89l0,0.01c-0.14,0.81,0.08,1.6,0.55,2.21
						c0.47,0.62,1.2,1.03,2.05,1.12l0.97,0.07l0.49,0.03l0.49,0.02c0.33,0.01,0.65,0.03,0.98,0.04l0.98,0.02
						c1.32,0.02,2.64-0.01,3.98-0.11c1.34-0.11,2.69-0.3,4.04-0.61c1.34-0.31,2.68-0.75,3.94-1.34c1.27-0.58,2.45-1.32,3.53-2.15
						c1.08-0.83,2.06-1.74,2.95-2.7c0.9-0.95,1.72-1.94,2.51-2.94C101.38,46.03,102.13,45.01,102.87,44z"/>
				</g>
			</g>
			<g>
				<g>
					<g>
						<path class="st2" d="M78.48,51.31l-0.02-0.12l-0.17-0.03l-0.44-0.07l-1.32-0.25c-0.04-0.01-0.09-0.02-0.13-0.02
							c-0.38-0.06-0.77-0.03-1.15,0.07c-0.14,0.04-0.27,0.08-0.4,0.14l0.07,0.09c0.12-0.05,0.23-0.09,0.35-0.12
							c0.35-0.1,0.72-0.12,1.1-0.07c0.04,0.01,0.09,0.01,0.13,0.02l0.88,0.17l0.44,0.08l0.44,0.07L78.48,51.31z M83.37,51.86
							l-0.01-0.11c-0.75-0.04-1.54-0.1-2.4-0.2l0,0.11C81.76,51.75,82.57,51.82,83.37,51.86z M76.11,56.83l0.06-0.11l-0.44-0.03
							c-0.85-0.08-1.58-0.5-2.05-1.12c-0.47-0.61-0.69-1.4-0.55-2.21l0-0.01c0.11-0.61,0.39-1.14,0.79-1.55l-0.07-0.09
							c-0.43,0.44-0.72,1-0.83,1.62l0,0.01c-0.07,0.41-0.06,0.81,0.04,1.21c0.1,0.4,0.28,0.77,0.53,1.09
							c0.49,0.65,1.27,1.07,2.12,1.16L76.11,56.83z M89.24,55.84l-0.05-0.1c-0.51,0.16-1.02,0.29-1.53,0.41
							c-1.34,0.31-2.7,0.5-4.04,0.61c-1.34,0.1-2.67,0.13-3.98,0.11l-0.98-0.02c-0.01,0-0.01,0-0.02,0l0.02,0.11c0,0,0,0,0,0
							l0.99,0.02c1.47,0.02,2.78-0.02,3.99-0.11c1.47-0.12,2.8-0.32,4.05-0.62C88.22,56.14,88.73,56,89.24,55.84z M95.92,52.19
							c0.76-0.63,1.5-1.34,2.26-2.14c0.81-0.85,1.6-1.79,2.51-2.95c0.32-0.41,0.64-0.83,0.99-1.29l-0.14,0
							c-0.31,0.41-0.62,0.82-0.94,1.22c-0.79,1-1.61,1.99-2.51,2.94c-0.7,0.74-1.45,1.46-2.26,2.14
							C95.86,52.14,95.89,52.16,95.92,52.19z M96.72,47.05l-0.1-0.06c-0.24,0.22-0.49,0.43-0.74,0.64c-0.97,0.81-1.88,1.46-2.8,2
							c-1,0.59-2,1.04-3,1.36c-0.51,0.17-1.04,0.3-1.59,0.42l-0.01,0.11c0.55-0.11,1.1-0.25,1.63-0.43c1.04-0.33,2.05-0.8,3.02-1.37
							c0.97-0.57,1.91-1.26,2.82-2.01C96.21,47.49,96.47,47.27,96.72,47.05z M97.48,46.35c1.26-1.18,2.47-2.46,3.67-3.76l0.79,0.65
							c0.04-0.02,0.07-0.03,0.11-0.05l-0.92-0.75l-0.07,0.08c-1.11,1.2-2.35,2.52-3.67,3.76L97.48,46.35z"/>
					</g>
				</g>
			</g>
		</g>
		<g>
			<g>
				<path class="st11" d="M60.8,82.27c6.11,1.96,11.33,1.95,18.22-1.46l-0.27-18.48l-0.04-2.38l-0.02-0.87l-0.03-1.68
					c0-0.23-0.02-0.47-0.04-0.7c-0.29-2.8-2.13-5.11-4.61-6.11c-0.24-0.1-0.49-0.18-0.74-0.25c-0.86-0.25-1.79-0.34-2.74-0.25
					c-0.25,0.02-0.5,0.06-0.74,0.1c-0.53,0.09-1.04,0.23-1.53,0.42c-2.78,1.02-4.9,3.35-5.66,6.22c-0.18,0.69-0.28,1.41-0.3,2.15
					l0,0.23l-0.02,0.87l-0.02,1.1L60.8,82.27z"/>
			</g>
		</g>
		<g>
			<g>
				<g>
					<g>
						<path class="st12" d="M73.38,45.9l-0.06,5.55c-1.21,0.77-2.42,0.76-3.61-0.04l0.06-5.55L73.38,45.9z"/>
					</g>
				</g>
				<g>
					<g>
						<path class="st10" d="M73.38,45.9l-0.03,2.51c-0.25,0.1-0.53,0.16-0.81,0.18c-0.09,0.01-0.18,0.01-0.27,0.01
							c-0.99-0.01-1.92-0.48-2.52-1.24l0.02-1.49L73.38,45.9z"/>
					</g>
				</g>
				<g>
					<g>
						<path class="st12" d="M75.06,42.53l-0.11,2.32l-0.05,0.94c-0.06,1.3-1.09,2.35-2.38,2.44c-0.43,0.03-0.85-0.03-1.24-0.18
							c-0.09-0.03-0.18-0.07-0.26-0.12c-0.05-0.03-0.11-0.05-0.16-0.08c-0.49-0.28-0.9-0.71-1.15-1.25
							c-0.21-0.45-0.41-0.95-0.6-1.47c-0.11-0.3-0.21-0.61-0.32-0.92c-0.46-1.38-0.14-2.93,0.88-3.97c0.87-0.89,1.95-1.15,3.26-0.75
							C74.25,39.89,75.12,41.15,75.06,42.53z"/>
					</g>
				</g>
			</g>
			<g>
				<g>
					<g>
						<path class="st9" d="M68.6,43.44c-0.9-2.83,0.55-3.31,0.55-3.31c-0.02,0.01-0.04-0.36-0.04-0.4c0.01-0.14,0.05-0.28,0.11-0.4
							c0.43-0.91,1.39-0.77,2.23-0.77c0.47,0.01,0.85-0.12,1.19-0.45c0.36-0.34,0.58-0.79,0.98-1.08c0.62-0.44,1.52-0.14,1.94,0.44
							c0.1,0.14,0.17,0.29,0.22,0.46c0.24,0.86,0.14,1.93-0.44,2.64c-0.52,0.65-1.45,0.83-2.23,0.92c-0.26,0.03-0.52,0.05-0.77,0.07
							c-1.34,0.1-1.94-1-1.94-1c0.3,0.3,0.44,1.28,0.18,1.89c-0.26,0.61-0.01,1.71-0.01,1.71l-0.09-0.01
							C69.87,43.24,69.2,42.92,68.6,43.44z"/>
					</g>
				</g>
				<g>
					<g>
						<path class="st9" d="M74.55,41.15c0,0,0.39,1.14,0.44,2.86c0,0,0.45-1.9,0.04-3.22L74.55,41.15z"/>
					</g>
				</g>
			</g>
			<g>
				<g>
					<path class="st12" d="M70.57,44.17c-0.01,0.67-0.62,1.2-1.37,1.19c-0.75-0.01-1.35-0.55-1.34-1.22
						c0.01-0.67,0.62-1.2,1.37-1.19C69.98,42.95,70.58,43.5,70.57,44.17z"/>
				</g>
			</g>
		</g>
		<g>
			<g>
				<g>
					<path class="st2" d="M78.91,62.33l0-0.09l-0.15-0.03l0,0.12l0.18,12.32h0.15L78.91,62.33z M66.61,51.25
						c-2.03,1.23-3.54,3.21-4.15,5.55c-0.02,0.07-0.04,0.14-0.05,0.21l0.15,0.03c0.02-0.07,0.03-0.14,0.05-0.21
						c0.61-2.3,2.09-4.25,4.08-5.46L66.61,51.25z M60.9,78.66h0.15l1.13-16.29l-0.15-0.03L60.9,78.66z M78.83,57.41
						c0-0.24-0.02-0.48-0.04-0.71c-0.26-2.55-1.79-4.76-4.04-5.93l-0.05,0.14c2.14,1.12,3.68,3.26,3.94,5.8
						c0.02,0.23,0.04,0.46,0.04,0.7l0.03,1.68l0,0.26h0.15L78.83,57.41z M79.13,77.76h-0.15l0.04,3.06
						c-6.67,3.29-11.78,3.41-17.64,1.64l-0.05,0.14c2.58,0.78,4.83,1.15,7.05,1.15c1.72,0,3.43-0.22,5.19-0.68
						c1.76-0.46,3.58-1.16,5.51-2.11l0.08-0.04L79.13,77.76z"/>
				</g>
			</g>
		</g>
		<g>
			<g>
				<g>
					<path class="st13" d="M71.32,52.97c0.34-0.08,0.67-0.15,1.01-0.23c1.71,7,2.43,14.39,2.03,21.95
						c-0.53,0.73-1.08,1.44-1.63,2.14c-0.41-0.77-0.83-1.54-1.26-2.29C72.48,67.28,72.41,60.02,71.32,52.97z"/>
				</g>
			</g>
		</g>
		<g>
			<g>
				<g>
					<path class="st14" d="M68.26,50.62l2.61,4.28l0.95-2.04l2.02,1.75l0.17-4.01c-0.24-0.1-0.44-0.17-0.7-0.24l-1.54,1.58
						l-2.07-1.72C69.19,50.31,68.75,50.44,68.26,50.62z"/>
				</g>
			</g>
		</g>
		<g>
			<g>
				<g>
					<g>
						<path class="st15" d="M59,82.74l-0.26-1.79l-1.85,0.44l0.56,1.72c0.13,0.44,0.56,0.71,0.97,0.62
							C58.82,83.62,59.08,83.19,59,82.74z"/>
					</g>
				</g>
			</g>
			<g>
				<g>
					<path class="st11" d="M56.78,81.44L58.95,81c-0.34-2.45-0.64-4.89-0.66-7.26c-0.01-1.18,0.06-2.34,0.23-3.46
						c0.17-1.12,0.45-2.19,0.86-3.21c0.8-2.04,2.08-3.88,3.6-5.6c0.77-0.86,1.59-1.68,2.45-2.48l0.65-0.6l0.67-0.59l0.34-0.29
						l0.34-0.29l0.69-0.57c0.03-0.03,0.07-0.06,0.1-0.09c0.28-0.26,0.5-0.56,0.65-0.89c0.15-0.33,0.24-0.69,0.26-1.06
						c0.04-0.73-0.19-1.49-0.72-2.1l0-0.01c-0.54-0.62-1.29-0.96-2.06-0.98c-0.77-0.03-1.56,0.27-2.16,0.87l-0.67,0.71l-0.33,0.35
						l-0.33,0.36c-0.22,0.24-0.44,0.48-0.65,0.73l-0.64,0.75c-0.85,1.01-1.67,2.05-2.44,3.15c-0.76,1.11-1.48,2.27-2.09,3.51
						c-0.61,1.24-1.12,2.55-1.47,3.9c-0.35,1.35-0.53,2.74-0.58,4.1c-0.05,1.36,0.04,2.7,0.21,3.99c0.17,1.3,0.41,2.56,0.68,3.8
						C56.15,79.01,56.46,80.23,56.78,81.44z"/>
				</g>
			</g>
			<g>
				<g>
					<g>
						<path class="st2" d="M66.6,57.96l0.1,0.06l0.13-0.11l0.33-0.29l1.03-0.86c0.03-0.03,0.07-0.06,0.1-0.09
							c0.29-0.26,0.51-0.57,0.67-0.93c0.06-0.13,0.11-0.26,0.14-0.39l-0.11,0c-0.04,0.12-0.08,0.24-0.13,0.35
							c-0.15,0.33-0.36,0.64-0.65,0.89c-0.03,0.03-0.07,0.06-0.1,0.09l-0.69,0.57l-0.34,0.29l-0.34,0.29L66.6,57.96z M63.07,61.38
							l0.09,0.06c0.5-0.55,1.06-1.13,1.68-1.73l-0.08-0.07C64.17,60.21,63.61,60.79,63.07,61.38z M63.84,52.62l0.04,0.12l0.3-0.32
							c0.6-0.6,1.39-0.9,2.16-0.87c0.77,0.02,1.52,0.36,2.06,0.98l0.01,0.01c0.4,0.47,0.63,1.03,0.7,1.59l0.11,0
							c-0.07-0.61-0.32-1.19-0.73-1.67l-0.01-0.01c-0.27-0.31-0.59-0.56-0.96-0.73c-0.37-0.18-0.77-0.27-1.18-0.29
							c-0.82-0.03-1.64,0.3-2.24,0.91L63.84,52.62z M56.27,63.39l0.11,0.03c0.2-0.49,0.42-0.97,0.65-1.44
							c0.61-1.24,1.32-2.4,2.09-3.51c0.77-1.1,1.59-2.14,2.44-3.15l0.64-0.75c0-0.01,0.01-0.01,0.01-0.02l-0.1-0.06c0,0,0,0,0,0
							l-0.64,0.75c-0.95,1.12-1.75,2.16-2.45,3.16c-0.84,1.22-1.53,2.37-2.1,3.52C56.68,62.41,56.46,62.9,56.27,63.39z M54.86,70.87
							c0.01,0.98,0.08,2.01,0.22,3.1c0.15,1.16,0.37,2.38,0.69,3.81c0.11,0.51,0.23,1.03,0.37,1.58l0.09-0.11
							c-0.12-0.5-0.24-1-0.35-1.5c-0.28-1.24-0.52-2.51-0.68-3.8c-0.13-1.01-0.21-2.05-0.22-3.1
							C54.93,70.87,54.89,70.87,54.86,70.87z M58.32,74.76l0.11-0.04c-0.01-0.33-0.02-0.65-0.02-0.98
							c-0.01-1.26,0.07-2.38,0.23-3.44c0.18-1.14,0.46-2.21,0.85-3.18c0.2-0.5,0.43-1,0.69-1.5l-0.08-0.08
							c-0.26,0.5-0.5,1.01-0.71,1.53c-0.4,1.02-0.68,2.09-0.86,3.21c-0.17,1.12-0.24,2.27-0.23,3.46
							C58.29,74.08,58.3,74.42,58.32,74.76z M58.37,75.78c0.11,1.72,0.34,3.47,0.58,5.22l-1.01,0.2c-0.01,0.04-0.02,0.08-0.03,0.12
							l1.16-0.23l-0.01-0.1c-0.22-1.61-0.46-3.42-0.58-5.22L58.37,75.78z"/>
					</g>
				</g>
			</g>
		</g>
	</g>
	<g>
		<g>
			<g>
				<path class="st9" d="M218.52,217.58l-8.78,0.06c0-0.3,0.06-0.59,0.24-0.82c0.21-0.27,0.54-0.41,0.88-0.47
					c0.34-0.06,0.68-0.05,1.02-0.07c0.83-0.05,1.65-0.29,2.38-0.71c0.38-0.22,0.73-0.48,1.14-0.63l2.39,0.05
					c0.33,0.35,0.54,0.81,0.65,1.29C218.53,216.7,218.54,217.14,218.52,217.58z"/>
			</g>
		</g>
		<g>
			<g>
				<path class="st9" d="M237.99,217.59l-8.78,0.05c0-0.3,0.06-0.59,0.24-0.82c0.21-0.27,0.54-0.41,0.88-0.47
					c0.34-0.06,0.68-0.05,1.02-0.06c0.83-0.05,1.65-0.29,2.38-0.7c0.38-0.21,0.73-0.48,1.14-0.63l2.39,0.05
					c0.33,0.35,0.54,0.81,0.65,1.29C238.01,216.71,238.02,217.15,237.99,217.59z"/>
			</g>
		</g>
		<g>
			<g>
				<path class="st9" d="M236.9,169.37c0,0-8.55,0.06-8.55,0.06l0,0c-0.02,0.45-10.12-2.55-10.28-0.19c0,0-2.04,16.71-2.04,16.71
					c-0.16,1.33-0.26,2.66-0.3,3.99l-0.75,25.14l3.06-0.02l8.92-35.68l7.48,35.59l3.06,0.03L236.9,169.37z"/>
			</g>
		</g>
		<g>
			<g>
				<g>
					<path class="st10" d="M209.52,172.19l1.39-1.45l1.38,1.59l-1.61,1.19c-0.41,0.31-0.96,0.28-1.27-0.07
						C209.1,173.1,209.15,172.54,209.52,172.19z"/>
				</g>
			</g>
			<g>
				<g>
					<g>
						<path class="st5" d="M210.65,170.75l1.61,1.86c1.1-0.85,2.2-1.71,3.28-2.62c1.08-0.9,2.15-1.85,3.17-2.88
							c1.02-1.03,2-2.14,2.88-3.37c0.88-1.23,1.66-2.57,2.26-3.99c0.61-1.42,1.05-2.92,1.35-4.42c0.3-1.5,0.46-3,0.54-4.49
							c0.07-1.49,0.05-2.96-0.02-4.41l-0.06-1.09l-0.08-1.08l-0.04-0.54l-0.05-0.54l-0.11-1.07c-0.01-0.05-0.01-0.1-0.02-0.15
							c-0.08-0.45-0.24-0.86-0.47-1.22c-0.23-0.36-0.53-0.66-0.87-0.9c-0.68-0.47-1.54-0.67-2.41-0.49l-0.01,0
							c-0.9,0.19-1.63,0.72-2.09,1.42c-0.45,0.7-0.65,1.55-0.45,2.4l0.22,0.97l0.11,0.48l0.1,0.48l0.19,0.97l0.17,0.96
							c0.21,1.28,0.38,2.57,0.48,3.83c0.18,2.54,0.05,5.02-0.62,7.35c-0.33,1.17-0.82,2.3-1.42,3.4c-0.6,1.1-1.33,2.16-2.13,3.19
							C214.52,166.89,212.6,168.83,210.65,170.75z"/>
					</g>
				</g>
			</g>
		</g>
		<g>
			<g>
				<ellipse class="st5" cx="229.13" cy="141.74" rx="8.8" ry="4.22"/>
			</g>
		</g>
		<g>
			<g>
				<path class="st5" d="M236.9,169.41c-6.75,2.22-11.17,3.54-18.83-0.17l0.09-17.63l0.02-2.63l0.01-0.97l0.02-1.86
					c0-0.26,0.01-0.52,0.04-0.77c0.3-3.09,2.3-5.66,5.02-6.79c0.37-0.15,0.75-0.28,1.14-0.38c0.87-0.22,1.79-0.3,2.74-0.22
					c0.13,0.01,0.26,0.03,0.4,0.04c0.69,0.09,1.36,0.24,1.99,0.46c3.15,1.08,5.58,3.67,6.46,6.89c0.21,0.76,0.33,1.56,0.35,2.38
					l0.01,0.25l0.03,0.97l0.03,1.22L236.9,169.41z"/>
			</g>
		</g>
		<g>
			<g>
				<path class="st11" d="M217.96,159.92l-0.04,8.56l0.16,0.01l0.04-8.57H217.96z M227.17,137.84c-0.25-0.02-0.5-0.03-0.75-0.03
					c-0.69,0-1.38,0.09-2.05,0.25c-0.4,0.1-0.79,0.23-1.17,0.39c-2.86,1.2-4.82,3.85-5.11,6.92c-0.02,0.26-0.04,0.52-0.04,0.79
					l-0.02,1.86l-0.01,0.97l-0.02,2.62h0.16l0.02-2.62l0.01-0.97l0.02-1.86c0-0.26,0.01-0.52,0.04-0.77c0.3-3.09,2.3-5.66,5.02-6.79
					c0.37-0.16,0.75-0.28,1.14-0.38c0.87-0.22,1.79-0.3,2.74-0.22c0.04,0,0.08,0.01,0.11,0.01v-0.16
					C227.23,137.85,227.2,137.84,227.17,137.84z M236.57,150.2l-0.03-1.22l-0.02-0.67l-0.16,0l0.02,0.67l0.03,1.22l0.15,6.1h0.15
					L236.57,150.2z M236.98,166.29h-0.16l0.08,3.12c-4.89,1.61-8.55,2.75-13.12,1.84l-0.15,0.13c1.14,0.24,2.26,0.35,3.37,0.35
					c3.13,0,5.97-0.86,9.94-2.17l0.11-0.04L236.98,166.29z"/>
			</g>
		</g>
		<g>
			<g>
				<g>
					<g>
						<path class="st12" d="M224.8,133.97l-0.49,5.87c1.21,0.94,2.48,1.04,3.82,0.32l0.49-5.87L224.8,133.97z"/>
					</g>
				</g>
				<g>
					<g>
						<path class="st10" d="M224.8,133.97l-0.22,2.66c0.26,0.13,0.54,0.22,0.84,0.27c0.1,0.02,0.19,0.03,0.29,0.04
							c1.05,0.09,2.08-0.32,2.79-1.06l0.13-1.58L224.8,133.97z"/>
					</g>
				</g>
				<g>
					<g>
						<path class="st12" d="M223.36,130.23l-0.11,2.46l-0.05,1c-0.06,1.38,0.91,2.59,2.27,2.82c0.45,0.08,0.9,0.05,1.33-0.07
							c0.1-0.03,0.19-0.06,0.29-0.1c0.06-0.02,0.12-0.05,0.17-0.07c0.55-0.25,1.02-0.66,1.34-1.2c0.27-0.46,0.53-0.96,0.78-1.5
							c0.15-0.31,0.29-0.62,0.43-0.94c0.62-1.42,0.44-3.08-0.53-4.28c-0.83-1.03-1.94-1.42-3.37-1.13
							C224.48,127.52,223.43,128.76,223.36,130.23z"/>
					</g>
				</g>
			</g>
			<g>
				<g>
					<g>
						<path class="st9" d="M230.1,131.85c1.24-2.9-0.24-3.56-0.24-3.56c0.03,0.01,0.08-0.38,0.08-0.42c0-0.15-0.03-0.3-0.08-0.44
							c-0.36-1-1.4-0.96-2.28-1.03c-0.5-0.04-0.89-0.22-1.22-0.59c-0.34-0.39-0.53-0.9-0.93-1.24c-0.61-0.53-1.6-0.3-2.1,0.27
							c-0.12,0.14-0.21,0.29-0.28,0.46c-0.34,0.88-0.34,2.03,0.2,2.84c0.49,0.73,1.45,1.02,2.27,1.2c0.27,0.06,0.54,0.11,0.81,0.15
							c1.4,0.24,2.15-0.86,2.15-0.86c-0.35,0.29-0.59,1.31-0.38,1.98c0.22,0.67-0.16,1.81-0.16,1.81l0.1-0.01
							C228.77,131.51,229.51,131.24,230.1,131.85z"/>
					</g>
				</g>
				<g>
					<g>
						<path class="st9" d="M224.04,128.82c0,0-0.52,1.17-0.75,2.98c0,0-0.29-2.05,0.28-3.41L224.04,128.82z"/>
					</g>
				</g>
			</g>
			<g>
				<g>
					<path class="st12" d="M227.94,132.41c-0.06,0.7,0.53,1.33,1.33,1.4c0.79,0.07,1.48-0.45,1.54-1.15c0.06-0.7-0.53-1.33-1.33-1.4
						C228.69,131.19,228,131.71,227.94,132.41z"/>
				</g>
			</g>
		</g>
		<g>
			<g>
				<g>
					<path class="st12" d="M229.96,176.14l0.86-1.81l1.81,1.08l-1.16,1.64c-0.29,0.42-0.82,0.57-1.22,0.33
						C229.85,177.14,229.72,176.6,229.96,176.14z"/>
				</g>
			</g>
			<g>
				<g>
					<path class="st5" d="M230.62,174.35l2.15,1.18c0.74-1.18,1.47-2.37,2.17-3.59c0.7-1.22,1.37-2.48,1.97-3.8
						c0.6-1.32,1.14-2.7,1.53-4.16c0.4-1.45,0.66-2.98,0.73-4.53c0.07-1.55-0.03-3.1-0.27-4.61c-0.24-1.51-0.61-2.98-1.06-4.4
						c-0.45-1.42-0.98-2.79-1.55-4.13l-0.43-1l-0.45-0.98l-0.23-0.49l-0.24-0.48l-0.47-0.97c-0.02-0.05-0.05-0.09-0.08-0.14
						c-0.23-0.39-0.53-0.72-0.87-0.98c-0.34-0.26-0.73-0.43-1.13-0.54c-0.8-0.2-1.68-0.09-2.43,0.38l-0.01,0
						c-0.78,0.49-1.28,1.24-1.46,2.05c-0.18,0.81-0.07,1.68,0.41,2.41l0.54,0.83l0.27,0.42l0.26,0.42l0.52,0.84l0.5,0.85
						c0.65,1.13,1.25,2.27,1.78,3.43c1.05,2.32,1.79,4.68,1.97,7.11c0.09,1.21,0.03,2.44-0.15,3.68c-0.18,1.24-0.49,2.49-0.89,3.74
						C232.9,169.38,231.78,171.87,230.62,174.35z"/>
				</g>
			</g>
			<g>
				<g>
					<path class="st11" d="M232.44,140.58c-0.77-0.19-1.58-0.1-2.28,0.25c-0.09,0.05-0.18,0.1-0.27,0.15l-0.01,0
						c-0.78,0.49-1.32,1.25-1.53,2.15c-0.2,0.9-0.05,1.8,0.43,2.53l0.81,1.25l0.26,0.42l0.38,0.61l0.14-0.07l-0.38-0.62l-0.26-0.42
						l-0.27-0.42l-0.54-0.83c-0.48-0.73-0.59-1.6-0.41-2.41c0.19-0.81,0.69-1.57,1.46-2.06l0.01,0c0.76-0.47,1.63-0.59,2.43-0.38
						c0.09,0.02,0.19,0.05,0.28,0.08l0.06-0.14C232.65,140.63,232.55,140.6,232.44,140.58z M234.96,143.37l0.22,0.46l0.23,0.49
						l0.45,0.98l0.43,1c0.57,1.34,1.1,2.71,1.55,4.13c0.28,0.91,0.54,1.84,0.75,2.79l0.14-0.07c-0.2-0.89-0.44-1.8-0.75-2.76
						c-0.41-1.29-0.92-2.64-1.55-4.15l-0.44-1l-0.45-0.99l-0.23-0.49l-0.23-0.46L234.96,143.37z M233.31,154.05
						c0.73,1.92,1.15,3.71,1.28,5.43c0.09,1.15,0.04,2.38-0.15,3.64c-0.17,1.17-0.46,2.38-0.89,3.71c-0.06,0.18-0.11,0.35-0.17,0.53
						l0.14,0.06c0.06-0.18,0.12-0.36,0.18-0.54c0.4-1.25,0.71-2.5,0.89-3.74c0.18-1.24,0.24-2.47,0.15-3.68
						c-0.14-1.86-0.61-3.69-1.3-5.49L233.31,154.05z M238.65,163.2c-0.06,0.26-0.13,0.52-0.2,0.78c-0.4,1.46-0.93,2.84-1.53,4.16
						c-0.6,1.32-1.27,2.58-1.97,3.8c-0.62,1.08-1.26,2.14-1.91,3.19l0.14,0.07c0.76-1.23,1.36-2.22,1.91-3.19
						c0.81-1.42,1.44-2.63,1.98-3.81c0.67-1.46,1.17-2.83,1.54-4.18c0.07-0.25,0.13-0.5,0.19-0.75L238.65,163.2z M231.81,171.75
						l-0.15-0.05c-0.4,0.9-0.8,1.77-1.18,2.58l-0.06,0.13l0.55,0.3l0.09-0.13l-0.44-0.24C231.03,173.48,231.43,172.62,231.81,171.75
						z"/>
				</g>
			</g>
		</g>
	</g>
	<g>
		<g>
			<g>
				<path class="st9" d="M265.1,130.14c0.12-1.66,1.46-3.01,3.17-3.1c0.89-0.04,1.71,0.26,2.34,0.8c0.47-0.3,1.02-0.48,1.62-0.51
					c1.62-0.08,3.02,1,3.4,2.51c1.23,0.44,2.14,1.59,2.21,2.98c0.04,0.74-0.17,1.43-0.55,2c0.88,0.56,1.48,1.53,1.53,2.65
					c0.08,1.65-1.04,3.07-2.6,3.42c0.02,0.1,0.03,0.21,0.03,0.32c0.09,1.84-1.33,3.41-3.17,3.5c-1,0.05-1.92-0.34-2.56-1.01
					c-0.04,0-0.09,0.01-0.13,0.01c-0.56,0.03-1.1-0.09-1.58-0.31c-0.45,0.27-0.98,0.44-1.54,0.47c-1.84,0.09-3.41-1.33-3.5-3.17
					c-0.03-0.52,0.07-1.02,0.26-1.47c-0.23-0.43-0.38-0.92-0.4-1.44c-0.04-0.89,0.26-1.71,0.8-2.33c-0.59-0.57-0.98-1.36-1.02-2.24
					C263.33,131.91,264.03,130.74,265.1,130.14z"/>
			</g>
		</g>
		<g>
			<g>
				<g>
					<g>
						<path class="st10" d="M244.73,164.91c0.14-0.44,0.55-0.73,0.96-0.67c2.47,0.35,5.04,0.16,7.26-0.65
							c1.11-0.41,2.13-0.97,3.02-1.67c0.44-0.35,0.85-0.74,1.23-1.16c0.38-0.42,0.73-0.86,1.03-1.34c0.31-0.47,0.6-0.96,0.84-1.48
							l0.09-0.19l0.09-0.2c0.06-0.13,0.12-0.26,0.17-0.4c0.1-0.27,0.22-0.53,0.31-0.81c0.38-1.1,0.66-2.25,0.85-3.43
							c0.38-2.37,0.44-4.83,0.31-7.31c-0.01-0.39,0.06-0.77,0.21-1.12c0.07-0.17,0.17-0.34,0.28-0.5c0.11-0.16,0.23-0.31,0.37-0.44
							c0.55-0.55,1.33-0.92,2.2-0.95c0.88-0.03,1.67,0.3,2.25,0.87c0.14,0.14,0.27,0.3,0.38,0.47c0.11,0.17,0.2,0.35,0.28,0.55
							c0.15,0.39,0.22,0.81,0.19,1.26c-0.12,1.4-0.29,2.8-0.54,4.19c-0.25,1.4-0.57,2.79-1,4.18c-0.42,1.38-0.97,2.75-1.64,4.06
							c-0.16,0.33-0.35,0.65-0.53,0.98c-0.1,0.16-0.2,0.32-0.29,0.48l-0.15,0.24l-0.16,0.23c-0.41,0.62-0.88,1.22-1.38,1.79
							c-1,1.14-2.19,2.12-3.49,2.88c-1.3,0.77-2.72,1.29-4.15,1.6c-1.43,0.3-2.87,0.39-4.28,0.31c-1.41-0.08-2.79-0.31-4.13-0.7
							C244.85,165.84,244.59,165.36,244.73,164.91z"/>
					</g>
				</g>
			</g>
			<g>
				<g>
					<path class="st13" d="M259.29,153.15l0.52-7c0.16-2.12,1.86-3.78,3.98-3.62l0,0c2.12,0.16,3.85,2.07,3.69,4.19l-0.52,7
						L259.29,153.15z"/>
				</g>
			</g>
		</g>
		<g>
			<g>
				<path class="st9" d="M268.49,216.67c0.15-0.2,0.4-0.3,0.64-0.34c0.24-0.04,0.5-0.03,0.74-0.04c0.61-0.03,1.21-0.2,1.74-0.5
					c0.28-0.16,0.54-0.35,0.83-0.46l1.75,0.05c0.24,0.26,0.39,0.59,0.47,0.94c0.07,0.31,0.07,0.64,0.06,0.96v0.36h-6.4v-0.36h0
					C268.32,217.05,268.36,216.84,268.49,216.67z"/>
			</g>
		</g>
		<g>
			<g>
				<polygon class="st12" points="274.41,213.47 274.19,215.37 272.45,215.33 272.3,213.5 				"/>
			</g>
		</g>
		<g>
			<g>
				<path class="st2" d="M267.02,175.93c-1.73,4.37-3.96,8.31-6.4,11.19l-2.69,26.8l-8.62-0.49l4.02-26.24
					c0.18-1.18,0.45-2.34,0.81-3.47c0,0,6.18-19.22,6.18-19.23c0.65-2.51,14.23-0.7,14.23-0.7c3.75,5.21,1.39,21.77,1.39,21.77
					l2.01,27.84l-9.18,0.15l0.04-27.61L267.02,175.93z"/>
			</g>
		</g>
		<g>
			<g>
				<polygon class="st12" points="254.61,213.74 254.07,215.37 252.33,215.33 252.59,213.62 				"/>
			</g>
		</g>
		<g>
			<g>
				<path class="st9" d="M248.37,216.67c0.15-0.2,0.4-0.3,0.64-0.34c0.24-0.04,0.5-0.03,0.74-0.04c0.61-0.03,1.21-0.21,1.74-0.51
					c0.28-0.16,0.54-0.35,0.83-0.46l1.75,0.04c0.24,0.26,0.39,0.59,0.47,0.94c0.07,0.31,0.08,0.64,0.06,0.96l0,0.36l-6.4,0.01
					l0-0.36h0C248.2,217.06,248.24,216.84,248.37,216.67z"/>
			</g>
		</g>
		<g>
			<g>
				<path class="st13" d="M269.18,140.86L269.18,140.86c-5.33-0.32-9.7,4.18-9.22,9.5l0.36,14.13c5.82,2.44,10.32,1.26,14.23-0.7
					l1.36-14.72C276.49,144.9,273.39,141.12,269.18,140.86z"/>
			</g>
		</g>
		<g>
			<g>
				<path class="st11" d="M271.33,141.16l0.01,0.16c1.93,0.74,3.43,2.26,4.16,4.15c0.05,0,0.11-0.01,0.16-0.01
					c-0.28-0.74-0.68-1.44-1.19-2.06C273.63,142.38,272.54,141.61,271.33,141.16z M261.38,165.07c1.81,0.64,3.56,0.95,5.32,0.95
					c1.12,0,2.24-0.13,3.38-0.39l-0.02-0.15c-2.56,0.6-5.4,0.59-8.67-0.56L261.38,165.07z M259.81,150.38l0.03,1.22l0.16-0.02
					l-0.03-1.22c-0.36-4,2.02-7.54,5.49-8.91l-0.03-0.15c-1.26,0.49-2.4,1.27-3.33,2.28C260.4,145.45,259.58,147.86,259.81,150.38z
					 M260.16,157.96H260l0.12,4.58h0.15L260.16,157.96z M273.1,164.47v0.17c0.5-0.21,1-0.44,1.52-0.7l0.08-0.04l0.31-3.41
					l-0.15-0.08l-0.31,3.39C274.08,164.03,273.6,164.26,273.1,164.47z"/>
			</g>
		</g>
		<g>
			<g>
				<g>
					<path class="st12" d="M267.68,137.43l-0.86,5.29c1.03,0.93,2.18,1.12,3.45,0.56l0.86-5.29L267.68,137.43z"/>
				</g>
			</g>
			<g>
				<g>
					<path class="st10" d="M267.6,137.91l-0.21,1.31c0.47,0.39,1.03,0.68,1.66,0.81c0.04,0.01,0.07,0.01,0.11,0.02
						c0.6,0.1,1.21-0.04,1.69-0.37l0.2-1.21L267.6,137.91z"/>
				</g>
			</g>
			<g>
				<g>
					<path class="st12" d="M267.06,132.21l-0.43,3.09l-0.09,0.69c-0.22,1.72,0.91,3.31,2.6,3.67c0.17,0.04,0.35,0.05,0.52,0.04
						c0.07-0.01,0.14-0.01,0.2-0.03c0.01,0,0.03,0,0.04-0.01c0.26-0.05,0.51-0.16,0.73-0.33c0.48-0.36,0.82-0.79,1.15-1.24
						c0.29-0.39,0.55-0.78,0.76-1.19c0.25-0.49,0.43-1,0.49-1.57l0.35-2.72l-5.11-1.52L267.06,132.21z"/>
				</g>
			</g>
			<g>
				<g>
					<path class="st9" d="M265.86,132.87c0.07-0.33,0.51-1.07,0.51-1.07s0.29-0.3,0.73-0.45c0.12-0.04,0.28-0.04,0.44-0.01
						c0.2-0.17,0.44-0.31,0.71-0.4c1.33-0.44,3.01-0.24,3.83,0.29c0.58,0.37,1.76,0.7,1.48,0.91c0.42,0.06,0.06,0.55,0.17,1.7
						c0.09,1.02-0.23,2.66-0.79,2.89c-0.55,0.23-1.26-0.01-0.6-1.13c0,0,0.01-0.05,0.04-0.13c-0.19-0.08-0.36-0.24-0.46-0.42
						c-0.15-0.28-0.18-0.6-0.17-0.91c0-0.31,0.03-0.63-0.01-0.94c-0.06-0.42-0.25-0.78-0.53-1.09c-0.04-0.03-0.08-0.05-0.13-0.08
						c-0.13,0.04-0.25,0.08-0.32,0.12c-0.4,0.22-0.68,0.61-1.01,0.92c-0.64,0.62-1.49,1.02-2.37,1.13c-0.19,0.02-0.4,0.02-0.59-0.02
						c-0.01,0.05-0.01,0.1-0.01,0.15c0,0-0.68-0.16-0.84-0.52C265.78,133.43,265.79,133.2,265.86,132.87z"/>
				</g>
			</g>
			<g>
				<g>
					<path class="st12" d="M271.77,135.76c-0.11,0.69,0.36,1.35,1.05,1.46c0.69,0.11,1.35-0.36,1.46-1.05
						c0.11-0.69-0.36-1.35-1.05-1.46C272.54,134.6,271.88,135.07,271.77,135.76z"/>
				</g>
			</g>
		</g>
		<g>
			<g>
				<g>
					<g>
						<path class="st12" d="M280.52,176.16c-0.46-0.1-0.78-0.46-0.76-0.87c0.03-0.61,0.02-1.22-0.01-1.84
							c-0.01-0.31-0.04-0.62-0.06-0.92c-0.03-0.31-0.06-0.61-0.1-0.92c-0.15-1.23-0.38-2.44-0.67-3.65
							c-0.58-2.4-1.41-4.74-2.41-6.98l-0.19-0.42l-0.2-0.42l-0.4-0.83l-0.42-0.82c-0.14-0.27-0.28-0.55-0.43-0.81
							c-0.3-0.54-0.59-1.08-0.91-1.6l-0.47-0.79c-0.16-0.26-0.33-0.52-0.5-0.78c-1.33-2.07-2.79-4.05-4.36-5.95
							c-0.47-0.62-0.64-1.38-0.51-2.14c0.13-0.76,0.55-1.51,1.25-2.05h0c0.69-0.54,1.52-0.74,2.31-0.63
							c0.78,0.11,1.52,0.54,1.98,1.26c1.4,2.29,2.67,4.66,3.78,7.1c0.14,0.31,0.28,0.61,0.41,0.92l0.39,0.93
							c0.27,0.61,0.5,1.25,0.74,1.87c0.12,0.31,0.23,0.63,0.34,0.95l0.33,0.95l0.3,0.96l0.15,0.48l0.14,0.48
							c0.74,2.57,1.27,5.21,1.51,7.87c0.12,1.33,0.18,2.67,0.15,4c-0.01,0.33-0.02,0.67-0.04,1c-0.02,0.33-0.04,0.67-0.08,1
							c-0.06,0.67-0.15,1.33-0.27,2C281.43,175.95,280.97,176.26,280.52,176.16z"/>
					</g>
				</g>
			</g>
			<g>
				<g>
					<path class="st13" d="M278.62,151.26l-3.9-5.83c-1.18-1.76-3.48-2.37-5.24-1.19l0,0c-1.76,1.18-2.33,3.7-1.15,5.47l3.9,5.83
						L278.62,151.26z"/>
				</g>
			</g>
			<g>
				<g>
					<path class="st11" d="M270.1,152.63l2.09,3.12l1.1-0.74l-0.07-0.14l-0.99,0.66l-2-2.99L270.1,152.63z M267.91,149.27l0.15-0.04
						c-0.81-1.72-0.2-3.91,1.41-4.99c0.21-0.14,0.43-0.26,0.66-0.35l-0.03-0.16c-0.25,0.1-0.49,0.22-0.72,0.38
						c-0.88,0.59-1.51,1.54-1.74,2.61C267.45,147.61,267.55,148.49,267.91,149.27z M273.24,143.91l-0.04,0.16
						c0.59,0.31,1.11,0.77,1.51,1.36l1.35,2.02l0.14-0.07l-1.36-2.04C274.43,144.71,273.87,144.23,273.24,143.91z M278.62,151.26
						l-3.67,2.45l0.1,0.12l3.78-2.53l-1.11-1.66l-0.13,0.09L278.62,151.26z"/>
				</g>
			</g>
		</g>
	</g>
	<g>
		<g>
			<g>
				<g>
					<polygon class="st9" points="174.24,137.64 175.79,144.47 176.47,144.5 174.92,137.68 					"/>
				</g>
			</g>
			<g>
				<g>
					<polygon class="st9" points="170.42,137.44 171.97,144.26 175.79,144.47 174.24,137.64 					"/>
				</g>
			</g>
		</g>
		<g>
			<g>
				<g>
					<g>
						<path class="st10" d="M167.33,154.42c-0.28,0.38-0.24,0.89,0.1,1.16c0.98,0.82,1.99,1.63,3.05,2.39
							c1.06,0.76,2.18,1.49,3.45,2.09c0.64,0.3,1.32,0.56,2.08,0.74c0.75,0.18,1.61,0.25,2.49,0.12c0.88-0.13,1.75-0.49,2.47-0.97
							c0.72-0.48,1.3-1.05,1.8-1.63c0.5-0.58,0.92-1.18,1.3-1.78c0.38-0.6,0.72-1.2,1.03-1.8c0.63-1.2,1.18-2.4,1.71-3.59
							c1.04-2.39,1.99-4.76,2.94-7.11c0.56-1.51-0.36-3.2-2.04-3.75c-1.67-0.54-3.42,0.31-3.84,1.86c-0.6,2.46-1.18,4.91-1.83,7.29
							c-0.33,1.19-0.67,2.35-1.06,3.46c-0.2,0.55-0.4,1.09-0.63,1.6c-0.23,0.51-0.47,0.99-0.73,1.42c-0.26,0.42-0.55,0.79-0.84,1.06
							c-0.3,0.28-0.59,0.46-0.95,0.59c-0.71,0.25-1.76,0.15-2.84-0.18c-1.08-0.33-2.19-0.83-3.27-1.39
							c-1.09-0.56-2.16-1.2-3.23-1.85C168.1,153.93,167.6,154.05,167.33,154.42z"/>
					</g>
				</g>
			</g>
			<g>
				<g>
					<path class="st11" d="M187.23,151.67l2.4-6.76c0.72-2.05,0.05-4.22-1.68-4.83l0,0c-1.73-0.61-3.86,0.56-4.59,2.61l-2.4,6.76
						L187.23,151.67z"/>
				</g>
			</g>
		</g>
		<g>
			<g>
				<g>
					<path class="st12" d="M204.92,211.38c0,0,0.01,1.79-0.83,3.24l3.7-2.79l-0.16-0.46c0,0-0.61-0.44-1.09-1.13L204.92,211.38z"/>
				</g>
			</g>
			<g>
				<g>
					<path class="st9" d="M208.13,212.52l-4.84,3.4c-0.18,0.13-0.4-0.07-0.31-0.26l1.03-2.08c0.13-0.15,0.3-0.11,0.42,0.01
						c0.1,0.1,0.26,0.12,0.37,0.03l1.94-1.36c0.25-0.17,0.44-0.4,0.57-0.67l0.16-0.33c0.04-0.09,0.16-0.09,0.21-0.02l0.53,0.75
						C208.34,212.17,208.3,212.4,208.13,212.52z"/>
				</g>
			</g>
		</g>
		<g>
			<g>
				<g>
					<path class="st12" d="M186.19,214.39c0,0-0.83,1.59-2.26,2.48l4.58-0.73l0.08-0.48c0,0-0.33-0.67-0.44-1.51L186.19,214.39z"/>
				</g>
			</g>
			<g>
				<g>
					<path class="st9" d="M188.49,216.89l-5.87,0.74c-0.22,0.03-0.33-0.25-0.15-0.38l1.89-1.36c0.19-0.07,0.32,0.04,0.36,0.21
						c0.04,0.14,0.17,0.22,0.32,0.21l2.35-0.29c0.3-0.04,0.58-0.15,0.82-0.33l0.3-0.22c0.08-0.06,0.18-0.01,0.2,0.08l0.12,0.91
						C188.84,216.68,188.7,216.87,188.49,216.89z"/>
				</g>
			</g>
		</g>
		<g>
			<g>
				<path class="st2" d="M192.6,164.09L192.6,164.09C192.6,164.09,192.6,164.09,192.6,164.09c-0.12-2.6-8.96-4.44-8.84-1.84
					c0,0-0.74,21.05-0.74,21.05c-0.01,0.89,0.03,1.78,0.12,2.66l2.76,28.55l2.1-0.27l2.17-29.2
					C193.17,179.67,193.64,172.43,192.6,164.09z"/>
			</g>
		</g>
		<g>
			<g>
				<path class="st2" d="M195.49,184.44c2.63-5.38,2.89-12.41,1.71-20.45l0,0c0,0,0,0,0,0c-0.17-2.6-2.42-4.57-5.01-4.4
					c-2.6,0.17-4.57,2.42-4.4,5.01c0,0,0,0,0,0.01c0,0,0.24,20.05,0.25,20.15l0,0.03l0,0c0.03,0.52,0.18,1.03,0.44,1.51l0,0
					c0.05,0.1,16.38,25.16,16.38,25.16l1.74-1.21L195.49,184.44z"/>
			</g>
		</g>
		<g>
			<g>
				<path class="st2" d="M188.68,186.62L188.68,186.62l-0.01-0.02c-0.06-0.1-0.12-0.19-0.18-0.29l0,0
					c-0.26-0.48-0.41-0.99-0.44-1.51h0l-0.21-17.58l-0.24,0l0.21,17.23c0,0.11,0.02,0.57,0.02,0.57c0.06,0.49,0.21,0.96,0.45,1.39
					l6.16,9.48l0.16-0.18L188.68,186.62z M206.1,208.48l-10.35-24.03c0.51-1.05,0.93-2.18,1.27-3.38l-0.23-0.06
					c-0.34,1.21-0.78,2.35-1.3,3.43l10.38,24.1L206.1,208.48z M204.87,211.47l-3.98-6.11l-0.18,0.16l4.1,6.29l1.08-0.75
					c-0.04-0.06-0.09-0.13-0.13-0.2L204.87,211.47z M197.44,163.96c0-0.07-0.01-0.13-0.02-0.2h-0.24c0.01,0.08,0.02,0.15,0.02,0.23
					c0.34,2.32,0.56,4.55,0.63,6.68l0.24,0.01C198,168.6,197.78,166.36,197.44,163.96z"/>
			</g>
		</g>
		<g>
			<g>
				<path class="st9" d="M190.28,137.68c0,0,4.33,1.55,6.37-3.69c0,0-1.79-1.79-1.92-1.87c-0.13-0.08-3.54,2.92-3.54,2.92
					L190.28,137.68z"/>
			</g>
		</g>
		<g>
			<g>
				<path class="st11" d="M192.09,138.6L192.09,138.6c-5.34-0.39-9.78,4.06-9.37,9.4l1.04,14.25c3.72,1.71,8.74,1.88,13.25,0.97
					l1.72-16.3C199.36,142.74,196.31,138.91,192.09,138.6z"/>
			</g>
		</g>
		<g>
			<g>
				<path class="st2" d="M198.42,149.79l-1.41,13.43c-0.86,0.17-1.73,0.31-2.62,0.4l0,0.24c0.89-0.09,1.79-0.22,2.67-0.4l0.17-0.03
					l1.43-13.61L198.42,149.79z M185.08,140.98c-1.85,1.86-2.8,4.42-2.6,7.03l0.8,10.99l0.24,0.04l-0.8-11.05
					c-0.31-4.09,2.22-7.66,5.83-8.93l-0.03-0.24C187.24,139.27,186.06,140,185.08,140.98z"/>
			</g>
		</g>
		<g>
			<g>
				<g>
					<path class="st12" d="M189.76,135.82l-0.48,5.35c1.09,0.86,2.26,0.96,3.49,0.31l0.48-5.35L189.76,135.82z"/>
				</g>
			</g>
			<g>
				<g>
					<path class="st10" d="M189.72,136.3l-0.12,1.33c0.5,0.36,1.08,0.6,1.72,0.69c0.04,0,0.07,0.01,0.11,0.01
						c0.6,0.05,1.21-0.13,1.66-0.5l0.11-1.22L189.72,136.3z"/>
				</g>
			</g>
			<g>
				<g>
					<path class="st12" d="M188.76,130.65l-0.2,3.12l-0.04,0.69c-0.1,1.73,1.15,3.25,2.87,3.48c0.17,0.02,0.35,0.02,0.53,0
						c0.07-0.01,0.14-0.02,0.2-0.04c0.01,0,0.03-0.01,0.04-0.01c0.26-0.07,0.5-0.2,0.71-0.38c0.45-0.4,0.77-0.85,1.06-1.32
						c0.26-0.41,0.49-0.82,0.68-1.25c0.22-0.5,0.36-1.03,0.38-1.61l-0.07-1.18l-1.05-1.63l-3.96-1.08L188.76,130.65z"/>
				</g>
			</g>
			<g>
				<g>
					<path class="st9" d="M196.1,131.05c-0.04-0.1-0.08-0.19-0.12-0.28c0.29-0.05,0.55-0.17,0.76-0.37
						c0.67-0.65,0.52-1.89-0.33-2.76c-0.85-0.87-2.08-1.05-2.75-0.4c-0.28,0.28-0.42,0.66-0.42,1.07c-1.99-1.06-4.14,0.43-4.69,1.56
						c-0.63,1.3-0.62,2.59-0.62,2.59c-0.73,0.21-1.21,2.07-0.29,2.82c1.18,0.95,0.16,2.1,0.16,2.1c0.64-0.33,1.14-1.49,0.51-2.26
						c-0.42-0.52-0.83-1.07-0.28-1.68c0.33-0.36,0.64-0.76,1-1.17c0.66-0.76,1.65-1.16,2.65-1.05c0.01,0,0.01,0,0.02,0
						c1.44,0.17,1.93-0.29,2.09-0.55c0.17,0.38,0.26,0.84,0.31,1.29c-0.06,0.09-0.12,0.18-0.21,0.27c-1.48,1.57,0.25,4.41,0.25,4.41
						s-1.11-2.37,0-3.63c0,0.46-0.03,0.78-0.03,0.78c-0.46,1.26,1,1.62,1.5,1.28C196.81,134.28,196.49,132.04,196.1,131.05z"/>
				</g>
			</g>
			<g>
				<g>
					<path class="st12" d="M193.73,133.85c-0.06,0.7,0.45,1.32,1.15,1.38c0.7,0.06,1.32-0.45,1.38-1.15
						c0.06-0.7-0.45-1.32-1.15-1.38S193.79,133.15,193.73,133.85z"/>
				</g>
			</g>
		</g>
		<g>
			<g>
				<g>
					<g>
						<path class="st12" d="M172.46,138.61c-0.47,0.05-0.81,0.43-0.79,0.86c0.06,1.28,0.15,2.57,0.31,3.86
							c0.16,1.3,0.38,2.61,0.8,3.95c0.21,0.67,0.48,1.35,0.87,2.03c0.38,0.67,0.9,1.35,1.6,1.91c0.69,0.56,1.55,0.96,2.39,1.16
							c0.84,0.21,1.66,0.24,2.42,0.22c0.77-0.03,1.49-0.13,2.19-0.25c0.7-0.13,1.37-0.29,2.03-0.46c1.31-0.35,2.57-0.76,3.8-1.18
							c2.46-0.85,4.84-1.76,7.22-2.66c1.49-0.61,2.11-2.44,1.37-4.04c-0.74-1.6-2.55-2.31-3.97-1.56c-2.21,1.23-4.41,2.46-6.6,3.59
							c-1.09,0.56-2.19,1.1-3.27,1.57c-0.54,0.23-1.08,0.44-1.61,0.62c-0.53,0.18-1.05,0.33-1.54,0.42
							c-0.49,0.09-0.95,0.13-1.35,0.1c-0.4-0.03-0.74-0.12-1.08-0.3c-0.67-0.35-1.31-1.19-1.79-2.21c-0.49-1.02-0.87-2.17-1.2-3.35
							c-0.33-1.18-0.59-2.4-0.83-3.63C173.35,138.85,172.92,138.56,172.46,138.61z"/>
					</g>
				</g>
			</g>
			<g>
				<g>
					<path class="st11" d="M187.97,151.38l6.6-2.83c2-0.85,3.13-2.82,2.41-4.51l0,0c-0.72-1.69-3.03-2.46-5.03-1.6l-6.6,2.83
						L187.97,151.38z"/>
				</g>
			</g>
			<g>
				<g>
					<path class="st2" d="M190.76,150.18l-2.78,1.19l-2.62-6.11l2.26-0.97l-0.08-0.22l-2.49,1.07l2.8,6.55l3.01-1.29L190.76,150.18z
						 M197.2,143.96c-0.07,0.04-0.13,0.08-0.2,0.13c0.69,1.68-0.45,3.62-2.43,4.47l-0.34,0.14c0.03,0.07,0.06,0.15,0.08,0.22
						l0.35-0.15C196.84,147.84,197.95,145.72,197.2,143.96z"/>
				</g>
			</g>
		</g>
	</g>
	<g>
		<g>
			<g>
				<polygon class="st16" points="56,36 40.11,42.42 37.89,47.9 42.9,45.24 42.04,43.47 				"/>
			</g>
		</g>
		<g>
			<g>
				<polygon class="st2" points="40.11,42.42 33.89,38.39 56,36 				"/>
			</g>
		</g>
		<g>
			<g>
				<polygon class="st2" points="42.04,43.47 45.52,50.64 56,36 				"/>
			</g>
		</g>
	</g>
	<g>
		<g>
			<g>
				<polygon class="st16" points="237,56.44 250.1,67.49 250.5,73.4 246.57,69.3 247.94,67.89 				"/>
			</g>
		</g>
		<g>
			<g>
				<polygon class="st2" points="250.1,67.49 257.26,65.6 237,56.44 				"/>
			</g>
		</g>
		<g>
			<g>
				<polygon class="st2" points="247.94,67.89 242.39,73.61 237,56.44 				"/>
			</g>
		</g>
	</g>
	<g>
		<g>
			<path class="st2" d="M191.88,143.29l-0.15-0.46l0.2-0.06l0.14,0.46L191.88,143.29z M195.13,142.36l-0.12-0.46
				c1-0.25,2.05-0.49,3.13-0.7l0.09,0.47C197.17,141.88,196.12,142.12,195.13,142.36z M201.38,141.12l-0.07-0.47
				c1.01-0.16,2.04-0.3,3.17-0.44l0.06,0.48C203.41,140.82,202.38,140.97,201.38,141.12z M207.71,140.33l-0.05-0.48
				c0.93-0.09,1.94-0.19,3.18-0.3l0.04,0.48C209.65,140.14,208.64,140.24,207.71,140.33z M214.07,139.75l-0.04-0.48
				c0.34-0.03,0.68-0.06,1.02-0.09c0.72-0.06,1.44-0.13,2.16-0.2l0.05,0.48c-0.72,0.07-1.44,0.14-2.16,0.2
				C214.75,139.69,214.41,139.72,214.07,139.75z M220.43,139.12l-0.06-0.48c1.13-0.13,2.16-0.26,3.16-0.41l0.07,0.47
				C222.6,138.86,221.57,138.99,220.43,139.12z M226.77,138.2l-0.09-0.47c1.08-0.2,2.13-0.41,3.12-0.64l0.11,0.47
				C228.91,137.78,227.86,138,226.77,138.2z M233.02,136.74l-0.14-0.46c1.04-0.31,2.05-0.64,3.02-1l0.17,0.45
				C235.09,136.09,234.06,136.43,233.02,136.74z M239.03,134.49l-0.2-0.43c0.96-0.45,1.91-0.94,2.81-1.47l0.24,0.41
				C240.96,133.53,240,134.03,239.03,134.49z M244.58,131.24l-0.28-0.39c0.87-0.62,1.7-1.29,2.47-1.98l0.32,0.36
				C246.3,129.93,245.46,130.61,244.58,131.24z M249.37,126.95l-0.36-0.32c0.71-0.8,1.37-1.64,1.95-2.49l0.4,0.27
				C250.76,125.29,250.09,126.14,249.37,126.95z M253,121.64l-0.43-0.21c0.47-0.95,0.87-1.93,1.19-2.92l0.46,0.15
				C253.89,119.66,253.48,120.67,253,121.64z M254.93,115.5l-0.48-0.06c0.1-0.79,0.16-1.6,0.16-2.41c0-0.24,0-0.49-0.01-0.73
				l0.48-0.02c0.01,0.25,0.01,0.5,0.01,0.75C255.09,113.85,255.03,114.68,254.93,115.5z M247.8,113.81c-0.62,0-1.24-0.04-1.86-0.12
				l0.06-0.48c1.04,0.14,2.1,0.15,3.13,0.05l0.05,0.48C248.73,113.78,248.26,113.81,247.8,113.81z M252.35,113.02l-0.16-0.45
				c1-0.36,1.93-0.85,2.76-1.45l0.28,0.39C254.36,112.14,253.39,112.64,252.35,113.02z M242.8,112.89c-1.03-0.39-2-0.91-2.87-1.52
				l0.28-0.39c0.84,0.59,1.77,1.09,2.76,1.47L242.8,112.89z M257.59,109.28l-0.37-0.3c0.65-0.79,1.21-1.68,1.68-2.65l0.43,0.21
				C258.84,107.53,258.26,108.46,257.59,109.28z M254.21,109.16c-0.22-1.04-0.52-2.05-0.9-3.02l0.45-0.18
				c0.39,0.99,0.7,2.03,0.93,3.1L254.21,109.16z M237.56,109.13c-0.65-0.84-1.2-1.82-1.57-2.86l0.45-0.16
				c0.35,0.99,0.87,1.93,1.49,2.72L237.56,109.13z M260.43,103.49l-0.46-0.12c0.26-0.99,0.43-2.04,0.51-3.11l0.48,0.04
				C260.87,101.4,260.69,102.47,260.43,103.49z M251.88,103.33c-0.57-0.9-1.23-1.73-1.94-2.47l0.34-0.34
				c0.74,0.76,1.42,1.61,2.01,2.54L251.88,103.33z M235.41,103.07v-0.01c0-1.18,0.24-2.25,0.72-3.18l0.43,0.22
				c-0.45,0.86-0.67,1.86-0.67,2.96L235.41,103.07z M247.51,98.89c-0.38-0.24-0.79-0.47-1.19-0.67c-0.52-0.26-1.07-0.48-1.64-0.65
				l0.14-0.46c0.59,0.18,1.16,0.41,1.71,0.68c0.42,0.21,0.84,0.44,1.24,0.7L247.51,98.89z M238.66,97.92l-0.24-0.42
				c0.92-0.52,1.98-0.8,3.17-0.84l0.02,0.48C240.5,97.18,239.51,97.45,238.66,97.92z M260.48,97.11c-0.08-1.05-0.24-2.1-0.48-3.12
				l0.47-0.11c0.24,1.04,0.41,2.12,0.49,3.19L260.48,97.11z M259.09,90.96c-0.35-0.95-0.76-1.93-1.24-2.92l0.43-0.21
				c0.48,1,0.91,2,1.26,2.96L259.09,90.96z M256.36,85.24c-0.5-0.86-1.05-1.75-1.67-2.71l0.4-0.26c0.63,0.97,1.18,1.86,1.68,2.73
				L256.36,85.24z M252.9,79.89c-0.61-0.87-1.22-1.73-1.85-2.6l0.39-0.28c0.63,0.88,1.24,1.74,1.85,2.61L252.9,79.89z"/>
		</g>
	</g>
</g>
</svg>
