<?xml version="1.0" encoding="utf-8"?>
<!-- Generator: Adobe Illustrator 25.2.1, SVG Export Plug-In . SVG Version: 6.00 Build 0)  -->
<svg version="1.1" id="color_line" xmlns="http://www.w3.org/2000/svg" xmlns:xlink="http://www.w3.org/1999/xlink" x="0px" y="0px"
	 viewBox="0 0 512 512" style="enable-background:new 0 0 512 512;" xml:space="preserve">
<style type="text/css">
	.st0{fill:#3F9BD6;}
	.st1{opacity:0.1;}
	.st2{fill:#EEEFEE;}
	.st3{fill:#D03938;}
	.st4{fill:#F8D006;}
	.st5{opacity:0.2;}
</style>
<path class="st0" d="M224.28,45.51h217.36c13.86,0,25.1,11.24,25.1,25.1v389.05c0,13.86-11.24,25.1-25.1,25.1H224.28
	c-13.86,0-25.1-11.24-25.1-25.1V70.61C199.18,56.75,210.41,45.51,224.28,45.51z"/>
<path class="st1" d="M466.22,70.06v389c0,12.06-8.57,22.42-20.41,24.68c0.67-2.38,1.02-4.83,1.03-7.3V87.38
	c-0.02-13.86-11.27-25.08-25.13-25.07h-217.3c-1.58-0.01-3.16,0.14-4.72,0.45c3.24-10.59,13.02-17.83,24.09-17.83h217.3
	c13.87-0.01,25.12,11.23,25.13,25.1C466.22,70.04,466.22,70.05,466.22,70.06L466.22,70.06z"/>
<path class="st2" d="M233.08,100.62h199.74v302.92H233.08L233.08,100.62z"/>
<path d="M307.37,78.41h-7.44c-1.78,0-3.23-1.45-3.23-3.23c0-1.78,1.45-3.23,3.23-3.23h7.44c1.78,0,3.23,1.45,3.23,3.23
	C310.6,76.96,309.15,78.41,307.37,78.41z"/>
<path d="M336.67,78.41h-7.44c-1.78,0-3.23-1.45-3.23-3.23c0-1.78,1.45-3.23,3.23-3.23h7.44c1.78,0,3.23,1.45,3.23,3.23
	C339.9,76.96,338.46,78.41,336.67,78.41z"/>
<path d="M365.98,78.41h-7.45c-1.78,0-3.23-1.45-3.23-3.23c0-1.78,1.45-3.23,3.23-3.23h7.44c1.78,0,3.23,1.45,3.23,3.23
	C369.21,76.96,367.76,78.41,365.98,78.41L365.98,78.41z"/>
<path class="st3" d="M344.73,432.14h-23.55c-6.63-0.01-12.01,5.37-12.02,12c-0.01,6.63,5.37,12.01,12,12.02c0.01,0,0.01,0,0.02,0
	h23.55c6.63-0.01,12-5.39,12-12.02C356.72,437.51,351.35,432.14,344.73,432.14z"/>
<path d="M344.73,459.39h-23.55c-8.42,0.01-15.24-6.81-15.25-15.23c-0.01-8.42,6.81-15.24,15.23-15.25c0.01,0,0.02,0,0.02,0h23.55
	c8.42-0.01,15.24,6.81,15.25,15.23c0.01,8.42-6.81,15.24-15.23,15.25C344.75,459.39,344.74,459.39,344.73,459.39z M321.18,435.37
	c-4.85,0-8.78,3.92-8.79,8.77c0,4.85,3.92,8.78,8.77,8.79c0.01,0,0.01,0,0.02,0h23.55c4.85,0.01,8.78-3.92,8.79-8.77
	c0.01-4.85-3.92-8.78-8.77-8.79c-0.01,0-0.01,0-0.02,0H321.18z"/>
<path d="M179.8,108.49c-1.78,0-3.23-1.45-3.23-3.23v-6.19c0-1.78,1.45-3.23,3.23-3.23s3.23,1.45,3.23,3.23v6.19
	C183.03,107.05,181.58,108.49,179.8,108.49z"/>
<path d="M179.8,88.04c-1.78,0-3.23-1.45-3.23-3.23V70.59c0.14-22.27,15.56-41.52,37.26-46.51c1.74-0.39,3.47,0.7,3.86,2.44
	c0.39,1.74-0.7,3.47-2.44,3.86c-18.77,4.32-32.1,20.97-32.21,40.22v14.21C183.02,86.6,181.57,88.04,179.8,88.04z"/>
<path d="M486.11,319.77c-1.78,0-3.23-1.45-3.23-3.23v-5.92c0-1.78,1.45-3.23,3.23-3.23s3.23,1.45,3.23,3.23v5.92
	C489.34,318.33,487.89,319.77,486.11,319.77z"/>
<path d="M486.11,396.48c-1.78,0-3.23-1.45-3.23-3.23v-61.37c0-1.78,1.45-3.23,3.23-3.23s3.23,1.45,3.23,3.23v61.37
	C489.34,395.03,487.89,396.48,486.11,396.48z"/>
<path d="M441.64,487.99H224.27c-15.64-0.02-28.31-12.69-28.33-28.33V70.61c0.02-15.64,12.69-28.31,28.33-28.33h217.37
	c15.64,0.02,28.31,12.69,28.33,28.33v389.05C469.94,475.3,457.27,487.97,441.64,487.99L441.64,487.99z M224.27,48.74
	c-12.07,0.02-21.85,9.8-21.87,21.87v389.05c0.01,12.07,9.79,21.85,21.87,21.87h217.37c12.07-0.01,21.86-9.8,21.87-21.87V70.61
	c-0.01-12.07-9.8-21.86-21.87-21.87L224.27,48.74z"/>
<path d="M432.83,406.76H233.08c-1.78,0-3.23-1.45-3.23-3.23V100.62c0-1.78,1.45-3.23,3.23-3.23h199.74c1.78,0,3.23,1.45,3.23,3.23
	v302.92C436.06,405.32,434.61,406.76,432.83,406.76z M236.31,400.3H429.6V103.85H236.31V400.3z"/>
<path class="st4" d="M45.09,146.07h301.3c10.76,0,19.48,8.72,19.48,19.48v177c0,10.76-8.72,19.48-19.48,19.48H45.09
	c-10.76,0-19.48-8.72-19.48-19.48v-177C25.61,154.8,34.33,146.07,45.09,146.07z"/>
<path class="st2" d="M55.85,305.68V202.43c17.31,0,31.34-14.03,31.35-31.34c0,0,0,0,0-0.01h217.12c0,17.31,14.03,31.34,31.34,31.35
	c0,0,0.01,0,0.01,0v103.25c-17.31,0-31.34,14.04-31.34,31.35H87.2c0-17.31-14.03-31.35-31.34-31.35
	C55.85,305.68,55.85,305.68,55.85,305.68z"/>
<path d="M304.29,339.98H87.16c-1.63,0-2.95-1.32-2.95-2.95c-0.02-15.67-12.72-28.37-28.39-28.39c-1.63,0-2.95-1.32-2.95-2.95V202.44
	c0-1.63,1.32-2.95,2.95-2.95c15.67-0.02,28.38-12.72,28.4-28.39c0-1.63,1.32-2.95,2.95-2.95h217.12c1.63,0,2.95,1.32,2.95,2.95
	c0.02,15.67,12.72,28.37,28.4,28.39c1.63,0,2.95,1.32,2.95,2.95v103.25c0,1.63-1.32,2.95-2.95,2.95
	c-15.67,0.02-28.37,12.72-28.39,28.4C307.25,338.67,305.92,339.98,304.29,339.98C304.29,339.98,304.29,339.98,304.29,339.98z
	 M90.01,334.08h211.45c1.46-16.6,14.62-29.76,31.22-31.22v-97.62c-16.6-1.46-29.76-14.62-31.22-31.22H90.01
	c-1.46,16.6-14.62,29.76-31.22,31.22v97.62C75.4,304.32,88.56,317.48,90.01,334.08L90.01,334.08z"/>
<path class="st3" d="M129.97,193.97h-4.3c-2.12,0-3.84-1.71-3.84-3.83c0-2.12,1.71-3.84,3.83-3.84c0,0,0.01,0,0.01,0h4.3
	c2.12,0,3.83,1.72,3.83,3.84C133.8,192.25,132.08,193.96,129.97,193.97z"/>
<path class="st3" d="M71.52,225.31c-2.12,0-3.83-1.72-3.83-3.84c0-2.11,1.72-3.83,3.83-3.83c15.19-0.02,27.5-12.32,27.51-27.51
	c0-2.12,1.72-3.84,3.84-3.84h8.06c2.12,0,3.83,1.72,3.83,3.84c0,2.11-1.72,3.83-3.83,3.83h-4.43
	C104.52,211.8,89.46,225.29,71.52,225.31z"/>
<circle class="st4" cx="195.74" cy="254.05" r="53.81"/>
<path d="M195.74,310.82c-31.35,0-56.76-25.41-56.76-56.76c0-31.35,25.41-56.76,56.76-56.76s56.76,25.41,56.76,56.76
	C252.47,285.39,227.07,310.79,195.74,310.82L195.74,310.82z M195.74,203.19c-28.09,0-50.86,22.77-50.86,50.86
	s22.77,50.86,50.86,50.86s50.86-22.77,50.86-50.86c-0.05-28.07-22.8-50.81-50.86-50.84L195.74,203.19z"/>
<path d="M192.58,287.69v-4.87c-5.03-0.02-9.95-1.43-14.22-4.09l2.23-6.23c3.99,2.59,8.63,3.97,13.38,3.99
	c6.6,0,11.06-3.81,11.06-9.11c0-5.11-3.62-8.26-10.5-11.06c-9.48-3.72-15.34-7.99-15.34-16.08c0.12-7.86,6.2-14.34,14.04-14.96
	v-4.87h5.76v4.5c4.24,0.03,8.4,1.16,12.08,3.26l-2.32,6.14c-3.54-2.11-7.59-3.2-11.71-3.16c-7.16,0-9.85,4.28-9.85,7.99
	c0,4.83,3.44,7.25,11.52,10.62c9.58,3.91,14.41,8.74,14.41,17.01c-0.15,8.24-6.48,15.05-14.69,15.8v5.14L192.58,287.69z"/>
<path d="M95.27,244.12c-1.63,0-2.95-1.32-2.95-2.95s1.32-2.95,2.95-2.95l17.4-0.06c1.63,0,2.95,1.32,2.95,2.95s-1.32,2.95-2.95,2.95
	L95.27,244.12z"/>
<path d="M95.35,269.94c-1.63,0-2.95-1.32-2.95-2.95s1.32-2.95,2.95-2.95l17.4-0.06c1.63,0,2.95,1.32,2.95,2.95s-1.32,2.95-2.95,2.95
	L95.35,269.94z"/>
<path d="M296.21,244.12l-17.4-0.06c-1.63,0-2.95-1.32-2.95-2.95s1.32-2.95,2.95-2.95l17.4,0.06c1.63,0,2.95,1.32,2.95,2.95
	S297.84,244.12,296.21,244.12z"/>
<path d="M296.13,269.94l-17.41-0.05c-1.63,0-2.95-1.32-2.95-2.95c0-1.63,1.32-2.95,2.95-2.95l17.4,0.06c1.63,0,2.95,1.32,2.95,2.95
	C299.07,268.63,297.75,269.95,296.13,269.94L296.13,269.94z"/>
<path d="M161.56,382.69h-5.41c-1.63,0-2.95-1.32-2.95-2.95c0-1.63,1.32-2.95,2.95-2.95h5.41c1.63,0,2.95,1.32,2.95,2.95
	C164.51,381.36,163.19,382.69,161.56,382.69z"/>
<path d="M141.65,382.69H79.2c-1.63,0-2.95-1.32-2.95-2.95c0-1.63,1.32-2.95,2.95-2.95h62.45c1.63,0,2.95,1.32,2.95,2.95
	C144.6,381.36,143.27,382.69,141.65,382.69z"/>
<path d="M296.64,134.48h-6.27c-1.63,0-2.95-1.32-2.95-2.95c0-1.63,1.32-2.95,2.95-2.95h6.27c1.63,0,2.95,1.32,2.95,2.95
	C299.59,133.16,298.27,134.48,296.64,134.48L296.64,134.48z"/>
<path d="M368.72,143.14c-0.69,0-1.36-0.24-1.89-0.68c-6.16-5.14-13.92-7.97-21.94-7.98h-33.93c-1.63,0-2.95-1.32-2.95-2.95
	c0-1.63,1.32-2.95,2.95-2.95h33.93c9.4,0.01,18.51,3.32,25.72,9.35c1.25,1.04,1.42,2.9,0.38,4.15
	C370.43,142.76,369.6,143.14,368.72,143.14z"/>
<path class="st5" d="M365.87,165.67v177.06c0.01,9.55-6.92,17.69-16.35,19.2c0.19-1.05,0.29-2.12,0.3-3.19V181.66
	c-0.04-10.76-8.77-19.46-19.53-19.47H30.03c-1.05-0.02-2.1,0.08-3.13,0.29c1.52-9.4,9.65-16.31,19.18-16.28h300.31
	c10.75-0.01,19.48,8.71,19.48,19.46C365.87,165.66,365.87,165.66,365.87,165.67L365.87,165.67z"/>
<path d="M346.39,364.99H45.08c-12.37-0.02-22.4-10.05-22.42-22.42v-177c0.02-12.37,10.05-22.4,22.42-22.42h301.31
	c12.37,0.02,22.4,10.05,22.42,22.42v177C368.79,354.94,358.76,364.97,346.39,364.99z M45.08,149.02c-9.12,0.02-16.5,7.4-16.52,16.52
	v177c0.02,9.12,7.4,16.5,16.52,16.52h301.31c9.12-0.02,16.5-7.4,16.52-16.52v-177c-0.02-9.12-7.4-16.5-16.52-16.52H45.08z"/>
</svg>
