<?xml version="1.0" encoding="utf-8"?>
<!-- Generator: Adobe Illustrator 24.0.1, SVG Export Plug-In . SVG Version: 6.00 Build 0)  -->
<svg version="1.1" id="Layer_1" xmlns="http://www.w3.org/2000/svg" xmlns:xlink="http://www.w3.org/1999/xlink" x="0px" y="0px"
	 viewBox="0 0 496 496" style="enable-background:new 0 0 496 496;" xml:space="preserve">
<style type="text/css">
	.st0{fill:#ED1B2F;}
	.st1{fill:#4D4D4F;}
	.st2{fill:#FFFFFF;}
</style>
<path class="st0" d="M300.5,253v95.3c-9.4,1.7-16.5,9.8-16.5,19.7s7.1,18,16.5,19.7V451l-115.1-71.2l-6.9-4.3
	c0.9-2.3,1.5-4.9,1.5-7.5c0-11-9-20-20-20c-6,0-11.3,2.6-15,6.8l-4.5-2.8l19.4-12l38.8-24l12.9-8L300.5,253z"/>
<path class="st0" d="M248,168.7c-44.5,0-80.7-36.2-80.7-80.7S203.5,7.3,248,7.3s80.7,36.2,80.7,80.7S292.5,168.7,248,168.7z"/>
<g>
	<rect x="452" y="324" class="st1" width="8" height="56"/>
</g>
<g>
	<rect x="452" y="404" class="st1" width="8" height="8"/>
</g>
<g>
	<rect x="452" y="292" class="st1" width="8" height="8"/>
</g>
<g>
	<rect x="36" y="332" class="st1" width="8" height="40"/>
</g>
<g>
	<path class="st1" d="M178.5,375.5c-3,7.3-10.2,12.5-18.5,12.5c-11,0-20-9-20-20c0-5.1,1.9-9.7,5-13.2l-4.5-2.8l19.4-12
		c-15.4,0-27.9,12.6-27.9,28c0,15.4,12.6,28,28,28c11.2,0,21-6.7,25.4-16.2L178.5,375.5z M456,212h-86.2l19.5-104H448
		c11,0,20-9,20-20s-9-20-20-20h-42.7c-9.6,0-17.9,6.9-19.7,16.3l-15,79.7H147.3c-17.3,0-31.3,14-31.3,31.3c0,3.6,0.6,7.1,1.8,10.5
		l2.2,6.2H40c-19.8,0-36,16.2-36,36v208c0,19.8,16.2,36,36,36h416c19.8,0,36-16.2,36-36V248C492,228.2,475.8,212,456,212z
		 M393.5,85.8c1.1-5.7,6-9.8,11.8-9.8H448c6.6,0,12,5.4,12,12s-5.4,12-12,12h-57.2L393.5,85.8z M124.4,191.3
		c1.9-11.2,11.6-19.3,22.9-19.3h221.9l-26.5,141.5l-4.9-2.8c-3.1-1.8-6.4-2.7-9.8-2.7H171.3c-5.1,0-9.6-3.2-11.3-8l-34.3-96H300v-8
		H123.6L124.4,191.3z M68,484H40c-15.4,0-28-12.6-28-28V248c0-15.4,12.6-28,28-28h28V484z M420,484H76V220h46.9l29.5,82.7
		c2.8,7.9,10.4,13.3,18.8,13.3H328c6.6,0,12,5.4,12,12s-5.4,12-12,12H159.9c-15.4,0-27.9,12.6-27.9,28c0,15.4,12.6,28,28,28
		c11.2,0,21-6.7,25.4-16.2c1.7-3.6,2.6-7.6,2.6-11.8c0-4.8-1.3-9.5-3.9-14l-3.5-6h102.8l-3.5,6c-2.6,4.4-3.9,9.1-3.9,14
		c0,14.3,10.7,26.1,24.5,27.8c1.1,0.1,2.3,0.2,3.5,0.2c15.4,0,28-12.6,28-28c0-5-1.4-9.8-4.1-14.3l-3.1-5.2l6-0.8
		c9.3-1.3,16.5-9.1,17.1-18.5l0.2-3.8h0.5L368.3,220H420V484z M324,368c0,11-9,20-20,20c-1.2,0-2.4-0.1-3.5-0.3
		c-9.4-1.7-16.5-9.8-16.5-19.7s7.1-18,16.5-19.7c1.1-0.2,2.3-0.3,3.5-0.3C315,348,324,357,324,368z M178.5,375.5
		c-3,7.3-10.2,12.5-18.5,12.5c-11,0-20-9-20-20c0-5.1,1.9-9.7,5-13.2c3.7-4.2,9-6.8,15-6.8c11,0,20,9,20,20
		C180,370.7,179.5,373.2,178.5,375.5z M484,456c0,15.4-12.6,28-28,28h-28V220h28c15.4,0,28,12.6,28,28V456z M178.5,375.5
		c-3,7.3-10.2,12.5-18.5,12.5c-11,0-20-9-20-20c0-5.1,1.9-9.7,5-13.2l-4.5-2.8l19.4-12c-15.4,0-27.9,12.6-27.9,28
		c0,15.4,12.6,28,28,28c11.2,0,21-6.7,25.4-16.2L178.5,375.5z"/>
</g>
<g>
	<path class="st2" d="M268,104c0,8.4-5.4,15.9-13.3,18.8l-2.7,1V140h-8v-16.3l-2.7-1c-6.7-2.4-11.5-8.1-12.9-14.8h8.3
		c1.7,4.7,6.1,8,11.3,8c6.6,0,12-5.4,12-12s-5.4-12-12-12c-11,0-20-9-20-20c0-8.4,5.4-15.9,13.3-18.8l2.7-1V36h8v16.3l2.7,1
		c6.7,2.4,11.5,8.1,12.9,14.8h-8.3c-1.7-4.7-6.1-8-11.3-8c-6.6,0-12,5.4-12,12s5.4,12,12,12C259,84,268,93,268,104z"/>
</g>
<g>
	<rect x="292" y="84" class="st2" width="8" height="8"/>
</g>
<g>
	<rect x="196" y="84" class="st2" width="8" height="8"/>
</g>
<g>
	<rect x="324" y="196" class="st1" width="8" height="8"/>
</g>
</svg>
