<?xml version="1.0" encoding="utf-8"?>
<!-- Generator: Adobe Illustrator 24.0.1, SVG Export Plug-In . SVG Version: 6.00 Build 0)  -->
<svg version="1.1" id="Layer_1" xmlns="http://www.w3.org/2000/svg" xmlns:xlink="http://www.w3.org/1999/xlink" x="0px" y="0px"
	 viewBox="0 0 300 220" style="enable-background:new 0 0 300 220;" xml:space="preserve">
<style type="text/css">
	.st0{fill:#ED1B2F;}
	.st1{fill:#FFFFFF;}
</style>
<rect y="0" width="300" height="220"/>
<g>
	<polygon class="st0" points="76,105.3 147.7,149.7 76,194.1 	"/>
	<g>
		<g>
			<path class="st1" d="M198.5,35.2c0-3.5,0-7,0-10.5c0-3-1.8-4.8-4.9-4.8c-0.8,0-1.6,0-2.5,0c-1.2,0-2.4,0-3.6,0
				c-2.2,0-3.6,0.8-4.6,2.7c-4.9,10-13.2,15-24.6,14.9c-13.4-0.1-27.1-0.1-40.3,0h-8.8c-7,0-12.4,4.6-13.4,11.5
				c-0.3,1.9-0.2,3.8-0.2,5.8c0,0.9,0,1.8,0,2.7c0,0.5,0,0.9,0,1.4c0,1.8,0,3.5,0.1,5.2c0.4,3.3,2.1,6.2,5.1,8.8l2.1,1.7l-2.6,0.8
				c-3.3,1-5.7,2.7-7.4,5.2c-1.8,2.6-4.1,6.1-6.4,9.6c-1.9,2.9-2.8,6.3-2.7,10c0,1.7,0.5,3.3,0.9,5.1l0.6,2.6h-6.6
				c-3.4,0-6.9,0-10.3,0c-5.3,0-8.2,2.9-8.2,8.2c0,6,0,12,0,18c0,14.7,0,29.8-0.1,44.8c0,2.4,0.8,4.6,2.4,6.1
				c1.5,1.5,3.6,2.3,5.9,2.2c5.5-0.1,11-0.1,16.4-0.1c3,0,6.2,0,9.3,0l0,0c1.5,0,2.6,0.5,3.6,1.5c2.7,2.8,5.6,5.6,8.5,8.5
				c1.9,1.8,3.9,2.3,6.2,1.3c2.3-1,3.5-2.8,3.5-5.4c0-1,0-2,0-3v-2.9h10.6c5.6,0,11.3,0,16.9,0c4.6,0,7.7-3.1,7.7-7.6
				c0-20.6,0-42.1,0-64c0-4.5-3.1-7.6-7.7-7.6c-0.7,0-1.3,0-2,0h-2.8l0.4-2c0.2-1.1,0.4-2,0.4-2.8c0-3.8,0-7.6,0-11.4
				c0-1.8,0-3.6,0-5.4c0-3.2-1.4-5.5-4.4-7l0,0c-1.5-0.4-1.7-1.5-1.7-2.2l0.1-1.4h1.4c2.6,0,5.2,0,7.8,0c6.2,0,12.5-0.1,18.8,0.1
				c4.9,0.1,9.6,1.9,13.8,5.3c3.1,2.4,5.6,5.6,7.3,9.4c0.9,2,2.4,2.9,4.6,2.9c1.3,0,2.6,0,3.8,0c0.7,0,1.4,0,2.1,0c3.3,0,5-1.7,5-5
				l0.1-14.8V39.7L198.5,35.2z M98.7,62.6c-0.1-4-0.1-8.1,0-12.1c0.1-5.2,4.1-9.6,9.3-10.1c0.5-0.1,1.1,0,1.6,0h0.4
				c3.4,0,6.9,0,10.3,0h4.8v32.2h-1.5c-1.6,0-3.2,0-4.8,0c-1.6,0-3.2,0-4.7,0c-2.1,0-4.2,0-6.3-0.2C102.8,72.2,98.8,67.9,98.7,62.6z
				 M89.1,91.9c1.7-2.8,3.6-5.5,5.4-8.2l1-1.5c1.8-2.6,4.4-4,8.1-4.4l2.5-0.2c6.5-0.6,13-1.3,19.5-2c0.9-0.1,3.4-0.3,4.8,2.1
				c0.9,1.6,0.7,3.3-0.4,5.1c-0.9,1.5-2.3,2.3-4.4,2.7c-3.2,0.5-6.3,1-9.6,1.6l-2.6,0.4c0,6.9-3.1,11.7-9.2,14.1l0.7,2.8
				c2-0.6,3.9-1.7,6-3.4l2.4-2v14.6h-11.6c-2.4,0-4.8,0-7.2,0c-0.1,0-0.1,0-0.2,0s-0.2,0-0.3,0c-0.7,0-1.8-0.2-2.4-1.5
				c-0.4-1-0.9-2-1.5-3c-1.1-2.1-2.2-4.3-2.7-6.8C86.5,98.7,87.1,95.2,89.1,91.9z M73,182.5l-0.5,1.7h-1.1c-0.4,0-0.7,0-1.1,0
				s-0.7,0-1.1,0c-0.5,0-0.9,0-1.4,0c-2.5-0.1-4.2-1.7-4.3-4.2c0-0.4,0-0.7,0-1.1v-0.3v-62c0-1.7,0.2-3.4,1.3-4.5
				c1.1-1,2.6-1.3,4.5-1.3h3.4c3.9,0,7.9,0,11.8,0c0.1,0,0.3,0,0.4,0c0.7-0.1,2.4-0.4,3.2,1.3c0.1,0.2,0.2,0.4,0.4,0.7
				c0.6,1.1,1.4,2.5,0.9,4.4c-1.2,4.3-2.2,8.7-3.3,13l-0.9,3.5c-2.3,9.1-4.5,18.2-6.8,27.2l-5.1,20.3C73.2,181.6,73.1,182,73,182.5z
				 M119.2,124.7c0,0.1,0,0.2,0,0.2c0,5.4,0,10.8,0,16.1v43.1h-5.9v6.2c0,0.2,0,0.5,0,0.7c0,0.6,0,1.1,0,1.6
				c0.1,1.7-0.8,2.5-1.6,2.9c-0.4,0.2-0.8,0.3-1.2,0.3c-1.1,0-1.8-0.7-2.1-1.1c-0.8-0.8-1.5-1.5-2.3-2.3c-0.6-0.6-1.2-1.2-1.8-1.8
				c-0.6-0.6-1.1-1.1-1.7-1.7c-1.3-1.3-2.6-2.6-3.9-4c-0.6-0.7-1.1-0.9-2.1-0.9c-4.6,0.1-9.2,0-14,0c-1.7,0-3.4,0-5.2,0h-1.9
				l16.9-67.5h4.9c4.8,0,9.5,0,14.3,0c0.4,0,1.8,0,2.5,1.5c0.8,1.7,1.9,2.9,3.5,3.6C119.4,122.5,119.3,124.1,119.2,124.7z
				 M120.8,119.6c-2.6-0.1-4.4-1.8-4.4-4.2c0-5.9,0-11.9,0-17.7c0-2.1,0-4.2,0-6.3v-1.2l8.8-1.5v1.7c0,1.3,0,2.6,0,3.9
				c0,2.9,0,5.7,0,8.6c0,3.4,1.3,5.8,4.3,7.3l0.1,0.1c0.4,0.2,1.3,0.6,1.4,1.6c0,0.3,0,0.6,0.1,0.9c0.1,1.5,0.3,3.1-0.6,4.8
				c-0.8,1.5-2.2,2.3-4.2,2.3c-0.1,0-0.1,0-0.2,0c-0.8,0-1.6,0-2.4,0C122.6,119.6,121.7,119.6,120.8,119.6z M138.1,110.8
				c2,0,4.1,0,6.2,0c2.3,0.1,4.1,1.7,4.2,4.2c0,0.7,0,1.3,0,1.9v0.6c0,20.3,0,40.7,0,61c0,4.1-1.5,5.6-5.5,5.6h-20.8v-61.4l1.4-0.1
				c8.6-0.5,9.4-1.4,10.4-10.5l0.1-1.3h1.3C136.4,110.8,137.2,110.8,138.1,110.8z M134,81.8l1.4,1c1.5,1.1,1.5,2.7,1.5,3.5v4.9
				c0,3.9,0,7.8,0,11.7c0,1.5-0.5,2.8-1.4,3.7c-0.8,0.8-1.8,1.2-3,1.2h-0.1c-2.6,0-4.3-2-4.3-5c0-3.8,0-7.8,0-12.8
				c0-0.1,0-0.1,0-0.2c0-0.5-0.1-1.8,1.3-2.6c1.6-0.8,2.8-2.1,3.9-4.1L134,81.8z M183.7,84.5l-3-2.8c-0.3-0.3-0.6-0.6-1-0.9
				c-5.4-5.3-11.9-8-19.2-8.1c-7.2-0.1-14.5-0.1-21.5,0c-3.1,0-6.3,0-9.4,0h-1.5V41.4l0.5-0.4c0.8-0.7,1.8-0.6,2.3-0.6
				c0.1,0,0.2,0,0.3,0c2.3,0,4.6,0,6.9,0c6.8,0,13.8,0,20.6,0c8.9,0.1,16-2.9,21.9-9.1c0.2-0.2,0.3-0.3,0.5-0.4
				c0.1,0,0.1-0.1,0.2-0.2l2.4-1.8V84.5z M195.4,90.2h-8.6V22.8h8.6V90.2z"/>
		</g>
		<path class="st0" d="M188.1,110.7c0,6.3,0,12.6,0,19c-7.7,0-15.5,0-23.3,0c0-7.7,0-15.4,0-23.3c6.3,0,12.7,0,19,0
			c-3.1,3.2-6.2,6.4-9.4,9.7c1.4,1.4,2.7,2.8,4.6,4.4C182.1,117.2,185.1,114,188.1,110.7z"/>
		<path class="st0" d="M188.1,146c0,6.3,0,12.6,0,19c-7.8,0-15.5,0-23.3,0c0-7.7,0-15.4,0-23.3c6.3,0,12.7,0,19,0
			c-3.1,3.2-6.2,6.4-9.1,9.3c1.3,1.5,2.5,2.9,4.2,4.8C182.1,152.4,185.1,149.2,188.1,146z"/>
		<path class="st0" d="M188.1,181.2c0,6.3,0,12.6,0,19c-7.8,0-15.5,0-23.3,0c0-7.7,0-15.4,0-23.3c6.3,0,12.7,0,19,0
			c-3.1,3.2-6.2,6.4-9.4,9.7c1.5,1.4,2.7,2.8,4.6,4.4C182.1,187.6,185.1,184.4,188.1,181.2z"/>
		<path class="st0" d="M200,73.4c0-11.2,0-22.5,0-33.7c5.8,2.3,9.5,6.4,11.1,12.4c2.2,8.5-2.1,17.2-10.1,20.8
			C200.7,73.1,200.3,73.2,200,73.4z"/>
		<g>
			<rect x="201.5" y="119.7" class="st1" width="38" height="2.8"/>
		</g>
		<g>
			<rect x="201.5" y="154.9" class="st1" width="38" height="2.8"/>
		</g>
		<g>
			<rect x="201.5" y="190.1" class="st1" width="38" height="2.7"/>
		</g>
		<g>
			<path class="st1" d="M193.9,173.2l-6.8,7l-8.2,8.8c-0.8-0.7-1.5-1.4-2.1-2c-0.1-0.1-0.2-0.2-0.3-0.3l8.4-8.6l7-6.8L193.9,173.2z"
				/>
		</g>
		<g>
			<polygon class="st1" points="193.9,138 187.1,144.9 179,153.6 176.8,151 184.8,142.7 191.8,135.9 			"/>
		</g>
		<g>
			<path class="st1" d="M194,102.7l-6.9,7.1l-8.2,8.7c-0.9-0.8-1.6-1.6-2.4-2.3l8.4-8.6l7.1-6.9L194,102.7z"/>
		</g>
		<g>
			<polygon class="st1" points="225.7,69.2 224.5,71.9 216.4,68.5 217.5,65.8 			"/>
		</g>
		<g>
			<path class="st1" d="M225.6,43.8l-8.1,3.4c-0.3-0.7-0.6-1.4-0.9-2.2c-0.1-0.2-0.1-0.3-0.2-0.5l8.1-3.4L225.6,43.8z"/>
		</g>
		<g>
			<rect x="219.1" y="55.2" class="st1" width="8.6" height="2.7"/>
		</g>
		<g>
			<rect x="166.3" y="49.3" class="st1" width="2.8" height="14.5"/>
		</g>
	</g>
</g>
</svg>
