<?xml version="1.0" encoding="utf-8"?>
<!-- Generator: Adobe Illustrator 24.0.1, SVG Export Plug-In . SVG Version: 6.00 Build 0)  -->
<svg version="1.1" id="Layer_1" xmlns="http://www.w3.org/2000/svg" xmlns:xlink="http://www.w3.org/1999/xlink" x="0px" y="0px"
	 viewBox="0 0 300 220" style="enable-background:new 0 0 300 220;" xml:space="preserve">
<style type="text/css">
	.st0{fill:#ED1B2F;}
	.st1{fill:#FFFFFF;}
</style>
<rect y="0" width="300" height="220"/>
<g>
	<polygon class="st0" points="216.2,149.6 158.1,113.7 216.2,77.7 	"/>
	<path class="st0" d="M137.6,144.1H63.2c-3.4,0-6.2-2.8-6.2-6.2v-15.5h80.6V144.1z"/>
	<g>
		<rect x="182.3" y="188.8" class="st1" width="16.1" height="3.7"/>
	</g>
	<g>
		<rect x="179.2" y="27.6" class="st1" width="22.3" height="3.7"/>
	</g>
	<g>
		<rect x="210.2" y="27.6" class="st1" width="3.7" height="3.7"/>
	</g>
	<g>
		<rect x="166.8" y="27.6" class="st1" width="3.7" height="3.7"/>
	</g>
	<g>
		<rect x="67.6" y="129.9" class="st1" width="3.7" height="3.7"/>
	</g>
	<g>
		<rect x="80" y="129.9" class="st1" width="3.7" height="3.7"/>
	</g>
	<g>
		<rect x="92.4" y="129.9" class="st1" width="3.6" height="3.7"/>
	</g>
	<g>
		<path class="st1" d="M230.6,15.1H150c-7.8,0-14.2,6.4-14.2,14.2V74H63.2c-4.4,0-8,3.6-8,8v55.8c0,4.4,3.6,8,8,8h72.6v44.7
			c0,7.8,6.4,14.2,14.2,14.2h80.6c7.8,0,14.2-6.4,14.2-14.2V29.4C244.9,21.5,238.5,15.1,230.6,15.1z M135.8,103.6l-0.6,0.4
			c-1.2,0.7-2.4,1.1-3.8,1.1c-2.2,0-4.3-1-5.7-2.7c-1.2-1.4-1.8-3-1.8-4.8c0-0.4,0-0.9,0.1-1.4c0.5-2.9,2.9-5.4,5.8-6
			c1.9-0.4,3.7-0.1,5.4,0.9l0.6,0.4L135.8,103.6L135.8,103.6z M135.8,87.2l-1.6-0.4c-1.7-0.4-3.4-0.5-5.2-0.1
			c-1.1,0.2-2.2,0.7-3.2,1.3l-0.6,0.4l-0.6-0.4c-1.7-1-3.6-1.5-5.6-1.5c-6.1,0-11.1,5-11.1,11.1s5,11.1,11.1,11.1
			c2,0,3.9-0.5,5.6-1.5l0.6-0.4l0.6,0.4c1.8,1,3.6,1.5,5.5,1.5c0.8,0,1.7-0.1,2.8-0.4l1.6-0.4v34.4H63.2c-2.4,0-4.4-2-4.4-4.4V82.1
			c0-2.4,2-4.4,4.4-4.4h72.6V87.2z M121.7,103l0.8,1.4l-1.6,0.4c-0.7,0.2-1.3,0.3-1.9,0.3c-4.1,0-7.5-3.4-7.5-7.5s3.4-7.5,7.5-7.5
			c0.6,0,1.2,0.1,1.9,0.3l1.6,0.4l-0.8,1.4c-0.6,1.1-1,2.3-1.2,3.4C120,98.1,120.4,100.7,121.7,103z M241.2,190.6
			c0,5.8-4.7,10.6-10.6,10.6H150c-5.8,0-10.6-4.7-10.6-10.6V180h101.8V190.6z M241.2,176.4H139.4V43.6h101.8V176.4z M241.2,40H139.4
			V29.4c0-5.8,4.8-10.6,10.6-10.6h80.6c5.8,0,10.6,4.7,10.6,10.6L241.2,40L241.2,40z"/>
	</g>
	<g>
		<rect x="67.6" y="86.5" class="st1" width="16.1" height="3.7"/>
	</g>
	<path class="st1" d="M192.3,121.3c9,0,13.9-7.5,13.9-13.9c0-0.2,0-0.4,0-0.6c1-0.7,1.8-1.6,2.4-2.5c-0.9,0.4-1.8,0.7-2.8,0.8
		c1-0.6,1.8-1.6,2.2-2.7c-0.9,0.6-2,1-3.1,1.2c-0.9-1-2.2-1.5-3.6-1.5c-2.7,0-4.9,2.2-4.9,4.9c0,0.4,0,0.8,0.1,1.1
		c-4.1-0.2-7.7-2.2-10.1-5.1c-0.4,0.7-0.7,1.6-0.7,2.5c0,1.7,0.9,3.2,2.2,4.1c-0.8,0-1.6-0.2-2.2-0.6c0,0,0,0,0,0.1
		c0,2.4,1.7,4.4,3.9,4.8c-0.4,0.1-0.8,0.2-1.3,0.2c-0.3,0-0.6,0-0.9-0.1c0.6,1.9,2.4,3.4,4.6,3.4c-1.7,1.3-3.8,2.1-6.1,2.1
		c-0.4,0-0.8,0-1.2-0.1C187,120.5,189.5,121.3,192.3,121.3"/>
</g>
</svg>
