<?xml version="1.0" encoding="utf-8"?>
<!-- Generator: Adobe Illustrator 24.0.1, SVG Export Plug-In . SVG Version: 6.00 Build 0)  -->
<svg version="1.1" id="Layer_1" xmlns="http://www.w3.org/2000/svg" xmlns:xlink="http://www.w3.org/1999/xlink" x="0px" y="0px"
	 viewBox="0 0 300 220" style="enable-background:new 0 0 300 220;" xml:space="preserve">
<style type="text/css">
	.st0{fill:#ED1B2F;}
	.st1{fill:#FFFFFF;}
</style>
<rect y="0" width="300" height="220"/>
<g>
	<polygon class="st0" points="59.3,50.3 134.8,97 59.3,143.7 	"/>
	<g>
		<g>
			<path class="st1" d="M109.1,191.8c0,7.6-6.2,13.7-13.7,13.7h-0.7c-7.6,0-13.7-6.2-13.7-13.7c0-0.3,0-0.6,0-0.8l3-49.2l3,0.2
				l-3,49.2c0,0.2,0,0.4,0,0.6c0,5.8,4.7,10.6,10.6,10.6h0.7c5.8,0,10.6-4.7,10.6-10.6c0-0.2,0-0.4,0-0.6l-3-49.2l2.4-0.1h0.8l0.1,1
				l3,48.2C109,191.3,109.1,191.6,109.1,191.8z"/>
		</g>
		<path class="st0" d="M167,110h25v25.1h-25V110z"/>
		<g>
			<rect x="168.5" y="108.4" class="st1" width="22" height="3.2"/>
		</g>
		<g>
			<rect x="168.5" y="121" class="st1" width="22" height="3.2"/>
		</g>
		<g>
			<rect x="168.5" y="133.5" class="st1" width="22" height="3.2"/>
			<path d="M192.9,139.8h0.7v-0.7C193.4,139.3,193.1,139.5,192.9,139.8z"/>
		</g>
		<g>
			<path class="st1" d="M215.5,98.4l-0.1-2.5h-56.1V39.8l-2.5-0.1c-0.8-0.1-1.5-0.1-2.2-0.1c-15.3,0-29.9,5.6-41.1,15.9l2.2,2.3
				c10.7-9.7,24.4-15,38.9-15h1.5V96h-15.7v3.2H156v59.5h-1.5c-16.8,0-32.7-7.2-43.7-19.9l-1.7,1.4l-0.7,0.6
				c0.3,0.3,0.5,0.6,0.8,0.9c11.6,12.8,28,20.2,45.4,20.2c33.7,0,61.1-27.4,61.1-61.1C215.5,99.9,215.5,99.1,215.5,98.4z
				 M212.4,100.6c0,14.3-5.3,28.1-14.9,38.7c-9.5,10.6-22.5,17.3-36.6,18.8l-1.7,0.2V99.1h53.2V100.6z"/>
			<path d="M192.9,139.8h0.7v-0.7C193.4,139.3,193.1,139.5,192.9,139.8z M192.9,139.8h0.7v-0.7C193.4,139.3,193.1,139.5,192.9,139.8
				z M192.9,139.8h0.7v-0.7C193.4,139.3,193.1,139.5,192.9,139.8z M192.9,139.8h0.7v-0.7C193.4,139.3,193.1,139.5,192.9,139.8z
				 M192.9,139.8h0.7v-0.7C193.4,139.3,193.1,139.5,192.9,139.8z M192.9,139.8h0.7v-0.7C193.4,139.3,193.1,139.5,192.9,139.8z
				 M192.9,139.8h0.7v-0.7C193.4,139.3,193.1,139.5,192.9,139.8z M192.9,139.8h0.7v-0.7C193.4,139.3,193.1,139.5,192.9,139.8z
				 M192.9,139.8h0.7v-0.7C193.4,139.3,193.1,139.5,192.9,139.8z"/>
		</g>
		<g>
			<path class="st1" d="M224.5,67.3l-3,1c-0.4-1.1-0.8-2.2-1.3-3.2l2.9-1.4C223.6,65,224,66.2,224.5,67.3z"/>
		</g>
		<g>
			<path class="st1" d="M218.1,54.6l-2.7,1.7c-6.9-10.4-17-18.4-28.7-22.7l1-3C200.1,35.1,210.8,43.6,218.1,54.6z"/>
		</g>
		<g>
			<path class="st1" d="M240.6,84.9C239,47,208.1,16.1,170.2,14.5l-1.7-0.1v72.2h72.2L240.6,84.9z M171.7,83.4V17.7l1.7,0.2
				c16.3,1.5,31.7,8.7,43.4,20.5c11.7,11.7,19,27.1,20.5,43.4l0.2,1.7L171.7,83.4L171.7,83.4z"/>
		</g>
		<g>
			<rect x="181.1" y="70.9" class="st1" width="3.2" height="3.2"/>
		</g>
		<g>
			<rect x="193.6" y="70.9" class="st1" width="3.2" height="3.2"/>
		</g>
		<g>
			<rect x="206.1" y="70.9" class="st1" width="3.2" height="3.2"/>
		</g>
		<g>
			<path class="st1" d="M93.4,152.3v3.2h3.2v-3.2H93.4z M93.4,164.8v3.2h3.2v-3.2H93.4z M93.4,177.4v3.2h3.2v-3.2H93.4z"/>
		</g>
		<g>
			<path class="st1" d="M94.9,64.6C76.8,64.6,62,79.4,62,97.5s14.8,32.9,32.9,32.9s32.9-14.8,32.9-32.9S113.1,64.6,94.9,64.6z
				 M113.6,120.6c-5.3,4.3-11.9,6.6-18.6,6.6s-13.4-2.3-18.6-6.6l-3.4-2.8h44L113.6,120.6z M77.7,114.7V99.1h9.4v15.6H77.7z
				 M90.3,114.7V80.3h9.4v34.4C99.7,114.7,90.3,114.7,90.3,114.7z M102.8,114.7V92.8h9.4v21.9C112.2,114.7,102.8,114.7,102.8,114.7z
				 M119.2,114.7h-3.9v-25h-12.5V77.1H87.1v18.8H74.6v18.8h-3.9l-0.5-0.7c-3.3-4.9-5-10.6-5-16.5c0-16.4,13.3-29.7,29.7-29.7
				s29.7,13.3,29.7,29.7c0,5.9-1.7,11.6-5,16.5L119.2,114.7z"/>
		</g>
	</g>
</g>
</svg>
