<?xml version="1.0" encoding="utf-8"?>
<!-- Generator: Adobe Illustrator 24.0.1, SVG Export Plug-In . SVG Version: 6.00 Build 0)  -->
<svg version="1.1" id="Layer_1" xmlns="http://www.w3.org/2000/svg" xmlns:xlink="http://www.w3.org/1999/xlink" x="0px" y="0px"
	 viewBox="0 0 300 220" style="enable-background:new 0 0 300 220;" xml:space="preserve">
<style type="text/css">
	.st0{fill:#ED1B2F;}
	.st1{fill:#FFFFFF;}
	.st2{fill:#FF0B53;}
	.st3{fill:#00F0E9;}
</style>
<rect y="0" width="300" height="220"/>
<g>
	<polygon class="st0" points="201.8,202.1 53.1,110 201.8,17.9 	"/>
	<path class="st1" d="M242.4,91.9c-0.7-0.7-0.7-0.2-1.4-0.9l-1.4-1.2c-0.2-0.2-0.5-0.4-0.7-0.6l-0.7-0.6l-1.5-1.2
		c-0.5-0.4-1-0.7-1.6-1.1c-4.2-2.9-8.7-5.3-13.3-7.4s-9.4-3.9-14.3-5.4c-1.9-0.6-3.8-1.1-5.7-1.7v-0.7c2,0.5,3.9,1,5.9,1.6
		c9.8,2.9,19.5,6.6,28.3,12.2c0.5,0.4,1.1,0.7,1.6,1.1l1.6,1.1l0.8,0.6c0.3,0.2,0.5,0.4,0.8,0.6l1.5,1.2c0.9,0.8,0,0.5,0.8,1.3
		L242.4,91.9z"/>
	<path class="st1" d="M253.4,112.8c-0.2,1.8-0.7,3.6-1.3,5.3c-0.9,2.6-2.3,4.9-3.9,7.1c-1.6,2.2-3.5,4.1-5.4,5.9l-1.5,1.3
		c-0.3,0.2-0.5,0.4-0.8,0.6l-0.8,0.6l-1.6,1.2c-0.5,0.4-1.1,0.8-1.6,1.1c-4.3,3-9,5.5-13.7,7.6c-4.8,2.1-9.6,4-14.6,5.5
		c-2.1,0.7-4.3,1.3-6.5,1.9c-2.8,0.8-5.7,1.5-8.6,2.1c-5.1,1.1-10.2,2-15.3,2.7s-10.3,1.2-15.4,1.5c-5.2,0.3-10.3,0.5-15.5,0.5
		s-10.3-0.2-15.5-0.5c-0.7,0-1.4-0.1-2.2-0.2c-4.4-0.3-8.9-0.8-13.3-1.4c-5.1-0.7-10.2-1.6-15.3-2.7c-5.1-1.1-10.1-2.4-15.1-4
		c-5-1.5-9.8-3.4-14.6-5.5c-4.7-2.2-9.4-4.6-13.7-7.6c-0.5-0.4-1.1-0.7-1.6-1.1l-1.6-1.2l-0.8-0.6c-0.3-0.2-0.5-0.4-0.8-0.7
		l-1.4-1.1c-1.9-1.8-3.8-3.7-5.4-5.9c-1.6-2.2-3-4.5-3.9-7.1s-1.5-5.3-1.4-8s0.7-5.4,1.7-7.9s2.5-4.8,4.1-6.8
		c1.6-2.1,3.5-3.9,5.5-5.6l1.5-1.2c0.3-0.2,0.5-0.4,0.8-0.6l0.8-0.6l1.6-1.1c0.5-0.4,1.1-0.7,1.6-1.1c8.7-5.6,18.5-9.3,28.3-12.2
		c4.9-1.4,9.9-2.6,14.9-3.6s10.1-1.7,15.2-2.4c2.7-0.3,5.4-0.6,8.1-0.9l-0.3,0.2c-2.6,0.3-5.2,0.5-7.7,0.9
		c-5.1,0.7-10.1,1.6-15.1,2.7s-9.9,2.4-14.8,3.9s-9.7,3.3-14.3,5.4c-4.6,2.1-9.1,4.5-13.3,7.4c-0.5,0.4-1,0.7-1.6,1.1l-1.5,1.2
		L55,89.3c-0.2,0.2-0.5,0.4-0.7,0.6l-1.4,1.2c-1.8,1.7-3.6,3.5-5,5.5c-1.5,2-2.7,4.1-3.5,6.4s-1.3,4.7-1.3,7
		c0.1,2.4,0.6,4.7,1.5,6.9c0.9,2.2,2.2,4.3,3.7,6.2c1.5,1.9,3.3,3.6,5.1,5.2l1.4,1.2c0.2,0.2,0.5,0.4,0.7,0.6l0.8,0.5l1.5,1.1
		c0.5,0.4,1,0.7,1.6,1c8.4,5.4,17.9,9,27.5,11.8c4.8,1.4,9.8,2.6,14.7,3.6c5,1,10,1.7,15,2.4c0.8,0.1,1.6,0.2,2.3,0.3
		c4.2,0.5,8.5,0.8,12.8,1.1c5.1,0.3,10.1,0.4,15.2,0.4c5.1,0,10.1-0.1,15.2-0.4c5.1-0.3,10.1-0.7,15.1-1.4s10-1.4,15-2.4
		c3.2-0.6,6.4-1.4,9.6-2.2c1.7-0.4,3.4-0.9,5.1-1.4c9.7-2.8,19.2-6.4,27.5-11.8c0.5-0.3,1.1-0.7,1.6-1l1.5-1.1l0.8-0.5
		c0.2-0.2,0.5-0.4,0.7-0.6l1.4-1.2c1.8-1.6,3.7-3.3,5.1-5.2c1.5-1.9,2.8-3.9,3.7-6.2c0.6-1.4,1-2.8,1.2-4.2"/>
	<g>
		<g>
			<g>
				<path class="st1" d="M54.4,82.8H40.2c-2.7,0-3.8,2.2-3.8,4.9v5.2c0,2.7,1.2,4.9,3.9,4.9h14c2.7,0,3.6-2.2,3.6-4.9v-5.2
					C57.9,85,57.1,82.8,54.4,82.8z M44.9,93.4v-6.1l5.9,3.1L44.9,93.4z"/>
			</g>
		</g>
	</g>
	<g>
		<g>
			<g>
				<g>
					<path class="st0" d="M221.2,73c-1.8-0.3-2.7-2.2-2.7-2.3l0,0c-0.1-0.2-0.1-0.3-0.1-0.5c0.1-0.2,0.5-0.4,0.7-0.4
						c0.1,0,0.1,0,0.2-0.1c0.2-0.1,0.4-0.2,0.6-0.3c0.1-0.1,0.2-0.3,0.2-0.4c0-0.4-0.4-0.6-0.7-0.6c-0.2,0-0.3,0-0.5,0.1
						c-0.1,0.1-0.3,0.1-0.4,0.1c-0.1,0-0.1,0-0.2,0c0-0.1,0-0.2,0-0.3l0,0c0.1-0.9,0.1-2.1-0.2-2.8c-0.2-0.5-0.5-0.9-0.8-1.2
						s-0.6-0.5-1-0.7s-0.8-0.3-1.2-0.3c-0.2,0-0.3,0-0.5,0c-0.4,0-0.7,0-1.1,0.1c-0.2,0-0.5,0.1-0.7,0.2c-0.4,0.2-0.7,0.4-1,0.7
						c-0.3,0.3-0.6,0.7-0.8,1.2c-0.3,0.7-0.2,1.9-0.2,2.8l0,0c0,0.1,0,0.2,0,0.3c0,0-0.1,0-0.2,0c-0.2,0-0.3,0-0.5-0.1
						c-0.1,0-0.3-0.1-0.4-0.1c-0.1,0-0.3,0-0.4,0.1c-0.2,0.1-0.3,0.2-0.3,0.4c0,0.1,0,0.3,0.2,0.5c0.1,0.1,0.3,0.2,0.5,0.3
						c0.1,0,0.1,0,0.2,0.1c0.3,0.1,0.6,0.2,0.7,0.4c0.1,0.1,0,0.3-0.1,0.5l0,0c-0.1,0.3-0.3,0.5-0.5,0.8c-0.3,0.4-0.6,0.7-1,1
						c-0.2,0.1-0.4,0.3-0.6,0.3c-0.2,0.1-0.4,0.1-0.6,0.2c-0.2,0-0.3,0.2-0.3,0.3v0.1c0.1,0.2,0.2,0.3,0.5,0.4s0.8,0.3,1.3,0.4
						c0,0.1,0.1,0.2,0.1,0.3c0,0.1,0,0.2,0.1,0.3c0,0.1,0.1,0.3,0.4,0.3c0.1,0,0.2,0,0.3,0c0.2,0,0.4-0.1,0.7-0.1c0.2,0,0.3,0,0.5,0
						c0.3,0.1,0.6,0.3,1,0.5c0,0,0.1,0,0.1,0.1c0.2,0.1,0.4,0.3,0.7,0.4s0.5,0.2,0.8,0.3c0.2,0,0.3,0,0.5,0s0.4,0,0.5,0
						c0.3-0.1,0.5-0.2,0.8-0.3c0.1-0.1,0.2-0.1,0.3-0.2s0.2-0.1,0.3-0.2c0.3-0.2,0.6-0.4,1-0.5c0.2,0,0.4,0,0.5,0
						c0.3,0,0.5,0,0.7,0.1c0.1,0,0.2,0,0.3,0l0,0c0.2,0,0.3-0.1,0.4-0.3c0-0.1,0.1-0.2,0.1-0.3c0-0.1,0-0.2,0.1-0.3
						c0.6-0.1,1-0.2,1.3-0.4c0.2-0.1,0.4-0.2,0.5-0.4v-0.1C221.5,73.1,221.4,73,221.2,73z M221.2,73.3c0,0.1-0.2,0.4-1.6,0.6
						c-0.2,0-0.3,0.3-0.3,0.5c0,0.1,0,0.2-0.1,0.3l0,0l0,0c-0.1,0-0.1,0-0.3,0s-0.5-0.1-0.8-0.1c-0.2,0-0.4,0-0.6,0
						c-0.4,0.1-0.7,0.3-1.1,0.6c-0.2,0.2-0.4,0.3-0.7,0.4s-0.5,0.2-0.8,0.2c-0.1,0-0.1,0-0.2,0c-0.3,0-0.6,0-0.9-0.1
						c-0.3-0.1-0.5-0.2-0.7-0.4c-0.1-0.1-0.2-0.1-0.3-0.2c-0.4-0.3-0.7-0.5-1.1-0.6c-0.2,0-0.4,0-0.6,0c-0.3,0-0.6,0-0.8,0.1
						c-0.1,0-0.2,0-0.3,0c0,0,0,0-0.1,0c0-0.1-0.1-0.2-0.1-0.3c-0.1-0.3-0.1-0.5-0.3-0.5c-1.3-0.2-1.6-0.5-1.6-0.6l0,0
						c2-0.3,2.9-2.3,3-2.5c0.1-0.3,0.2-0.5,0.1-0.7c-0.2-0.4-0.6-0.5-0.9-0.6c-0.1,0-0.1,0-0.2-0.1c-0.2-0.1-0.8-0.3-0.4-0.6
						c0.1,0,0.2-0.1,0.3-0.1s0.2,0.1,0.3,0.1c0.2,0.1,0.4,0.1,0.6,0.1c0.3,0,0.5-0.2,0.5-0.2l0,0v-0.1c0-0.1,0-0.3,0-0.4
						c-0.1-0.9-0.1-2,0.1-2.6c0-0.1,0-0.1,0.1-0.2c0.2-0.3,0.4-0.6,0.6-0.9c0.2-0.2,0.4-0.4,0.7-0.5c0.2-0.1,0.5-0.2,0.7-0.3
						s0.4-0.1,0.6-0.1c0.2,0,0.4,0,0.6,0s0.4,0,0.6,0c0.2,0,0.4,0.1,0.6,0.1c0.2,0.1,0.5,0.2,0.7,0.3c0.3,0.2,0.5,0.4,0.7,0.6
						c0.2,0.3,0.4,0.6,0.6,0.9c0.3,0.6,0.2,1.7,0.1,2.6c0,0.1,0,0.3,0,0.4v0.1l0,0c0,0,0.2,0.2,0.5,0.2l0,0c0.1,0,0.3,0,0.4-0.1
						c0.1,0,0.2-0.1,0.4-0.1c0.1,0,0.4,0,0.5,0.1s0,0.2-0.1,0.3c-0.1,0.1-0.2,0.2-0.4,0.2c0,0-0.1,0-0.2,0.1
						c-0.3,0.1-0.8,0.2-0.9,0.6c-0.1,0.2-0.1,0.5,0.1,0.7C218.3,70.9,219.2,72.9,221.2,73.3L221.2,73.3z"/>
				</g>
				<path class="st1" d="M219.6,73.9c1.3-0.2,1.6-0.5,1.6-0.6l0,0c-2-0.3-2.9-2.3-3-2.5c-0.1-0.3-0.2-0.5-0.1-0.7
					c0.2-0.4,0.6-0.5,0.9-0.6c0.1,0,0.1,0,0.2-0.1c0.1-0.1,0.3-0.1,0.4-0.2c0.1-0.1,0.2-0.2,0.1-0.3c-0.1-0.1-0.3-0.2-0.5-0.1
					c-0.1,0-0.2,0.1-0.4,0.1c-0.1,0-0.3,0.1-0.4,0.1l0,0l0,0c-0.3,0-0.5-0.2-0.5-0.2l0,0v-0.1c0-0.1,0-0.3,0-0.4
					c0.1-0.9,0.1-2-0.1-2.6c-0.1-0.3-0.3-0.6-0.6-0.9c-0.2-0.2-0.4-0.4-0.7-0.6c-0.2-0.1-0.5-0.2-0.7-0.3c-0.2-0.1-0.4-0.1-0.6-0.2
					c-0.2,0-0.4,0-0.6,0c-0.2,0-0.4,0-0.6,0c-0.2,0-0.4,0.1-0.6,0.1c-0.2,0.1-0.5,0.2-0.7,0.3c-0.3,0.1-0.5,0.3-0.7,0.5
					c-0.2,0.3-0.4,0.5-0.6,0.9c0,0.1-0.1,0.1-0.1,0.2c-0.3,0.6-0.2,1.7-0.1,2.6c0,0.1,0,0.3,0,0.4v0.1l0,0c0,0-0.2,0.2-0.5,0.2
					c-0.2,0-0.4,0-0.6-0.1c-0.1,0-0.2-0.1-0.3-0.1s-0.2,0-0.3,0.1c-0.4,0.2,0.2,0.5,0.4,0.6c0,0,0.1,0,0.2,0.1
					c0.3,0.1,0.8,0.2,0.9,0.6c0.1,0.2,0.1,0.5-0.1,0.7c-0.1,0.1-0.9,2.1-3,2.5l0,0c0,0.1,0.3,0.4,1.6,0.6c0.2,0,0.3,0.3,0.3,0.5
					c0,0.1,0,0.2,0.1,0.3c0,0,0,0,0.1,0s0.2,0,0.3,0c0.2,0,0.5-0.1,0.8-0.1c0.2,0,0.4,0,0.6,0c0.4,0.1,0.7,0.3,1.1,0.6
					c0.1,0.1,0.2,0.1,0.3,0.2c0.2,0.2,0.5,0.3,0.7,0.4c0.3,0.1,0.6,0.1,0.9,0.1c0.1,0,0.1,0,0.2,0c0.3,0,0.6-0.1,0.8-0.2
					s0.5-0.3,0.7-0.4c0.4-0.2,0.7-0.5,1.1-0.6c0.2,0,0.4,0,0.6,0c0.3,0,0.6,0,0.8,0.1c0.1,0,0.2,0,0.3,0l0,0l0,0
					c0-0.1,0.1-0.2,0.1-0.3C219.3,74.1,219.4,73.9,219.6,73.9z"/>
			</g>
		</g>
	</g>
	<g>
		<g>
			<path class="st1" d="M84.4,106.6h4.5v-7.1h-5.6l0,0h-1.2c0,0-4.2-0.1-7,3.4c0,0-1.8,1.7-1.9,6.8l0,0v5.3h-6.7v7.5h6.7V142H81
				v-19.4h6.6l0.9-7.5H81v-5.3l0,0C81,109.1,81.3,106.5,84.4,106.6z"/>
		</g>
	</g>
	<g>
		<g>
			<g>
				<path class="st1" d="M255.5,88.7h-10.2c-4.5,0-8.2,3.7-8.2,8.2v10.2c0,4.5,3.7,8.2,8.2,8.2h10.2c4.5,0,8.2-3.7,8.2-8.2V96.9
					C263.7,92.4,260,88.7,255.5,88.7z M261.1,106.1c0,3.7-3,6.6-6.6,6.6h-8.2c-3.7,0-6.6-3-6.6-6.6v-8.2c0-3.6,3-6.6,6.6-6.6h8.2
					c3.6,0,6.6,3,6.6,6.6V106.1z"/>
				<path class="st1" d="M250.8,95c-3.9,0-7,3.1-7,7s3.1,7,7,7s7-3.1,7-7C257.8,98.2,254.6,95,250.8,95z M250.8,106.2
					c-2.3,0-4.2-1.9-4.2-4.2c0-2.3,1.9-4.2,4.2-4.2s4.2,1.9,4.2,4.2C255,104.4,253.1,106.2,250.8,106.2z"/>
				<path class="st1" d="M259,94.9c0,1-0.8,1.8-1.8,1.8s-1.8-0.8-1.8-1.8s0.8-1.8,1.8-1.8C258.2,93.2,259,94,259,94.9z"/>
			</g>
		</g>
	</g>
	<g>
		<g>
			<path class="st1" d="M184.3,149.5c15.1,0,23.3-12.5,23.3-23.3c0-0.4,0-0.7,0-1.1c1.6-1.2,3-2.6,4.1-4.2c-1.5,0.7-3,1.1-4.7,1.3
				c1.7-1,3-2.6,3.6-4.5c-1.6,0.9-3.3,1.6-5.2,2c-1.5-1.6-3.6-2.6-6-2.6c-4.5,0-8.2,3.7-8.2,8.2c0,0.6,0.1,1.3,0.2,1.9
				c-6.8-0.3-12.9-3.6-16.9-8.6c-0.7,1.2-1.1,2.6-1.1,4.1c0,2.8,1.4,5.4,3.6,6.8c-1.3,0-2.6-0.4-3.7-1v0.1c0,4,2.8,7.3,6.6,8
				c-0.7,0.2-1.4,0.3-2.2,0.3c-0.5,0-1-0.1-1.5-0.2c1,3.3,4.1,5.6,7.7,5.7c-2.8,2.2-6.3,3.5-10.2,3.5c-0.7,0-1.3,0-2-0.1
				C175.3,148.1,179.6,149.5,184.3,149.5"/>
		</g>
	</g>
	<g>
		<g>
			<g>
				<path class="st2" d="M111.5,55.8c-1.7,0-3.1-1.4-3.1-3.1h-2.3v9c0,1-0.8,1.9-1.9,1.9c-1,0-1.9-0.8-1.9-1.9c0-1,0.8-1.9,1.9-1.9
					c0.2,0,0.4,0,0.6,0.1v-2.4c-0.2,0-0.4,0-0.6,0c-2.3,0-4.2,1.9-4.2,4.2c0,2.3,1.9,4.2,4.2,4.2c2.3,0,4.2-1.9,4.2-4.2v-4.8
					c0.8,0.7,1.9,1.1,3.1,1.1C111.5,58,111.5,55.8,111.5,55.8z"/>
				<path class="st3" d="M110.9,55.1c-1.7,0-3.1-1.4-3.1-3.1h-2.3v9c0,1-0.8,1.9-1.9,1.9c-1,0-1.9-0.8-1.9-1.9c0-1,0.8-1.9,1.9-1.9
					c0.2,0,0.4,0,0.6,0.1v-2.4c-0.2,0-0.4,0-0.6,0c-2.3,0-4.2,1.9-4.2,4.2s1.9,4.2,4.2,4.2c2.3,0,4.2-1.9,4.2-4.2v-4.8
					c0.8,0.7,1.9,1.1,3.1,1.1C110.9,57.3,110.9,55.1,110.9,55.1z"/>
				<path class="st1" d="M110.9,55.7c-0.7-0.2-1.4-0.6-1.8-1.2c-0.6-0.4-1-1.1-1.2-1.8h-1.7v9c0,1-0.8,1.9-1.9,1.9
					c-0.7,0-1.3-0.4-1.6-0.9c-0.6-0.3-0.9-0.9-0.9-1.6c0-1,0.8-1.9,1.9-1.9c0.2,0,0.4,0,0.6,0.1v-1.7c-2.3,0-4.2,1.9-4.2,4.2
					c0,1,0.3,1.9,0.9,2.6c0.7,0.6,1.6,0.9,2.6,0.9c2.8,0.1,4.2-1.6,4.2-4.2v-4.8c0.8,0.7,1.9,1.1,3.1,1.1V55.7z"/>
			</g>
		</g>
	</g>
</g>
</svg>
