<?xml version="1.0"?>
<svg xmlns="http://www.w3.org/2000/svg" xmlns:xlink="http://www.w3.org/1999/xlink" xmlns:svgjs="http://svgjs.com/svgjs" version="1.1" width="512" height="512" x="0" y="0" viewBox="0 0 62 62" style="enable-background:new 0 0 512 512" xml:space="preserve" class=""><g><g xmlns="http://www.w3.org/2000/svg"><g><path d="m7 37h7v4h-7z" fill="#e40421" data-original="#f0bc5e" style=""/></g><g><g><path d="m48 18h-14c-1.103 0-2-.897-2-2v-2c0-1.103.897-2 2-2h14c1.103 0 2 .897 2 2v2c0 1.103-.897 2-2 2z" fill="#e40421" data-original="#f0bc5e" style=""/></g></g><g><g><path d="m48 26h-14c-1.103 0-2-.897-2-2v-2c0-1.103.897-2 2-2h14c1.103 0 2 .897 2 2v2c0 1.103-.897 2-2 2z" fill="#e40421" data-original="#f0bc5e" style=""/></g></g><g><path d="m59.211 33.987-1.211-.605v-9.382c0-1.103-.897-2-2-2v-19c0-1.654-1.346-3-3-3h-48c-1.654 0-3 1.346-3 3v41h-2v14h14c.474 0 .903-.172 1.246-.449 1.983 1.584 4.422 2.449 6.996 2.449h3.942c.414 1.161 1.514 2 2.816 2h2c1.654 0 3-1.346 3-3v-1h1c1.654 0 3-1.346 3-3 0-.771-.301-1.468-.78-2 .48-.532.78-1.229.78-2s-.301-1.468-.78-2c.48-.532.78-1.229.78-2 0-.243-.037-.477-.092-.703 4.828.501 9.555 1.644 14.092 3.395v2.308c0 1.103.897 2 2 2h2c1.103 0 2-.897 2-2v-8.382l1.211-.605c1.721-.861 2.789-2.59 2.789-4.513s-1.068-3.652-2.789-4.513zm-54.211-31.987h48c.552 0 1 .449 1 1v5h-50v-5c0-.551.448-1 1-1zm9 54h-12v-10h12zm2-.441v-9.25c1.697-2.659 4.668-4.309 7.831-4.309h10.169c0 1.103-.897 2-2 2h-3.618l-.276.553c-.525 1.051-1.429 1.834-2.543 2.206l-.879.293.633 1.897.683-.228v4.51c-1.057-.971-2.313-1.723-3.684-2.179l-.633 1.897c1.725.575 3.229 1.725 4.238 3.238l.079.117v1.696h-3.758c-2.336 0-4.533-.87-6.242-2.441zm2-18.559c0-3.86 3.141-7 7-7h1v10h-2.169c-1.59 0-3.135.355-4.554.984-.813-1.167-1.277-2.548-1.277-3.984zm10-9h-3c-3.114 0-5.862 1.59-7.478 4h-9.522v-18h20zm7 20h-2c-.552 0-1-.449-1-1s.448-1 1-1h2c.552 0 1 .449 1 1s-.448 1-1 1zm1 3c0 .551-.448 1-1 1h-2c-.552 0-1-.449-1-1s.448-1 1-1h2c.552 0 1 .449 1 1zm-5 9h-2c-.552 0-1-.449-1-1v-11.297c.623-.465 1.164-1.034 1.584-1.703h.6c-.112.314-.184.648-.184 1 0 .771.301 1.468.78 2-.48.532-.78 1.229-.78 2s.301 1.468.78 2c-.48.532-.78 1.229-.78 2 0 1.302.839 2.402 2 2.816v1.184c0 .551-.448 1-1 1zm4-4h-2c-.552 0-1-.449-1-1s.448-1 1-1h2c.552 0 1 .449 1 1s-.448 1-1 1zm.766-11.888c-.113-.03-.228-.052-.346-.069.36-.601.58-1.294.58-2.043 0-1.103-.897-2-2-2h-6v-10h4.229c6.785 0 13.427-1.207 19.771-3.56v21.114c-5.218-1.933-10.67-3.096-16.234-3.442zm16.234-20.112v.306c-6.331 2.444-12.976 3.694-19.771 3.694h-2.229v-14c0-1.103-.897-2-2-2h-20c-1.103 0-2 .897-2 2v18c0 1.103.897 2 2 2h8.525c-.334.94-.525 1.947-.525 3 0 1.779.534 3.504 1.507 4.971-.943.638-1.803 1.4-2.521 2.3-.292-.168-.626-.271-.986-.271h-10v-34h50v12c-1.103 0-2 .897-2 2zm2 28v-28h2l.001 28zm4.316-10.776-.316.158v-5.764l.316.158c1.038.519 1.684 1.563 1.684 2.724s-.646 2.205-1.684 2.724z" fill="#000000" data-original="#000000" style="" class=""/><path d="m40 56h2v2h-2z" fill="#000000" data-original="#000000" style="" class=""/><path d="m44 56h2v2h-2z" fill="#000000" data-original="#000000" style="" class=""/><path d="m48 56h2v2h-2z" fill="#000000" data-original="#000000" style="" class=""/><path d="m8 4h2v2h-2z" fill="#000000" data-original="#000000" style="" class=""/><path d="m12 4h2v2h-2z" fill="#000000" data-original="#000000" style="" class=""/><path d="m16 4h2v2h-2z" fill="#000000" data-original="#000000" style="" class=""/><path d="m7 36h7v2h-7z" fill="#000000" data-original="#000000" style="" class=""/><path d="m7 40h7v2h-7z" fill="#000000" data-original="#000000" style="" class=""/><path d="m14.618 28c.404 0 .81-.096 1.171-.276l6.764-3.382c.892-.446 1.447-1.344 1.447-2.342s-.555-1.896-1.447-2.342l-6.764-3.382c-.361-.18-.767-.276-1.171-.276-1.443 0-2.618 1.174-2.618 2.618v6.764c0 1.444 1.175 2.618 2.618 2.618zm-.618-9.382c0-.341.277-.618.618-.618.096 0 .191.022.276.065l6.764 3.382c.211.106.342.317.342.553s-.131.447-.342.553l-6.764 3.382c-.386.197-.894-.116-.895-.553v-6.764z" fill="#000000" data-original="#000000" style="" class=""/></g></g></g></svg>
