<svg xmlns="http://www.w3.org/2000/svg" width="296.2" height="296.1" viewBox="0 0 296.2 296.1">
  <g id="wallet-img-2" transform="translate(-2 -2)">
    <g id="Group_16" data-name="Group 16">
      <g id="Group_15" data-name="Group 15">
        <path id="Path_4" data-name="Path 4" d="M246.9,33.9a9.709,9.709,0,0,1-9.7-9.7V19.4H159.7v4.8a9.709,9.709,0,0,1-9.7,9.7h-4.8V137.1H251.7V33.9ZM169.4,135.6a29,29,0,0,1,58,0Z" fill="#399dd6"/>
        <g id="Group_9" data-name="Group 9">
          <path id="Path_5" data-name="Path 5" d="M276,113.4h-6.8V2H127.9V113.4H121a22.278,22.278,0,0,0-22.2,22.2V186H18.1A16.068,16.068,0,0,0,2,202v80a16.09,16.09,0,0,0,16.1,16.1H276a22.214,22.214,0,0,0,22.2-22.2V135.6A22.214,22.214,0,0,0,276,113.4ZM133.6,7.7H263.5v125H230.3L230,131a31.823,31.823,0,0,0-63,0l-.3,1.7H133.5V7.7Zm91.1,125H172.4l.5-2.4a26.226,26.226,0,0,1,51.4,0ZM156.9,282.1a10.457,10.457,0,0,1-10.4,10.4H18.1A10.457,10.457,0,0,1,7.7,282.1v-3.3H156.9Zm0-9H7.7V259.4H156.9Zm0-19.4H7.7V202a10.457,10.457,0,0,1,10.4-10.4H146.6A10.457,10.457,0,0,1,157,202v51.7Zm135.6-9.6H222.7a16.5,16.5,0,0,1,0-33h69.8Zm0-38.8H222.7a22.2,22.2,0,0,0,0,44.4h69.8v26.2A16.516,16.516,0,0,1,276,292.4H159.1l1.6-2.9a15.483,15.483,0,0,0,1.9-7.5V202a16.09,16.09,0,0,0-16.1-16.1h-42V150.7l3.2,2.4a21.682,21.682,0,0,0,13.3,4.6H276a16.516,16.516,0,0,1,16.5,16.5Zm0-46.2-3.2-2.4a21.681,21.681,0,0,0-13.3-4.6H121a16.5,16.5,0,0,1,0-33h6.8v13.7H123v5.7H274v-5.7h-4.8V119H276a16.516,16.516,0,0,1,16.5,16.5Z" fill="#4d4d4f"/>
        </g>
        <g id="Group_10" data-name="Group 10">
          <path id="Path_6" data-name="Path 6" d="M225.5,227.5a2.8,2.8,0,0,1-2.8,2.8,2.8,2.8,0,1,1,2.8-2.8Z" fill="#4d4d4f"/>
        </g>
        <g id="Group_11" data-name="Group 11">
          <rect id="Rectangle_5" data-name="Rectangle 5" width="29.9" height="5.7" transform="translate(21.4 205.3)" fill="#4d4d4f"/>
        </g>
        <g id="Group_12" data-name="Group 12">
          <rect id="Rectangle_6" data-name="Rectangle 6" width="20.2" height="5.7" transform="translate(31 224.7)" fill="#4d4d4f"/>
        </g>
        <g id="Group_13" data-name="Group 13">
          <path id="Path_7" data-name="Path 7" d="M60.9,62.9A12.5,12.5,0,0,1,48.4,75.4h-2v4.8H40.7V75.4h-2A12.666,12.666,0,0,1,26.3,64.9h5.8a6.781,6.781,0,0,0,6.5,4.8h9.7a6.8,6.8,0,1,0,0-13.6H38.6a12.5,12.5,0,1,1,0-25h2V26.3h5.7v4.8h2A12.666,12.666,0,0,1,60.7,41.6H55a6.905,6.905,0,0,0-6.6-4.8H38.7a6.8,6.8,0,0,0,0,13.6h9.7A12.5,12.5,0,0,1,60.9,62.9Z" fill="#4d4d4f"/>
        </g>
        <g id="Group_14" data-name="Group 14">
          <path id="Path_8" data-name="Path 8" d="M85.1,92a41.491,41.491,0,0,0-4.4-18.4l-.4-.9.4-.9a41.55,41.55,0,1,0-74.3,0l.4.9-.4.9A41.491,41.491,0,0,0,2,92a40.964,40.964,0,0,0,4.4,18.5l.4.9-.4.9a41.6,41.6,0,1,0,74.4,0l-.4-.9.4-.9A41.171,41.171,0,0,0,85.1,92ZM43.6,166.6A35.935,35.935,0,0,1,7.7,130.7a33.985,33.985,0,0,1,1.6-10.3l1-3.4,2.4,2.7a41.724,41.724,0,0,0,30.9,13.9h4.8a6.8,6.8,0,0,1,0,13.6H38.7a6.691,6.691,0,0,1-6.5-4.8H26.4a12.5,12.5,0,0,0,12.4,10.5h2v4.8h5.7v-4.8h2A12.5,12.5,0,0,0,61,140.4a12.925,12.925,0,0,0-2.2-7.1l-1.4-2,2.3-1a41.065,41.065,0,0,0,14.9-10.7l2.4-2.7,1,3.4a37.4,37.4,0,0,1,1.6,10.3A36.106,36.106,0,0,1,43.6,166.6Zm0-38.7A35.935,35.935,0,0,1,7.7,92,33.985,33.985,0,0,1,9.3,81.7l1-3.4,2.4,2.6A41.724,41.724,0,0,0,43.6,94.8h4.8a6.8,6.8,0,0,1,0,13.6H38.7a6.691,6.691,0,0,1-6.5-4.8H26.4a12.5,12.5,0,0,0,12.4,10.5h2v4.8h5.7v-4.8h2A12.5,12.5,0,0,0,61,101.6a12.925,12.925,0,0,0-2.2-7.1l-1.4-2,2.3-1A42.279,42.279,0,0,0,74.6,80.8L77,78.1l1,3.4a37.4,37.4,0,0,1,1.6,10.3A36.127,36.127,0,0,1,43.6,127.9Zm0-38.8A35.9,35.9,0,1,1,79.5,53.2,35.935,35.935,0,0,1,43.6,89.1Z" fill="#4d4d4f"/>
        </g>
      </g>
    </g>
    <path id="Path_9" data-name="Path 9" d="M140.3,243.8l-35.8-22.2,35.8-22.1Z" fill="#399dd6"/>
  </g>
</svg>
