<?xml version="1.0" encoding="utf-8"?>
<!-- Generator: Adobe Illustrator 25.2.1, SVG Export Plug-In . SVG Version: 6.00 Build 0)  -->
<svg version="1.1" id="color_line" xmlns="http://www.w3.org/2000/svg" xmlns:xlink="http://www.w3.org/1999/xlink" x="0px" y="0px"
	 viewBox="0 0 512 512" style="enable-background:new 0 0 512 512;" xml:space="preserve">
<style type="text/css">
	.st0{fill:#2172C1;}
	.st1{fill:#F8D006;}
	.st2{fill:#EEEFEE;}
	.st3{fill:#D03938;}
	.st4{opacity:0.2;enable-background:new    ;}
	.st5{fill:#3F9BD6;}
	.st6{opacity:0.1;enable-background:new    ;}
	.st7{fill:#FFFFFF;}
</style>
<path class="st0" d="M320,120.2h51.3v80.3H132.7c-22.2,0-40.1-18-40.1-40.1s18-40.1,40.1-40.1h65.2"/>
<g>
	<path class="st1" d="M109.7,166.9l183.1-71.9c6.5-2.6,13.9,0.7,16.5,7.2l42.2,107.6c2.6,6.5-0.7,13.9-7.2,16.5l-183.1,71.9
		c-6.5,2.6-13.9-0.7-16.5-7.2l-42.2-107.6C100,176.9,103.2,169.5,109.7,166.9z"/>
	<path class="st2" d="M154.3,261.4l-24.6-62.7c10.5-4.1,15.7-16,11.6-26.5c0,0,0,0,0,0l132-51.8c4.1,10.5,16,15.7,26.5,11.6l0,0
		l24.6,62.7c-10.5,4.1-15.7,16-11.6,26.5l-132,51.8C176.7,262.4,164.9,257.2,154.3,261.4C154.3,261.4,154.3,261.4,154.3,261.4z"/>
	<path d="M313.5,223l-132,51.8c-1,0.4-2.1-0.1-2.5-1.1c-3.8-9.5-14.5-14.2-24-10.5c-1,0.4-2.1-0.1-2.5-1.1l-24.6-62.7
		c-0.4-1,0.1-2.1,1.1-2.5c9.5-3.8,14.2-14.5,10.5-24c-0.4-1,0.1-2.1,1.1-2.5l132-51.8c1-0.4,2.1,0.1,2.5,1.1
		c3.8,9.5,14.5,14.2,24,10.5c1-0.4,2.1,0.1,2.5,1.1l24.6,62.7c0.4,1-0.1,2.1-1.1,2.5c-9.5,3.8-14.2,14.5-10.5,24
		C315,221.5,314.5,222.6,313.5,223L313.5,223z M181.9,270.5L310.4,220c-3.1-10.4,1.8-21.6,11.5-26.4l-23.3-59.3
		c-10.4,3.1-21.6-1.8-26.4-11.5l-128.5,50.4c3.1,10.4-1.8,21.6-11.5,26.4l23.3,59.3C165.9,255.9,177,260.7,181.9,270.5L181.9,270.5z
		"/>
	<path class="st3" d="M172.7,175.8l-2.6,1c-1.3,0.5-2.7-0.1-3.2-1.4c-0.5-1.3,0.1-2.7,1.4-3.2l0,0l2.6-1c1.3-0.5,2.7,0.1,3.2,1.4
		C174.6,173.8,174,175.3,172.7,175.8z"/>
	<path class="st3" d="M144.7,208.8c-1.3,0.5-2.7-0.1-3.2-1.4c-0.5-1.3,0.1-2.7,1.4-3.2c9.2-3.6,13.8-14,10.2-23.3
		c-0.5-1.3,0.1-2.7,1.4-3.2l4.9-1.9c1.3-0.5,2.7,0.1,3.2,1.4c0.5,1.3-0.1,2.7-1.4,3.2l-2.7,1.1C161.5,192.7,155.6,204.5,144.7,208.8
		z"/>
	<circle class="st1" cx="227" cy="196.6" r="35.1"/>
	<path d="M240.6,231.1c-19.1,7.5-40.6-1.9-48-21c-7.5-19.1,1.9-40.6,21-48c19.1-7.5,40.6,1.9,48,21
		C269,202.1,259.6,223.6,240.6,231.1L240.6,231.1z M214.9,165.7c-17.1,6.7-25.5,26-18.8,43c6.7,17.1,26,25.5,43,18.8
		s25.5-26,18.8-43C251.2,167.5,232,159.1,214.9,165.7L214.9,165.7z"/>
	<path d="M233.1,217.8l-1.2-3c-3.1,1.2-6.4,1.5-9.6,0.9l-0.1-4.3c3,0.6,6.2,0.4,9.1-0.8c4-1.6,5.8-5,4.5-8.2c-1.2-3.1-4.2-4.2-9-4.2
		c-6.6,0-11.2-1.2-13.2-6.1c-1.8-4.8,0.3-10.2,5-12.4l-1.2-3l3.5-1.4l1.1,2.7c2.6-1,5.4-1.3,8.1-0.9l0.1,4.3
		c-2.7-0.4-5.4-0.1-7.9,0.9c-4.4,1.7-5,5-4.1,7.2c1.2,2.9,3.8,3.6,9.5,3.7c6.8,0.1,10.8,1.9,12.8,6.9c1.9,5-0.3,10.7-5.2,13.1
		l1.2,3.1L233.1,217.8z"/>
	<path d="M163.6,214.6c-1,0.4-2.1-0.1-2.5-1.1c-0.4-1,0.1-2.1,1.1-2.5l10.6-4.2c1-0.4,2.1,0.1,2.5,1.1c0.4,1-0.1,2.1-1.1,2.5
		L163.6,214.6z"/>
	<path d="M169.8,230.2c-1,0.4-2.1-0.1-2.5-1.1c-0.4-1,0.1-2.1,1.1-2.5l10.6-4.2c1-0.4,2.1,0.1,2.5,1.1c0.4,1-0.1,2.1-1.1,2.5
		L169.8,230.2z"/>
	<path d="M285.7,166.6l-10.6,4.1c-1,0.4-2.1-0.1-2.5-1.1c-0.4-1,0.1-2.1,1.1-2.5l10.6-4.1c1-0.4,2.1,0.1,2.5,1.1
		C287.2,165.1,286.7,166.2,285.7,166.6z"/>
	<path d="M291.8,182.3l-10.6,4.1c-1,0.4-2.1-0.1-2.5-1.1s0.1-2.1,1.1-2.5l10.6-4.1c1-0.4,2.1,0.1,2.5,1.1
		C293.3,180.8,292.8,182,291.8,182.3L291.8,182.3z"/>
	<path d="M236.9,283l-3.3,1.3c-1,0.4-2.1-0.1-2.5-1.1c-0.4-1,0.1-2.1,1.1-2.5l3.3-1.3c1-0.4,2.1,0.1,2.5,1.1
		C238.4,281.5,237.9,282.6,236.9,283z"/>
	<path d="M224.8,287.7l-38,14.9c-1,0.4-2.1-0.1-2.5-1.1c-0.4-1,0.1-2.1,1.1-2.5l38-14.9c1-0.4,2.1,0.1,2.5,1.1
		C226.3,286.2,225.8,287.3,224.8,287.7z"/>
	<path d="M259.8,99.9l-3.8,1.5c-1,0.4-2.1-0.1-2.5-1.1c-0.4-1,0.1-2.1,1.1-2.5l3.8-1.5c1-0.4,2.1,0.1,2.5,1.1
		C261.3,98.4,260.8,99.5,259.8,99.9L259.8,99.9z"/>
	<path d="M305.7,88c-0.4,0.2-0.9,0.2-1.3,0c-5-1.7-10.4-1.5-15.2,0.4l-20.6,8.1c-1,0.4-2.1-0.1-2.5-1.1c-0.4-1,0.1-2.1,1.1-2.5
		l20.6-8.1c5.7-2.2,12-2.4,17.9-0.5c1,0.3,1.6,1.4,1.2,2.4C306.7,87.3,306.2,87.8,305.7,88z"/>
	<path class="st4" d="M309.3,102.3l42.2,107.6c2.3,5.8,0,12.4-5.4,15.6c-0.1-0.7-0.3-1.4-0.6-2l-42.2-107.6
		c-2.6-6.5-10-9.7-16.5-7.2l-182.5,71.6c-0.6,0.2-1.3,0.5-1.8,0.9c-1.3-6.1,2-12.2,7.8-14.5l182.5-71.6
		C299.4,92.6,306.8,95.8,309.3,102.3C309.3,102.3,309.3,102.3,309.3,102.3L309.3,102.3z"/>
	<path d="M345.1,228.1L161.9,300c-7.5,2.9-16-0.8-19-8.3l-42.2-107.6c-2.9-7.5,0.8-16,8.3-19l183.1-71.9c7.5-2.9,16,0.8,19,8.3
		l42.2,107.6C356.3,216.7,352.6,225.2,345.1,228.1z M110.4,168.7c-5.5,2.2-8.3,8.4-6.1,14l42.2,107.6c2.2,5.5,8.4,8.3,14,6.1
		l183.1-71.9c5.5-2.2,8.3-8.4,6.1-14L307.5,103c-2.2-5.5-8.4-8.3-14-6.1L110.4,168.7z"/>
</g>
<g>
	<path class="st1" d="M113.3,176.1l183.1-71.9c6.5-2.6,13.9,0.7,16.5,7.2L355.1,219c2.6,6.5-0.7,13.9-7.2,16.5l-183.1,71.9
		c-6.5,2.6-13.9-0.7-16.5-7.2l-42.2-107.6C103.6,186,106.8,178.7,113.3,176.1z"/>
	<path class="st2" d="M157.9,270.5l-24.6-62.7c10.5-4.1,15.7-16,11.6-26.5c0,0,0,0,0,0l132-51.8c4.1,10.5,16,15.7,26.5,11.6l0,0
		l24.6,62.7c-10.5,4.1-15.7,16-11.6,26.5l-132,51.8C180.3,271.6,168.5,266.4,157.9,270.5C157.9,270.5,157.9,270.5,157.9,270.5z"/>
	<path d="M317.1,232.1l-132,51.8c-1,0.4-2.1-0.1-2.5-1.1c-3.8-9.5-14.5-14.2-24-10.5c-1,0.4-2.1-0.1-2.5-1.1l-24.6-62.7
		c-0.4-1,0.1-2.1,1.1-2.5c9.5-3.8,14.2-14.5,10.5-24c-0.4-1,0.1-2.1,1.1-2.5l132-51.8c1-0.4,2.1,0.1,2.5,1.1
		c3.8,9.5,14.5,14.2,24,10.5c1-0.4,2.1,0.1,2.5,1.1l24.6,62.7c0.4,1-0.1,2.1-1.1,2.5c-9.5,3.8-14.2,14.5-10.5,24
		C318.6,230.6,318.1,231.7,317.1,232.1L317.1,232.1z M185.5,279.6L314,229.2c-3.1-10.4,1.8-21.6,11.5-26.4l-23.3-59.3
		c-10.4,3.1-21.6-1.8-26.4-11.5l-128.5,50.4c3.1,10.4-1.8,21.6-11.5,26.4l23.3,59.3C169.5,265,180.6,269.9,185.5,279.6L185.5,279.6z
		"/>
	<path class="st3" d="M176.3,185l-2.6,1c-1.3,0.5-2.7-0.1-3.2-1.4c-0.5-1.3,0.1-2.7,1.4-3.2l0,0l2.6-1c1.3-0.5,2.7,0.1,3.2,1.4
		C178.2,183,177.6,184.4,176.3,185z"/>
	<path class="st3" d="M148.3,217.9c-1.3,0.5-2.7-0.1-3.2-1.4c-0.5-1.3,0.1-2.7,1.4-3.2c9.2-3.6,13.8-14,10.2-23.3
		c-0.5-1.3,0.1-2.7,1.4-3.2l4.9-1.9c1.3-0.5,2.7,0.1,3.2,1.4c0.5,1.3-0.1,2.7-1.4,3.2l-2.7,1.1C165.1,201.9,159.2,213.7,148.3,217.9
		z"/>
	<circle class="st1" cx="230.6" cy="205.8" r="35.1"/>
	<path d="M244.2,240.3c-19.1,7.5-40.6-1.9-48-21c-7.5-19.1,1.9-40.6,21-48s40.6,1.9,48,21C272.6,211.3,263.2,232.8,244.2,240.3
		L244.2,240.3z M218.5,174.9c-17.1,6.7-25.5,26-18.8,43s26,25.5,43,18.8s25.5-26,18.8-43C254.8,176.6,235.6,168.2,218.5,174.9
		L218.5,174.9z"/>
	<path d="M236.7,227l-1.2-3c-3.1,1.2-6.4,1.5-9.6,0.9l-0.1-4.3c3,0.6,6.2,0.4,9.1-0.8c4-1.6,5.8-5,4.5-8.2c-1.2-3.1-4.2-4.2-9-4.2
		c-6.6,0-11.2-1.2-13.2-6.1c-1.8-4.8,0.3-10.2,5-12.4l-1.2-3l3.5-1.4l1.1,2.7c2.6-1,5.4-1.3,8.1-0.9l0.1,4.3
		c-2.7-0.4-5.4-0.1-7.9,0.9c-4.4,1.7-5,5-4.1,7.2c1.2,2.9,3.8,3.6,9.5,3.7c6.8,0.1,10.8,1.9,12.8,6.9c1.9,5-0.3,10.7-5.2,13.1
		l1.2,3.1L236.7,227z"/>
	<path d="M167.2,223.7c-1,0.4-2.1-0.1-2.5-1.1s0.1-2.1,1.1-2.5l10.6-4.2c1-0.4,2.1,0.1,2.5,1.1s-0.1,2.1-1.1,2.5L167.2,223.7z"/>
	<path d="M173.4,239.4c-1,0.4-2.1-0.1-2.5-1.1c-0.4-1,0.1-2.1,1.1-2.5l10.6-4.2c1-0.4,2.1,0.1,2.5,1.1c0.4,1-0.1,2.1-1.1,2.5
		L173.4,239.4z"/>
	<path d="M289.3,175.8l-10.6,4.1c-1,0.4-2.1-0.1-2.5-1.1c-0.4-1,0.1-2.1,1.1-2.5l10.6-4.1c1-0.4,2.1,0.1,2.5,1.1
		C290.8,174.3,290.3,175.4,289.3,175.8z"/>
	<path d="M295.4,191.5l-10.6,4.1c-1,0.4-2.1-0.1-2.5-1.1s0.1-2.1,1.1-2.5l10.6-4.1c1-0.4,2.1,0.1,2.5,1.1
		C296.9,190,296.4,191.1,295.4,191.5L295.4,191.5z"/>
	<path d="M240.5,292.1l-3.3,1.3c-1,0.4-2.1-0.1-2.5-1.1c-0.4-1,0.1-2.1,1.1-2.5l3.3-1.3c1-0.4,2.1,0.1,2.5,1.1
		C242,290.6,241.5,291.7,240.5,292.1z"/>
	<path d="M228.4,296.9l-38,14.9c-1,0.4-2.1-0.1-2.5-1.1c-0.4-1,0.1-2.1,1.1-2.5l38-14.9c1-0.4,2.1,0.1,2.5,1.1
		C229.9,295.4,229.4,296.5,228.4,296.9z"/>
	<path class="st4" d="M312.9,111.5l42.2,107.6c2.3,5.8,0,12.4-5.4,15.6c-0.1-0.7-0.3-1.4-0.6-2L307,125c-2.6-6.5-10-9.7-16.5-7.2
		L108,189.5c-0.6,0.2-1.3,0.5-1.8,0.9c-1.3-6.1,2-12.2,7.8-14.5l182.5-71.6C303,101.7,310.4,104.9,312.9,111.5
		C312.9,111.5,312.9,111.5,312.9,111.5L312.9,111.5z"/>
	<path d="M348.6,237.3l-183.1,71.9c-7.5,2.9-16-0.8-19-8.3l-42.2-107.6c-2.9-7.5,0.8-16,8.3-19l183.1-71.9c7.5-2.9,16,0.8,19,8.3
		l42.2,107.6C359.9,225.8,356.2,234.3,348.6,237.3z M114,177.9c-5.5,2.2-8.3,8.4-6.1,14l42.2,107.6c2.2,5.5,8.4,8.3,14,6.1
		l183.1-71.9c5.5-2.2,8.3-8.4,6.1-14l-42.2-107.6c-2.2-5.5-8.4-8.3-14-6.1L114,177.9z"/>
</g>
<g>
	<path class="st1" d="M117,185.4l183.1-71.9c6.5-2.6,13.9,0.7,16.5,7.2l42.2,107.6c2.6,6.5-0.7,13.9-7.2,16.5l-183.1,71.9
		c-6.5,2.6-13.9-0.7-16.5-7.2l-42.2-107.6C107.2,195.3,110.4,187.9,117,185.4z"/>
	<path class="st2" d="M161.6,279.8l-24.6-62.7c10.5-4.1,15.7-16,11.6-26.5c0,0,0,0,0,0l132-51.8c4.1,10.5,16,15.7,26.5,11.6l0,0
		l24.6,62.7c-10.5,4.1-15.7,16-11.6,26.5l-132,51.8C184,280.9,172.1,275.7,161.6,279.8C161.6,279.8,161.6,279.8,161.6,279.8z"/>
	<path d="M320.7,241.4l-132,51.8c-1,0.4-2.1-0.1-2.5-1.1c-3.8-9.5-14.5-14.2-24-10.5c-1,0.4-2.1-0.1-2.5-1.1l-24.6-62.7
		c-0.4-1,0.1-2.1,1.1-2.5c9.5-3.8,14.2-14.5,10.5-24c-0.4-1,0.1-2.1,1.1-2.5l132-51.8c1-0.4,2.1,0.1,2.5,1.1
		c3.8,9.5,14.5,14.2,24,10.5c1-0.4,2.1,0.1,2.5,1.1l24.6,62.7c0.4,1-0.1,2.1-1.1,2.5c-9.5,3.8-14.2,14.5-10.5,24
		C322.2,239.9,321.7,241,320.7,241.4L320.7,241.4z M189.1,288.9l128.5-50.4c-3.1-10.4,1.8-21.6,11.5-26.4l-23.3-59.3
		c-10.4,3.1-21.6-1.8-26.4-11.5l-128.5,50.4c3.1,10.4-1.8,21.6-11.5,26.4l23.3,59.3C173.1,274.3,184.3,279.2,189.1,288.9
		L189.1,288.9z"/>
	<path class="st3" d="M180,194.2l-2.6,1c-1.3,0.5-2.7-0.1-3.2-1.4c-0.5-1.3,0.1-2.7,1.4-3.2l0,0l2.6-1c1.3-0.5,2.7,0.1,3.2,1.4
		C181.9,192.3,181.2,193.7,180,194.2z"/>
	<path class="st3" d="M151.9,227.2c-1.3,0.5-2.7-0.1-3.2-1.4c-0.5-1.3,0.1-2.7,1.4-3.2c9.2-3.6,13.8-14,10.2-23.3
		c-0.5-1.3,0.1-2.7,1.4-3.2l4.9-1.9c1.3-0.5,2.7,0.1,3.2,1.4c0.5,1.3-0.1,2.7-1.4,3.2l-2.7,1.1C168.8,211.1,162.8,222.9,151.9,227.2
		z"/>
	<circle class="st1" cx="234.3" cy="215.1" r="35.1"/>
	<path d="M247.8,249.6c-19.1,7.5-40.6-1.9-48-21c-7.5-19.1,1.9-40.6,21-48c19.1-7.5,40.6,1.9,48,21
		C276.2,220.6,266.8,242.1,247.8,249.6L247.8,249.6z M222.1,184.2c-17.1,6.7-25.5,26-18.8,43c6.7,17.1,26,25.5,43,18.8
		s25.5-26,18.8-43C258.5,185.9,239.2,177.5,222.1,184.2L222.1,184.2z"/>
	<path d="M240.4,236.3l-1.2-3c-3.1,1.2-6.4,1.5-9.6,0.9l-0.1-4.3c3,0.6,6.2,0.4,9.1-0.8c4-1.6,5.8-5,4.5-8.2c-1.2-3.1-4.2-4.2-9-4.2
		c-6.6,0-11.2-1.2-13.2-6.1c-1.8-4.8,0.3-10.2,5-12.4l-1.2-3l3.5-1.4l1.1,2.7c2.6-1,5.4-1.3,8.1-0.9l0.1,4.3
		c-2.7-0.4-5.4-0.1-7.9,0.9c-4.4,1.7-5,5-4.1,7.2c1.2,2.9,3.8,3.6,9.5,3.7c6.8,0.1,10.8,1.9,12.8,6.9c1.9,5-0.3,10.7-5.2,13.1
		l1.2,3.1L240.4,236.3z"/>
	<path d="M170.8,233c-1,0.4-2.1-0.1-2.5-1.1c-0.4-1,0.1-2.1,1.1-2.5l10.6-4.2c1-0.4,2.1,0.1,2.5,1.1c0.4,1-0.1,2.1-1.1,2.5
		L170.8,233z"/>
	<path d="M177,248.7c-1,0.4-2.1-0.1-2.5-1.1c-0.4-1,0.1-2.1,1.1-2.5l10.6-4.2c1-0.4,2.1,0.1,2.5,1.1c0.4,1-0.1,2.1-1.1,2.5
		L177,248.7z"/>
	<path d="M293,185.1l-10.6,4.1c-1,0.4-2.1-0.1-2.5-1.1c-0.4-1,0.1-2.1,1.1-2.5l10.6-4.1c1-0.4,2.1,0.1,2.5,1.1
		C294.4,183.6,293.9,184.7,293,185.1z"/>
	<path d="M299.1,200.8l-10.6,4.1c-1,0.4-2.1-0.1-2.5-1.1c-0.4-1,0.1-2.1,1.1-2.5l10.6-4.1c1-0.4,2.1,0.1,2.5,1.1
		S300.1,200.4,299.1,200.8L299.1,200.8z"/>
	<path d="M244.2,301.4l-3.3,1.3c-1,0.4-2.1-0.1-2.5-1.1c-0.4-1,0.1-2.1,1.1-2.5l3.3-1.3c1-0.4,2.1,0.1,2.5,1.1
		C245.7,299.9,245.2,301,244.2,301.4z"/>
	<path d="M232.1,306.1l-38,14.9c-1,0.4-2.1-0.1-2.5-1.1c-0.4-1,0.1-2.1,1.1-2.5l38-14.9c1-0.4,2.1,0.1,2.5,1.1
		C233.6,304.6,233.1,305.8,232.1,306.1z"/>
	<path class="st4" d="M316.6,120.8l42.2,107.6c2.3,5.8,0,12.4-5.4,15.6c-0.1-0.7-0.3-1.4-0.6-2l-42.2-107.6
		c-2.6-6.5-10-9.7-16.5-7.2l-182.5,71.6c-0.6,0.2-1.3,0.5-1.8,0.9c-1.3-6.1,2-12.2,7.8-14.5l182.5-71.6
		C306.6,111,314,114.2,316.6,120.8C316.6,120.8,316.6,120.8,316.6,120.8L316.6,120.8z"/>
	<path d="M352.3,246.5l-183.1,71.9c-7.5,2.9-16-0.8-19-8.3L108,202.6c-2.9-7.5,0.8-16,8.3-19l183.1-71.9c7.5-2.9,16,0.8,19,8.3
		l42.2,107.6C363.5,235.1,359.8,243.6,352.3,246.5z M117.7,187.2c-5.5,2.2-8.3,8.4-6.1,14l42.2,107.6c2.2,5.5,8.4,8.3,14,6.1
		l183.1-71.9c5.5-2.2,8.3-8.4,6.1-14l-42.2-107.6c-2.2-5.5-8.4-8.3-14-6.1L117.7,187.2z"/>
</g>
<path class="st5" d="M402.4,200.5H137c-27.9-1.5-40.2-17.1-44.4-40.1v231.1c0,22.2,18,40.1,40.1,40.1c0,0,0,0,0,0h269.7V200.5z"/>
<path class="st6" d="M402.4,200.5v231H132.7c-15.1,0-28.9-8.5-35.8-21.9c5.6,2.8,11.8,4.3,18.1,4.3h269.7V200.5H402.4z"/>
<path d="M371.3,203.2H132.7c-23.6-0.3-42.6-19.6-42.3-43.3c0.3-23.3,19.1-42.1,42.3-42.3h65.2c1.5,0,2.7,1.2,2.7,2.7
	s-1.2,2.7-2.7,2.7h-65.2c-20.7,0.2-37.3,17.2-37,37.9c0.2,20.4,16.7,36.8,37,37h235.9v-75H320c-1.5,0-2.7-1.2-2.7-2.7
	s1.2-2.7,2.7-2.7h51.3c1.5,0,2.7,1.2,2.7,2.7v80.3C373.9,202,372.8,203.2,371.3,203.2z"/>
<g>
	<g>
		<path d="M314.7,450.2h-5.3c-1.5,0-2.7-1.2-2.7-2.7c0-1.5,1.2-2.7,2.7-2.7h5.3c1.5,0,2.7,1.2,2.7,2.7
			C317.3,449,316.1,450.2,314.7,450.2z"/>
		<path d="M296.5,450.2h-61.2c-1.5,0-2.7-1.2-2.7-2.7c0-1.5,1.2-2.7,2.7-2.7h61.2c1.5,0,2.7,1.2,2.7,2.7
			C299.1,449,297.9,450.2,296.5,450.2z"/>
	</g>
</g>
<path class="st7" d="M114.5,339.3c-1.9,0-3.5-1.5-3.5-3.5l0,0v-6.7c0-1.9,1.5-3.5,3.5-3.5c1.9,0,3.5,1.5,3.5,3.5v6.7
	C118,337.8,116.4,339.3,114.5,339.3L114.5,339.3z"/>
<path class="st7" d="M114.5,316c-1.9,0-3.5-1.5-3.5-3.5l0,0v-53.3c0-1.9,1.5-3.5,3.5-3.5c1.9,0,3.5,1.5,3.5,3.5l0,0v53.3
	C118,314.5,116.4,316,114.5,316L114.5,316z"/>
<path d="M82.2,138.8c-1.5,0-2.7-1.2-2.7-2.7c0-0.4,0.1-0.8,0.3-1.1c9.6-19.9,29.4-32.8,51.5-33.4c0.1,0,0.2,0,0.3,0h1.1
	c1.5,0,2.7,1.2,2.7,2.7c0,1.5-1.2,2.7-2.7,2.7c-20.5,0.1-39.2,11.9-48.1,30.4C84.2,138.2,83.2,138.8,82.2,138.8z"/>
<path d="M151.2,106.9h-3.7c-1.5,0-2.7-1.2-2.7-2.7c0-1.5,1.2-2.7,2.7-2.7h3.7c1.5,0,2.7,1.2,2.7,2.7
	C153.9,105.7,152.7,106.9,151.2,106.9z"/>
<path d="M402.4,434.2H132.7c-23.6,0-42.8-19.1-42.8-42.7V160.4c0-1.4,1.1-2.6,2.6-2.7c1.4-0.1,2.6,1,2.7,2.4c0,0,0,0.1,0,0.1
	c1.7,24,15.4,36.3,41.9,37.7h265.3c1.5,0,2.7,1.2,2.7,2.7v231C405.1,433,403.9,434.2,402.4,434.2z M95.2,181v210.4
	c0,20.7,16.8,37.4,37.5,37.4h267V203.2H137C116.3,202.1,102.4,194.7,95.2,181L95.2,181z"/>
<path class="st3" d="M360.7,345.8h50.9c5.6,0,10.1-4.5,10.1-10.1l0,0v-39.4c0-5.6-4.5-10.1-10.1-10.1l0,0h-50.9
	c-16.5,0-29.8,13.4-29.8,29.8C330.9,332.5,344.2,345.8,360.7,345.8L360.7,345.8z"/>
<path d="M411.6,348.5h-50.9c-17.9,0-32.5-14.5-32.5-32.5s14.5-32.5,32.5-32.5h50.9c7.1,0,12.8,5.7,12.8,12.8v39.4
	C424.4,342.8,418.6,348.5,411.6,348.5L411.6,348.5z M360.7,288.9c-15,0-27.2,12.2-27.2,27.2c0,15,12.2,27.2,27.2,27.2h50.9
	c4.1,0,7.5-3.3,7.5-7.5l0,0v-39.4c0-4.1-3.3-7.5-7.5-7.5l0,0H360.7z"/>
<circle class="st1" cx="357.9" cy="316" r="12.1"/>
</svg>
