<?xml version="1.0" encoding="utf-8"?>
<!-- Generator: Adobe Illustrator 24.0.1, SVG Export Plug-In . SVG Version: 6.00 Build 0)  -->
<svg version="1.1" id="Layer_1" xmlns="http://www.w3.org/2000/svg" xmlns:xlink="http://www.w3.org/1999/xlink" x="0px" y="0px"
	 viewBox="0 0 285.9 285.9" style="enable-background:new 0 0 285.9 285.9;" xml:space="preserve">
<style type="text/css">
	.st0{fill:#4D4D4F;}
	.st1{fill:#ED1B2F;}
	.st2{fill:#FFFFFF;}
</style>
<g>
	<g>
		<g>
			<path class="st0" d="M218,105.1h-44.9v5.4H218c8.9,0,16.1,7.2,16.1,16.1v22.9l-3.2-2.4c-3.8-2.9-8.2-4.4-12.9-4.4H68
				c-8.9,0-16.1-7.2-16.1-16.1c0-8.8,7.2-16.1,16.1-16.1h49.6v-5.4H68c-11.8,0-21.4,9.6-21.4,21.4v135.9c0,11.8,9.6,21.4,21.4,21.4
				h150c11.8,0,21.4-9.6,21.4-21.4V126.6C239.4,114.7,229.8,105.1,218,105.1z M234,241.1h-58.3c-14,0-25.4-11.4-25.4-25.4
				c0-14,11.4-25.4,25.4-25.4H234V241.1z M234,184.8h-58.3c-17,0-30.8,13.8-30.8,30.8s13.8,30.8,30.8,30.8H234v16.1
				c0,8.9-7.2,16.1-16.1,16.1H68c-8.9,0-16.1-7.2-16.1-16.1V141.3l3.2,2.4c3.7,2.8,8.2,4.3,12.9,4.3h150c8.9,0,16.1,7.2,16.1,16.1
				V184.8z"/>
		</g>
		<g>
			<rect x="70" y="123.9" class="st0" width="146" height="5.4"/>
		</g>
		<circle class="st1" cx="143" cy="89.1" r="37.5"/>
		<g>
			<path class="st2" d="M159.7,98.4c0,6.7-5.4,12.1-12.1,12.1h-2v4.7h-5.4v-4.7h-2c-6,0-10.9-4.4-11.9-10.1h5.5
				c0.8,2.7,3.4,4.7,6.4,4.7h9.4c3.7,0,6.7-3,6.7-6.7s-3-6.7-6.7-6.7h-9.4c-6.7,0-12.1-5.4-12.1-12.1s5.4-12.1,12.1-12.1h2v-4.7h5.4
				v4.7h2c6,0,10.9,4.4,11.9,10.1H154c-0.8-2.7-3.4-4.7-6.4-4.7h-9.4c-3.7,0-6.7,3-6.7,6.7c0,3.7,3,6.7,6.7,6.7h9.4
				C154.3,86.4,159.7,91.8,159.7,98.4z"/>
		</g>
		<g>
			<rect x="140.3" y="2" class="st0" width="5.4" height="33.5"/>
		</g>
		<g>
			<rect x="173.1" y="16.1" class="st0" width="5.4" height="33.5"/>
		</g>
		<g>
			<rect x="107.5" y="25.4" class="st0" width="5.4" height="24.1"/>
		</g>
	</g>
</g>
<polygon class="st1" points="187.8,235.3 156,215.6 187.8,195.9 "/>
</svg>
